M48
; DRILL file KiCad 10.0.3 date 2026-06-02T11:27:48
; FORMAT={-:-/ absolute / metric / decimal}
; #@! TF.CreationDate,2026-06-02T11:27:48+02:00
; #@! TF.GenerationSoftware,Kicad,Pcbnew,10.0.3
; #@! TF.FileFunction,Plated,1,2,PTH
FMAT,2
METRIC
; #@! TA.AperFunction,Plated,PTH,ViaDrill
T1C0.300
; #@! TA.AperFunction,Plated,PTH,ComponentDrill
T2C0.800
; #@! TA.AperFunction,Plated,PTH,ComponentDrill
T3C1.000
; #@! TA.AperFunction,Plated,PTH,ComponentDrill
T4C1.500
%
G90
G05
T1
X76.2Y-40.64
X81.28Y-48.26
X81.28Y-83.82
X83.82Y-63.5
X88.9Y-50.8
X88.9Y-78.74
X91.44Y-83.82
X93.98Y-55.88
T2
X81.28Y-37.57
X81.28Y-45.19
X83.82Y-50.88
X83.82Y-55.88
X92.375Y-165.58
X94.375Y-165.58
X96.375Y-165.58
X97.89Y-53.567
X97.89Y-58.567
X99.06Y-37.57
X99.06Y-45.19
X99.06Y-63.5
X99.06Y-65.5
T3
X50.8Y-35.56
X50.8Y-38.1
X50.8Y-40.64
X50.8Y-43.18
X50.8Y-45.72
X50.8Y-48.26
X50.8Y-50.8
X50.8Y-53.34
X50.8Y-91.44
X50.8Y-93.98
X50.8Y-96.52
X50.8Y-99.06
X50.8Y-101.6
X50.8Y-104.14
X50.8Y-106.68
X50.8Y-109.22
X50.8Y-149.86
X50.8Y-152.4
X50.8Y-154.94
X50.8Y-157.48
X50.8Y-160.02
X50.8Y-162.56
X50.8Y-165.1
X50.8Y-167.64
X71.12Y-35.56
X71.12Y-38.1
X71.12Y-40.64
X71.12Y-43.18
X71.12Y-45.72
X71.12Y-48.26
X71.12Y-50.8
X71.12Y-53.34
X76.2Y-149.86
X76.2Y-152.4
X76.2Y-154.94
X76.2Y-157.48
X76.2Y-160.02
X76.2Y-162.56
X76.2Y-165.1
X76.2Y-167.64
X86.36Y-66.04
X86.36Y-68.58
X86.36Y-71.12
X86.36Y-73.66
X86.36Y-76.2
X86.36Y-78.74
X88.9Y-124.46
X88.9Y-127.0
X88.9Y-129.54
X88.9Y-132.08
X99.06Y-147.32
T4
X90.275Y-165.58
X98.475Y-165.58
M30
