%TF.GenerationSoftware,KiCad,Pcbnew,10.0.3*%
%TF.CreationDate,2026-06-02T11:27:33+02:00*%
%TF.ProjectId,bikesensor_pcb,62696b65-7365-46e7-936f-725f7063622e,rev?*%
%TF.SameCoordinates,Original*%
%TF.FileFunction,Copper,L2,Bot*%
%TF.FilePolarity,Positive*%
%FSLAX46Y46*%
G04 Gerber Fmt 4.6, Leading zero omitted, Abs format (unit mm)*
G04 Created by KiCad (PCBNEW 10.0.3) date 2026-06-02 11:27:33*
%MOMM*%
%LPD*%
G01*
G04 APERTURE LIST*
G04 Aperture macros list*
%AMRoundRect*
0 Rectangle with rounded corners*
0 $1 Rounding radius*
0 $2 $3 $4 $5 $6 $7 $8 $9 X,Y pos of 4 corners*
0 Add a 4 corners polygon primitive as box body*
4,1,4,$2,$3,$4,$5,$6,$7,$8,$9,$2,$3,0*
0 Add four circle primitives for the rounded corners*
1,1,$1+$1,$2,$3*
1,1,$1+$1,$4,$5*
1,1,$1+$1,$6,$7*
1,1,$1+$1,$8,$9*
0 Add four rect primitives between the rounded corners*
20,1,$1+$1,$2,$3,$4,$5,0*
20,1,$1+$1,$4,$5,$6,$7,0*
20,1,$1+$1,$6,$7,$8,$9,0*
20,1,$1+$1,$8,$9,$2,$3,0*%
G04 Aperture macros list end*
%TA.AperFunction,ComponentPad*%
%ADD10R,1.700000X1.700000*%
%TD*%
%TA.AperFunction,ComponentPad*%
%ADD11C,1.700000*%
%TD*%
%TA.AperFunction,ComponentPad*%
%ADD12O,2.200000X3.500000*%
%TD*%
%TA.AperFunction,ComponentPad*%
%ADD13R,1.500000X2.500000*%
%TD*%
%TA.AperFunction,ComponentPad*%
%ADD14O,1.500000X2.500000*%
%TD*%
%TA.AperFunction,ComponentPad*%
%ADD15C,1.600000*%
%TD*%
%TA.AperFunction,ComponentPad*%
%ADD16RoundRect,0.250000X-0.550000X0.550000X-0.550000X-0.550000X0.550000X-0.550000X0.550000X0.550000X0*%
%TD*%
%TA.AperFunction,ViaPad*%
%ADD17C,0.600000*%
%TD*%
%TA.AperFunction,Conductor*%
%ADD18C,0.812800*%
%TD*%
%TA.AperFunction,Conductor*%
%ADD19C,0.254000*%
%TD*%
%TA.AperFunction,Conductor*%
%ADD20C,0.609600*%
%TD*%
G04 APERTURE END LIST*
D10*
%TO.P,J5,1,Pin_1_1*%
%TO.N,+5V*%
X88900000Y-124460000D03*
D11*
%TO.P,J5,2,Pin_2_2*%
%TO.N,/GPS_TX*%
X88900000Y-127000000D03*
%TO.P,J5,3,Pin_3_3*%
%TO.N,/GPS_RX*%
X88900000Y-129540000D03*
%TO.P,J5,4,Pin_4_4*%
%TO.N,GND*%
X88900000Y-132080000D03*
%TD*%
D12*
%TO.P,SW1,*%
%TO.N,*%
X90275000Y-165580000D03*
X98475000Y-165580000D03*
D13*
%TO.P,SW1,1,A_1*%
%TO.N,+5V*%
X92375000Y-165580000D03*
D14*
%TO.P,SW1,2,B_2*%
%TO.N,Net-(J7-Pin_8)*%
X94375000Y-165580000D03*
%TO.P,SW1,3,C_3*%
%TO.N,unconnected-(SW1-C-Pad3)*%
X96375000Y-165580000D03*
%TD*%
D10*
%TO.P,J7,1,Pin_1_1*%
%TO.N,unconnected-(J7-Pin_1-Pad1)*%
X76200000Y-149860000D03*
D11*
%TO.P,J7,2,Pin_2_2*%
%TO.N,unconnected-(J7-Pin_2-Pad2)*%
X76200000Y-152400000D03*
%TO.P,J7,3,Pin_3_3*%
%TO.N,unconnected-(J7-Pin_3-Pad3)*%
X76200000Y-154940000D03*
%TO.P,J7,4,Pin_4_4*%
%TO.N,unconnected-(J7-Pin_4-Pad4)*%
X76200000Y-157480000D03*
%TO.P,J7,5,Pin_5_5*%
%TO.N,unconnected-(J7-Pin_5-Pad5)*%
X76200000Y-160020000D03*
%TO.P,J7,6,Pin_6_6*%
%TO.N,unconnected-(J7-Pin_6-Pad6)*%
X76200000Y-162560000D03*
%TO.P,J7,7,Pin_7_7*%
%TO.N,GND*%
X76200000Y-165100000D03*
%TO.P,J7,8,Pin_8_8*%
%TO.N,Net-(J7-Pin_8)*%
X76200000Y-167640000D03*
%TD*%
D10*
%TO.P,J8,1,Pin_1_1*%
%TO.N,/VBAT*%
X99060000Y-147320000D03*
%TD*%
%TO.P,J6,1,Pin_1_1*%
%TO.N,unconnected-(J6-Pin_1-Pad1)*%
X50800000Y-149860000D03*
D11*
%TO.P,J6,2,Pin_2_2*%
%TO.N,unconnected-(J6-Pin_2-Pad2)*%
X50800000Y-152400000D03*
%TO.P,J6,3,Pin_3_3*%
%TO.N,unconnected-(J6-Pin_3-Pad3)*%
X50800000Y-154940000D03*
%TO.P,J6,4,Pin_4_4*%
%TO.N,unconnected-(J6-Pin_4-Pad4)*%
X50800000Y-157480000D03*
%TO.P,J6,5,Pin_5_5*%
%TO.N,unconnected-(J6-Pin_5-Pad5)*%
X50800000Y-160020000D03*
%TO.P,J6,6,Pin_6_6*%
%TO.N,unconnected-(J6-Pin_6-Pad6)*%
X50800000Y-162560000D03*
%TO.P,J6,7,Pin_7_7*%
%TO.N,unconnected-(J6-Pin_7-Pad7)*%
X50800000Y-165100000D03*
%TO.P,J6,8,Pin_8_8*%
%TO.N,unconnected-(J6-Pin_8-Pad8)*%
X50800000Y-167640000D03*
%TD*%
D15*
%TO.P,R1,1*%
%TO.N,/VBAT*%
X99060000Y-37570000D03*
%TO.P,R1,2*%
%TO.N,/BATTERY_ADC*%
X99060000Y-45190000D03*
%TD*%
D16*
%TO.P,C1,1*%
%TO.N,+3V3*%
X99060000Y-63500000D03*
D15*
%TO.P,C1,2*%
%TO.N,GND*%
X99060000Y-65500000D03*
%TD*%
%TO.P,C2,1*%
%TO.N,+3V3*%
X97890000Y-53567086D03*
%TO.P,C2,2*%
%TO.N,GND*%
X97890000Y-58567086D03*
%TD*%
%TO.P,R2,1*%
%TO.N,/BATTERY_ADC*%
X81280000Y-37570000D03*
%TO.P,R2,2*%
%TO.N,GND*%
X81280000Y-45190000D03*
%TD*%
D10*
%TO.P,J1,1,Pin_1_1*%
%TO.N,+5V*%
X50800000Y-35560000D03*
D11*
%TO.P,J1,2,Pin_2_2*%
%TO.N,GND*%
X50800000Y-38100000D03*
%TO.P,J1,3,Pin_3_3*%
%TO.N,+3V3*%
X50800000Y-40640000D03*
%TO.P,J1,4,Pin_4_4*%
%TO.N,/GPIO_9*%
X50800000Y-43180000D03*
%TO.P,J1,5,Pin_5_5*%
%TO.N,/GPIO_8*%
X50800000Y-45720000D03*
%TO.P,J1,6,Pin_6_6*%
%TO.N,/I2C_SCL*%
X50800000Y-48260000D03*
%TO.P,J1,7,Pin_7_7*%
%TO.N,/I2C_SDA*%
X50800000Y-50800000D03*
%TO.P,J1,8,Pin_8_8*%
%TO.N,/SPI_MISO*%
X50800000Y-53340000D03*
%TD*%
D15*
%TO.P,C3,1*%
%TO.N,/BATTERY_ADC*%
X83820000Y-50880000D03*
%TO.P,C3,2*%
%TO.N,GND*%
X83820000Y-55880000D03*
%TD*%
D10*
%TO.P,J3,1,Pin_1_1*%
%TO.N,+3V3*%
X50800000Y-91440000D03*
D11*
%TO.P,J3,2,Pin_2_2*%
%TO.N,GND*%
X50800000Y-93980000D03*
%TO.P,J3,3,Pin_3_3*%
%TO.N,/I2C_SCL*%
X50800000Y-96520000D03*
%TO.P,J3,4,Pin_4_4*%
%TO.N,/I2C_SDA*%
X50800000Y-99060000D03*
%TO.P,J3,5,Pin_5_5*%
%TO.N,/XDA*%
X50800000Y-101600000D03*
%TO.P,J3,6,Pin_6_6*%
%TO.N,/XCL*%
X50800000Y-104140000D03*
%TO.P,J3,7,Pin_7_7*%
%TO.N,/AD0*%
X50800000Y-106680000D03*
%TO.P,J3,8,Pin_8_8*%
%TO.N,/INT*%
X50800000Y-109220000D03*
%TD*%
D10*
%TO.P,J4,1,Pin_1_1*%
%TO.N,GND*%
X86360000Y-66040000D03*
D11*
%TO.P,J4,2,Pin_2_2*%
%TO.N,+3V3*%
X86360000Y-68580000D03*
%TO.P,J4,3,Pin_3_3*%
%TO.N,/SPI_MISO*%
X86360000Y-71120000D03*
%TO.P,J4,4,Pin_4_4*%
%TO.N,/SPI_MOSI*%
X86360000Y-73660000D03*
%TO.P,J4,5,Pin_5_5*%
%TO.N,/SPI_SCK*%
X86360000Y-76200000D03*
%TO.P,J4,6,Pin_6_6*%
%TO.N,/SPI_CS*%
X86360000Y-78740000D03*
%TD*%
D10*
%TO.P,J2,1,Pin_1_1*%
%TO.N,/SPI_SCK*%
X71120000Y-35560000D03*
D11*
%TO.P,J2,2,Pin_2_2*%
%TO.N,/SPI_MOSI*%
X71120000Y-38100000D03*
%TO.P,J2,3,Pin_3_3*%
%TO.N,/SPI_CS*%
X71120000Y-40640000D03*
%TO.P,J2,4,Pin_4_4*%
%TO.N,/GPS_TX*%
X71120000Y-43180000D03*
%TO.P,J2,5,Pin_5_5*%
%TO.N,/BATTERY_ADC*%
X71120000Y-45720000D03*
%TO.P,J2,6,Pin_6_6*%
%TO.N,/UART_TX_DEBUG*%
X71120000Y-48260000D03*
%TO.P,J2,7,Pin_7_7*%
%TO.N,/UART_RX_DEBUG*%
X71120000Y-50800000D03*
%TO.P,J2,8,Pin_8_8*%
%TO.N,/GPS_RX*%
X71120000Y-53340000D03*
%TD*%
D17*
%TO.N,GND*%
X93980000Y-55880000D03*
X88900000Y-50800000D03*
X81280000Y-48260000D03*
%TO.N,/SPI_MISO*%
X81280000Y-83820000D03*
X91440000Y-83820000D03*
%TO.N,/SPI_SCK*%
X83820000Y-63500000D03*
%TO.N,/SPI_CS*%
X88900000Y-78740000D03*
X76200000Y-40640000D03*
%TD*%
%TO.N,+5V*%
D18*
X50800000Y-35560000D02*
X58420000Y-35560000D01*
X84903600Y-120463600D02*
X88900000Y-124460000D01*
X58420000Y-53340000D02*
X74743600Y-69663600D01*
X92375000Y-165580000D02*
X92375000Y-161327800D01*
X87443600Y-125916400D02*
X88900000Y-124460000D01*
X58420000Y-35560000D02*
X58420000Y-53340000D01*
X84903600Y-69663600D02*
X84903600Y-120463600D01*
X74743600Y-69663600D02*
X84903600Y-69663600D01*
X92375000Y-161327800D02*
X87443600Y-156396400D01*
X87443600Y-156396400D02*
X87443600Y-125916400D01*
%TO.N,GND*%
D19*
X81280000Y-45190000D02*
X81280000Y-48260000D01*
D18*
X88900000Y-50800000D02*
X83820000Y-55880000D01*
X93980000Y-55880000D02*
X95202914Y-55880000D01*
X95202914Y-55880000D02*
X97890000Y-58567086D01*
%TO.N,/VBAT*%
X101600000Y-40110000D02*
X99060000Y-37570000D01*
X99060000Y-147320000D02*
X101600000Y-144780000D01*
X101600000Y-144780000D02*
X101600000Y-40110000D01*
%TO.N,/BATTERY_ADC*%
D19*
X83210000Y-39500000D02*
X81280000Y-37570000D01*
X83820000Y-50880000D02*
X76280000Y-50880000D01*
X83820000Y-39500000D02*
X89510000Y-45190000D01*
X83820000Y-39500000D02*
X83210000Y-39500000D01*
X99060000Y-45190000D02*
X89510000Y-45190000D01*
X76280000Y-50880000D02*
X71120000Y-45720000D01*
X89510000Y-45190000D02*
X83820000Y-50880000D01*
%TO.N,+3V3*%
D20*
X95907633Y-50187633D02*
X95907633Y-51584719D01*
X97824800Y-62264800D02*
X92675200Y-62264800D01*
X90254800Y-55840466D02*
X95907633Y-50187633D01*
X49445200Y-39285200D02*
X50800000Y-40640000D01*
X49445200Y-34205200D02*
X49445200Y-39285200D01*
X86360000Y-68580000D02*
X90254800Y-64685200D01*
X99060000Y-63500000D02*
X97824800Y-62264800D01*
X99060000Y-63500000D02*
X97755200Y-62195200D01*
X95907633Y-51584719D02*
X97890000Y-53567086D01*
X92675200Y-62264800D02*
X86360000Y-68580000D01*
X49445200Y-34205200D02*
X49445200Y-90085200D01*
X89920466Y-34205200D02*
X49445200Y-34205200D01*
X100364800Y-45730466D02*
X100364800Y-44649534D01*
X100364800Y-44649534D02*
X89920466Y-34205200D01*
X95907633Y-50187633D02*
X100364800Y-45730466D01*
X49445200Y-90085200D02*
X50800000Y-91440000D01*
X90254800Y-64685200D02*
X90254800Y-55840466D01*
%TO.N,/SPI_MISO*%
D19*
X91440000Y-83820000D02*
X91440000Y-76200000D01*
X91440000Y-76200000D02*
X86360000Y-71120000D01*
X50800000Y-53340000D02*
X81280000Y-83820000D01*
%TO.N,/SPI_SCK*%
X69943000Y-36737000D02*
X69943000Y-46207530D01*
X69943000Y-46207530D02*
X70632470Y-46897000D01*
X71607530Y-46897000D02*
X83820000Y-59109470D01*
X71120000Y-35560000D02*
X69943000Y-36737000D01*
X70632470Y-46897000D02*
X71607530Y-46897000D01*
X83820000Y-59109470D02*
X83820000Y-63500000D01*
%TO.N,/SPI_CS*%
X86360000Y-78740000D02*
X88900000Y-78740000D01*
X76200000Y-40640000D02*
X71120000Y-40640000D01*
%TD*%
%TA.AperFunction,Conductor*%
%TO.N,GND*%
G36*
X69712539Y-35030185D02*
G01*
X69758294Y-35082989D01*
X69769500Y-35134500D01*
X69769500Y-35971718D01*
X69749815Y-36038757D01*
X69733180Y-36059399D01*
X69542992Y-36249589D01*
X69499289Y-36293292D01*
X69455586Y-36336994D01*
X69455585Y-36336996D01*
X69386920Y-36439761D01*
X69386916Y-36439768D01*
X69379485Y-36457710D01*
X69379484Y-36457713D01*
X69339614Y-36553965D01*
X69339612Y-36553971D01*
X69320047Y-36652328D01*
X69320048Y-36652329D01*
X69315500Y-36675196D01*
X69315500Y-46269337D01*
X69339612Y-46390558D01*
X69339613Y-46390562D01*
X69339614Y-46390565D01*
X69355046Y-46427820D01*
X69367745Y-46458477D01*
X69367744Y-46458477D01*
X69367745Y-46458478D01*
X69386914Y-46504758D01*
X69407633Y-46535767D01*
X69455590Y-46607540D01*
X69455593Y-46607543D01*
X70073233Y-47225182D01*
X70106718Y-47286505D01*
X70101734Y-47356196D01*
X70085870Y-47385748D01*
X69964951Y-47552179D01*
X69868444Y-47741585D01*
X69802753Y-47943760D01*
X69769500Y-48153713D01*
X69769500Y-48366287D01*
X69802754Y-48576243D01*
X69812046Y-48604842D01*
X69868444Y-48778414D01*
X69964951Y-48967820D01*
X70089890Y-49139786D01*
X70240213Y-49290109D01*
X70412182Y-49415050D01*
X70420946Y-49419516D01*
X70471742Y-49467491D01*
X70488536Y-49535312D01*
X70465998Y-49601447D01*
X70420946Y-49640484D01*
X70412182Y-49644949D01*
X70240213Y-49769890D01*
X70089890Y-49920213D01*
X69964951Y-50092179D01*
X69868444Y-50281585D01*
X69802753Y-50483760D01*
X69769500Y-50693713D01*
X69769500Y-50906287D01*
X69802754Y-51116243D01*
X69824943Y-51184534D01*
X69868444Y-51318414D01*
X69964951Y-51507820D01*
X70089890Y-51679786D01*
X70240213Y-51830109D01*
X70412182Y-51955050D01*
X70420946Y-51959516D01*
X70471742Y-52007491D01*
X70488536Y-52075312D01*
X70465998Y-52141447D01*
X70420946Y-52180484D01*
X70412182Y-52184949D01*
X70240213Y-52309890D01*
X70089890Y-52460213D01*
X69964951Y-52632179D01*
X69868444Y-52821585D01*
X69802753Y-53023760D01*
X69769500Y-53233713D01*
X69769500Y-53446287D01*
X69802754Y-53656243D01*
X69848067Y-53795702D01*
X69868444Y-53858414D01*
X69964951Y-54047820D01*
X70089890Y-54219786D01*
X70240213Y-54370109D01*
X70412179Y-54495048D01*
X70412181Y-54495049D01*
X70412184Y-54495051D01*
X70601588Y-54591557D01*
X70803757Y-54657246D01*
X71013713Y-54690500D01*
X71013714Y-54690500D01*
X71226286Y-54690500D01*
X71226287Y-54690500D01*
X71436243Y-54657246D01*
X71638412Y-54591557D01*
X71827816Y-54495051D01*
X71849789Y-54479086D01*
X71999786Y-54370109D01*
X71999788Y-54370106D01*
X71999792Y-54370104D01*
X72150104Y-54219792D01*
X72150106Y-54219788D01*
X72150109Y-54219786D01*
X72275048Y-54047820D01*
X72275047Y-54047820D01*
X72275051Y-54047816D01*
X72371557Y-53858412D01*
X72437246Y-53656243D01*
X72470500Y-53446287D01*
X72470500Y-53233713D01*
X72437246Y-53023757D01*
X72371557Y-52821588D01*
X72275051Y-52632184D01*
X72275049Y-52632181D01*
X72275048Y-52632179D01*
X72150109Y-52460213D01*
X71999786Y-52309890D01*
X71827820Y-52184951D01*
X71827115Y-52184591D01*
X71819054Y-52180485D01*
X71768259Y-52132512D01*
X71751463Y-52064692D01*
X71773999Y-51998556D01*
X71819054Y-51959515D01*
X71827816Y-51955051D01*
X71942167Y-51871971D01*
X71999786Y-51830109D01*
X71999788Y-51830106D01*
X71999792Y-51830104D01*
X72150104Y-51679792D01*
X72150106Y-51679788D01*
X72150109Y-51679786D01*
X72275048Y-51507820D01*
X72275047Y-51507820D01*
X72275051Y-51507816D01*
X72371557Y-51318412D01*
X72437246Y-51116243D01*
X72470500Y-50906287D01*
X72470500Y-50693713D01*
X72437246Y-50483757D01*
X72371557Y-50281588D01*
X72275051Y-50092184D01*
X72275049Y-50092181D01*
X72275048Y-50092179D01*
X72150109Y-49920213D01*
X71999786Y-49769890D01*
X71827820Y-49644951D01*
X71827115Y-49644591D01*
X71819054Y-49640485D01*
X71768259Y-49592512D01*
X71751463Y-49524692D01*
X71773999Y-49458556D01*
X71819054Y-49419515D01*
X71827816Y-49415051D01*
X71849789Y-49399086D01*
X71999786Y-49290109D01*
X71999788Y-49290106D01*
X71999792Y-49290104D01*
X72150104Y-49139792D01*
X72150106Y-49139788D01*
X72150109Y-49139786D01*
X72275050Y-48967817D01*
X72275051Y-48967816D01*
X72371557Y-48778412D01*
X72371558Y-48778408D01*
X72371696Y-48778138D01*
X72419670Y-48727341D01*
X72487491Y-48710546D01*
X72553626Y-48733083D01*
X72569862Y-48746751D01*
X83156181Y-59333070D01*
X83189666Y-59394393D01*
X83192500Y-59420751D01*
X83192500Y-62960642D01*
X83172815Y-63027681D01*
X83171602Y-63029533D01*
X83110609Y-63120814D01*
X83110602Y-63120827D01*
X83050264Y-63266498D01*
X83050261Y-63266510D01*
X83019500Y-63421153D01*
X83019500Y-63578846D01*
X83050261Y-63733489D01*
X83050264Y-63733501D01*
X83110602Y-63879172D01*
X83110609Y-63879185D01*
X83198210Y-64010288D01*
X83198213Y-64010292D01*
X83309707Y-64121786D01*
X83309711Y-64121789D01*
X83440814Y-64209390D01*
X83440827Y-64209397D01*
X83586498Y-64269735D01*
X83586503Y-64269737D01*
X83740007Y-64300271D01*
X83741153Y-64300499D01*
X83741156Y-64300500D01*
X83741158Y-64300500D01*
X83898844Y-64300500D01*
X83898845Y-64300499D01*
X84053497Y-64269737D01*
X84199179Y-64209394D01*
X84330289Y-64121789D01*
X84441789Y-64010289D01*
X84529394Y-63879179D01*
X84589737Y-63733497D01*
X84620500Y-63578842D01*
X84620500Y-63421158D01*
X84620500Y-63421155D01*
X84620499Y-63421153D01*
X84609005Y-63363370D01*
X84589737Y-63266503D01*
X84589735Y-63266498D01*
X84529397Y-63120827D01*
X84529390Y-63120814D01*
X84468398Y-63029533D01*
X84447520Y-62962855D01*
X84447500Y-62960642D01*
X84447500Y-59047666D01*
X84447499Y-59047662D01*
X84423386Y-58926436D01*
X84378407Y-58817849D01*
X84376763Y-58813254D01*
X84307414Y-58709466D01*
X84307413Y-58709464D01*
X84267352Y-58669403D01*
X84220008Y-58622059D01*
X81375631Y-55777682D01*
X82520000Y-55777682D01*
X82520000Y-55982317D01*
X82552009Y-56184417D01*
X82615244Y-56379031D01*
X82708141Y-56561350D01*
X82708147Y-56561359D01*
X82740523Y-56605921D01*
X82740524Y-56605922D01*
X83420000Y-55926446D01*
X83420000Y-55932661D01*
X83447259Y-56034394D01*
X83499920Y-56125606D01*
X83574394Y-56200080D01*
X83665606Y-56252741D01*
X83767339Y-56280000D01*
X83773553Y-56280000D01*
X83094076Y-56959474D01*
X83138650Y-56991859D01*
X83320968Y-57084755D01*
X83515582Y-57147990D01*
X83717683Y-57180000D01*
X83922317Y-57180000D01*
X84124417Y-57147990D01*
X84319031Y-57084755D01*
X84501349Y-56991859D01*
X84545921Y-56959474D01*
X83866447Y-56280000D01*
X83872661Y-56280000D01*
X83974394Y-56252741D01*
X84065606Y-56200080D01*
X84140080Y-56125606D01*
X84192741Y-56034394D01*
X84220000Y-55932661D01*
X84220000Y-55926448D01*
X84899474Y-56605922D01*
X84899474Y-56605921D01*
X84931859Y-56561349D01*
X85024755Y-56379031D01*
X85087990Y-56184417D01*
X85120000Y-55982317D01*
X85120000Y-55777682D01*
X85087990Y-55575582D01*
X85024755Y-55380968D01*
X84931859Y-55198650D01*
X84899474Y-55154077D01*
X84899474Y-55154076D01*
X84220000Y-55833551D01*
X84220000Y-55827339D01*
X84192741Y-55725606D01*
X84140080Y-55634394D01*
X84065606Y-55559920D01*
X83974394Y-55507259D01*
X83872661Y-55480000D01*
X83866446Y-55480000D01*
X84545922Y-54800524D01*
X84545921Y-54800523D01*
X84501359Y-54768147D01*
X84501350Y-54768141D01*
X84319031Y-54675244D01*
X84124417Y-54612009D01*
X83922317Y-54580000D01*
X83717683Y-54580000D01*
X83515582Y-54612009D01*
X83320968Y-54675244D01*
X83138644Y-54768143D01*
X83094077Y-54800523D01*
X83094077Y-54800524D01*
X83773554Y-55480000D01*
X83767339Y-55480000D01*
X83665606Y-55507259D01*
X83574394Y-55559920D01*
X83499920Y-55634394D01*
X83447259Y-55725606D01*
X83420000Y-55827339D01*
X83420000Y-55833553D01*
X82740524Y-55154077D01*
X82740523Y-55154077D01*
X82708143Y-55198644D01*
X82615244Y-55380968D01*
X82552009Y-55575582D01*
X82520000Y-55777682D01*
X81375631Y-55777682D01*
X77317130Y-51719181D01*
X77283645Y-51657858D01*
X77288629Y-51588166D01*
X77330501Y-51532233D01*
X77395965Y-51507816D01*
X77404811Y-51507500D01*
X82605219Y-51507500D01*
X82672258Y-51527185D01*
X82705538Y-51558615D01*
X82707710Y-51561605D01*
X82707713Y-51561610D01*
X82777641Y-51657858D01*
X82828034Y-51727219D01*
X82972786Y-51871971D01*
X83093281Y-51959514D01*
X83138390Y-51992287D01*
X83254607Y-52051503D01*
X83320776Y-52085218D01*
X83320778Y-52085218D01*
X83320781Y-52085220D01*
X83405427Y-52112723D01*
X83515465Y-52148477D01*
X83616557Y-52164488D01*
X83717648Y-52180500D01*
X83717649Y-52180500D01*
X83922351Y-52180500D01*
X83922352Y-52180500D01*
X84124534Y-52148477D01*
X84319219Y-52085220D01*
X84501610Y-51992287D01*
X84594590Y-51924732D01*
X84667213Y-51871971D01*
X84667215Y-51871968D01*
X84667219Y-51871966D01*
X84811966Y-51727219D01*
X84811968Y-51727215D01*
X84811971Y-51727213D01*
X84912993Y-51588166D01*
X84932287Y-51561610D01*
X85025220Y-51379219D01*
X85088477Y-51184534D01*
X85120500Y-50982352D01*
X85120500Y-50777648D01*
X85088477Y-50575466D01*
X85088476Y-50575463D01*
X85087897Y-50571807D01*
X85096851Y-50502514D01*
X85122686Y-50464731D01*
X89733600Y-45853819D01*
X89794923Y-45820334D01*
X89821281Y-45817500D01*
X97845219Y-45817500D01*
X97912258Y-45837185D01*
X97945538Y-45868615D01*
X97947710Y-45871605D01*
X97947713Y-45871610D01*
X98067321Y-46036238D01*
X98068034Y-46037219D01*
X98212786Y-46181971D01*
X98378388Y-46302286D01*
X98408976Y-46317872D01*
X98459771Y-46365846D01*
X98476566Y-46433667D01*
X98454028Y-46499802D01*
X98440361Y-46516037D01*
X96802686Y-48153713D01*
X95394287Y-49562112D01*
X95394284Y-49562115D01*
X95282115Y-49674284D01*
X95282112Y-49674287D01*
X89741454Y-55214945D01*
X89741451Y-55214948D01*
X89685365Y-55271033D01*
X89629280Y-55327118D01*
X89541155Y-55459006D01*
X89541148Y-55459019D01*
X89480448Y-55605564D01*
X89480445Y-55605574D01*
X89449499Y-55761148D01*
X89449499Y-55925894D01*
X89449500Y-55925915D01*
X89449500Y-64300271D01*
X89429815Y-64367310D01*
X89413181Y-64387952D01*
X87921681Y-65879452D01*
X87860358Y-65912937D01*
X87790666Y-65907953D01*
X87734733Y-65866081D01*
X87710316Y-65800617D01*
X87710000Y-65791771D01*
X87710000Y-65142172D01*
X87709999Y-65142155D01*
X87703598Y-65082627D01*
X87703596Y-65082620D01*
X87653354Y-64947913D01*
X87653350Y-64947906D01*
X87567190Y-64832812D01*
X87567187Y-64832809D01*
X87452093Y-64746649D01*
X87452086Y-64746645D01*
X87317379Y-64696403D01*
X87317372Y-64696401D01*
X87257844Y-64690000D01*
X86610000Y-64690000D01*
X86610000Y-65606988D01*
X86552993Y-65574075D01*
X86425826Y-65540000D01*
X86294174Y-65540000D01*
X86167007Y-65574075D01*
X86110000Y-65606988D01*
X86110000Y-64690000D01*
X85462155Y-64690000D01*
X85402627Y-64696401D01*
X85402620Y-64696403D01*
X85267913Y-64746645D01*
X85267906Y-64746649D01*
X85152812Y-64832809D01*
X85152809Y-64832812D01*
X85066649Y-64947906D01*
X85066645Y-64947913D01*
X85016403Y-65082620D01*
X85016401Y-65082627D01*
X85010000Y-65142155D01*
X85010000Y-65790000D01*
X85926988Y-65790000D01*
X85894075Y-65847007D01*
X85860000Y-65974174D01*
X85860000Y-66105826D01*
X85894075Y-66232993D01*
X85926988Y-66290000D01*
X85010000Y-66290000D01*
X85010000Y-66937844D01*
X85016401Y-66997372D01*
X85016403Y-66997379D01*
X85066645Y-67132086D01*
X85066649Y-67132093D01*
X85152809Y-67247187D01*
X85152812Y-67247190D01*
X85267906Y-67333350D01*
X85267913Y-67333354D01*
X85399470Y-67382422D01*
X85455404Y-67424293D01*
X85479821Y-67489758D01*
X85464969Y-67558031D01*
X85443819Y-67586285D01*
X85329889Y-67700215D01*
X85204951Y-67872179D01*
X85108444Y-68061585D01*
X85042753Y-68263760D01*
X85009500Y-68473713D01*
X85009500Y-68632700D01*
X84989815Y-68699739D01*
X84937011Y-68745494D01*
X84885500Y-68756700D01*
X75170613Y-68756700D01*
X75103574Y-68737015D01*
X75082932Y-68720381D01*
X59363219Y-53000668D01*
X59329734Y-52939345D01*
X59326900Y-52912987D01*
X59326900Y-35470675D01*
X59292049Y-35295472D01*
X59292048Y-35295471D01*
X59292048Y-35295467D01*
X59245029Y-35181953D01*
X59237560Y-35112483D01*
X59268835Y-35050004D01*
X59328924Y-35014352D01*
X59359590Y-35010500D01*
X69645500Y-35010500D01*
X69712539Y-35030185D01*
G37*
%TD.AperFunction*%
%TA.AperFunction,Conductor*%
G36*
X89602577Y-35030185D02*
G01*
X89623219Y-35046819D01*
X98440362Y-43863962D01*
X98473847Y-43925285D01*
X98468863Y-43994977D01*
X98426991Y-44050910D01*
X98408978Y-44062127D01*
X98378386Y-44077714D01*
X98212786Y-44198028D01*
X98068034Y-44342780D01*
X98042042Y-44378556D01*
X97947713Y-44508390D01*
X97947710Y-44508394D01*
X97945538Y-44511385D01*
X97890208Y-44554051D01*
X97845219Y-44562500D01*
X89821281Y-44562500D01*
X89754242Y-44542815D01*
X89733600Y-44526181D01*
X84220011Y-39012591D01*
X84220007Y-39012588D01*
X84117239Y-38943920D01*
X84117226Y-38943913D01*
X84083785Y-38930062D01*
X84003035Y-38896614D01*
X84003027Y-38896612D01*
X83881807Y-38872500D01*
X83881803Y-38872500D01*
X83521281Y-38872500D01*
X83454242Y-38852815D01*
X83433600Y-38836181D01*
X82582689Y-37985270D01*
X82549204Y-37923947D01*
X82547897Y-37878190D01*
X82548475Y-37874539D01*
X82548477Y-37874534D01*
X82580500Y-37672352D01*
X82580500Y-37467648D01*
X82548477Y-37265465D01*
X82485218Y-37070776D01*
X82436752Y-36975658D01*
X82392287Y-36888390D01*
X82367151Y-36853793D01*
X82271971Y-36722786D01*
X82127213Y-36578028D01*
X81961613Y-36457715D01*
X81961612Y-36457714D01*
X81961610Y-36457713D01*
X81904653Y-36428691D01*
X81779223Y-36364781D01*
X81584534Y-36301522D01*
X81409995Y-36273878D01*
X81382352Y-36269500D01*
X81177648Y-36269500D01*
X81153329Y-36273351D01*
X80975465Y-36301522D01*
X80780776Y-36364781D01*
X80598386Y-36457715D01*
X80432786Y-36578028D01*
X80288028Y-36722786D01*
X80167715Y-36888386D01*
X80074781Y-37070776D01*
X80011522Y-37265465D01*
X79979500Y-37467648D01*
X79979500Y-37672351D01*
X80011522Y-37874534D01*
X80074781Y-38069223D01*
X80167715Y-38251613D01*
X80288028Y-38417213D01*
X80432786Y-38561971D01*
X80587749Y-38674556D01*
X80598390Y-38682287D01*
X80714607Y-38741503D01*
X80780776Y-38775218D01*
X80780778Y-38775218D01*
X80780781Y-38775220D01*
X80885137Y-38809127D01*
X80975465Y-38838477D01*
X81065991Y-38852815D01*
X81177648Y-38870500D01*
X81177649Y-38870500D01*
X81382350Y-38870500D01*
X81382352Y-38870500D01*
X81584534Y-38838477D01*
X81584539Y-38838475D01*
X81588190Y-38837897D01*
X81657484Y-38846851D01*
X81695270Y-38872689D01*
X82722589Y-39900008D01*
X82767373Y-39944792D01*
X82809993Y-39987412D01*
X82912760Y-40056079D01*
X82912773Y-40056086D01*
X83026960Y-40103383D01*
X83026965Y-40103385D01*
X83026969Y-40103385D01*
X83026970Y-40103386D01*
X83148194Y-40127500D01*
X83148197Y-40127500D01*
X83508719Y-40127500D01*
X83575758Y-40147185D01*
X83596400Y-40163819D01*
X88534899Y-45102318D01*
X88568384Y-45163641D01*
X88563400Y-45233333D01*
X88534899Y-45277680D01*
X84235269Y-49577310D01*
X84173946Y-49610795D01*
X84128190Y-49612102D01*
X84004505Y-49592512D01*
X83922352Y-49579500D01*
X83717648Y-49579500D01*
X83693329Y-49583351D01*
X83515465Y-49611522D01*
X83320776Y-49674781D01*
X83138386Y-49767715D01*
X82972786Y-49888028D01*
X82828034Y-50032780D01*
X82775794Y-50104682D01*
X82707713Y-50198390D01*
X82707710Y-50198394D01*
X82705538Y-50201385D01*
X82650208Y-50244051D01*
X82605219Y-50252500D01*
X76591281Y-50252500D01*
X76524242Y-50232815D01*
X76503600Y-50216181D01*
X72463121Y-46175702D01*
X72429636Y-46114379D01*
X72432873Y-46049698D01*
X72437246Y-46036243D01*
X72470500Y-45826287D01*
X72470500Y-45613713D01*
X72437246Y-45403757D01*
X72371557Y-45201588D01*
X72371555Y-45201585D01*
X72371555Y-45201583D01*
X72339724Y-45139112D01*
X72339723Y-45139111D01*
X72313519Y-45087682D01*
X79980000Y-45087682D01*
X79980000Y-45292317D01*
X80012009Y-45494417D01*
X80075244Y-45689031D01*
X80168141Y-45871350D01*
X80168147Y-45871359D01*
X80200523Y-45915921D01*
X80200524Y-45915922D01*
X80880000Y-45236446D01*
X80880000Y-45242661D01*
X80907259Y-45344394D01*
X80959920Y-45435606D01*
X81034394Y-45510080D01*
X81125606Y-45562741D01*
X81227339Y-45590000D01*
X81233553Y-45590000D01*
X80554076Y-46269474D01*
X80598650Y-46301859D01*
X80780968Y-46394755D01*
X80975582Y-46457990D01*
X81177683Y-46490000D01*
X81382317Y-46490000D01*
X81584417Y-46457990D01*
X81779031Y-46394755D01*
X81961349Y-46301859D01*
X82005921Y-46269474D01*
X81326447Y-45590000D01*
X81332661Y-45590000D01*
X81434394Y-45562741D01*
X81525606Y-45510080D01*
X81600080Y-45435606D01*
X81652741Y-45344394D01*
X81680000Y-45242661D01*
X81680000Y-45236448D01*
X82359474Y-45915922D01*
X82359474Y-45915921D01*
X82391859Y-45871349D01*
X82484755Y-45689031D01*
X82547990Y-45494417D01*
X82580000Y-45292317D01*
X82580000Y-45087682D01*
X82547990Y-44885582D01*
X82484755Y-44690968D01*
X82391859Y-44508650D01*
X82359474Y-44464077D01*
X82359474Y-44464076D01*
X81680000Y-45143551D01*
X81680000Y-45137339D01*
X81652741Y-45035606D01*
X81600080Y-44944394D01*
X81525606Y-44869920D01*
X81434394Y-44817259D01*
X81332661Y-44790000D01*
X81326446Y-44790000D01*
X82005922Y-44110524D01*
X82005921Y-44110523D01*
X81961359Y-44078147D01*
X81961350Y-44078141D01*
X81779031Y-43985244D01*
X81584417Y-43922009D01*
X81382317Y-43890000D01*
X81177683Y-43890000D01*
X80975582Y-43922009D01*
X80780968Y-43985244D01*
X80598644Y-44078143D01*
X80554077Y-44110523D01*
X80554077Y-44110524D01*
X81233554Y-44790000D01*
X81227339Y-44790000D01*
X81125606Y-44817259D01*
X81034394Y-44869920D01*
X80959920Y-44944394D01*
X80907259Y-45035606D01*
X80880000Y-45137339D01*
X80880000Y-45143553D01*
X80200524Y-44464077D01*
X80200523Y-44464077D01*
X80168143Y-44508644D01*
X80075244Y-44690968D01*
X80012009Y-44885582D01*
X79980000Y-45087682D01*
X72313519Y-45087682D01*
X72275051Y-45012184D01*
X72275049Y-45012181D01*
X72275048Y-45012179D01*
X72150109Y-44840213D01*
X71999786Y-44689890D01*
X71827820Y-44564951D01*
X71827115Y-44564591D01*
X71819054Y-44560485D01*
X71768259Y-44512512D01*
X71751463Y-44444692D01*
X71773999Y-44378556D01*
X71819054Y-44339515D01*
X71827816Y-44335051D01*
X71849789Y-44319086D01*
X71999786Y-44210109D01*
X71999788Y-44210106D01*
X71999792Y-44210104D01*
X72150104Y-44059792D01*
X72150106Y-44059788D01*
X72150109Y-44059786D01*
X72275048Y-43887820D01*
X72275047Y-43887820D01*
X72275051Y-43887816D01*
X72371557Y-43698412D01*
X72437246Y-43496243D01*
X72470500Y-43286287D01*
X72470500Y-43073713D01*
X72437246Y-42863757D01*
X72371557Y-42661588D01*
X72275051Y-42472184D01*
X72275049Y-42472181D01*
X72275048Y-42472179D01*
X72150109Y-42300213D01*
X71999786Y-42149890D01*
X71827820Y-42024951D01*
X71827115Y-42024591D01*
X71819054Y-42020485D01*
X71768259Y-41972512D01*
X71751463Y-41904692D01*
X71773999Y-41838556D01*
X71819054Y-41799515D01*
X71827816Y-41795051D01*
X71849789Y-41779086D01*
X71999786Y-41670109D01*
X71999788Y-41670106D01*
X71999792Y-41670104D01*
X72150104Y-41519792D01*
X72150106Y-41519788D01*
X72150109Y-41519786D01*
X72275050Y-41347818D01*
X72281475Y-41335208D01*
X72329448Y-41284411D01*
X72391961Y-41267500D01*
X75660643Y-41267500D01*
X75727682Y-41287185D01*
X75729534Y-41288398D01*
X75820814Y-41349390D01*
X75820827Y-41349397D01*
X75966498Y-41409735D01*
X75966503Y-41409737D01*
X76121153Y-41440499D01*
X76121156Y-41440500D01*
X76121158Y-41440500D01*
X76278844Y-41440500D01*
X76278845Y-41440499D01*
X76433497Y-41409737D01*
X76579179Y-41349394D01*
X76710289Y-41261789D01*
X76821789Y-41150289D01*
X76909394Y-41019179D01*
X76969737Y-40873497D01*
X77000500Y-40718842D01*
X77000500Y-40561158D01*
X77000500Y-40561155D01*
X77000499Y-40561153D01*
X76969738Y-40406510D01*
X76969737Y-40406503D01*
X76935463Y-40323757D01*
X76909397Y-40260827D01*
X76909390Y-40260814D01*
X76821789Y-40129711D01*
X76821786Y-40129707D01*
X76710292Y-40018213D01*
X76710288Y-40018210D01*
X76579185Y-39930609D01*
X76579172Y-39930602D01*
X76433501Y-39870264D01*
X76433489Y-39870261D01*
X76278845Y-39839500D01*
X76278842Y-39839500D01*
X76121158Y-39839500D01*
X76121155Y-39839500D01*
X75966510Y-39870261D01*
X75966498Y-39870264D01*
X75820827Y-39930602D01*
X75820814Y-39930609D01*
X75729534Y-39991602D01*
X75662857Y-40012480D01*
X75660643Y-40012500D01*
X72391961Y-40012500D01*
X72324922Y-39992815D01*
X72281475Y-39944792D01*
X72275050Y-39932181D01*
X72150109Y-39760213D01*
X71999786Y-39609890D01*
X71827820Y-39484951D01*
X71827115Y-39484591D01*
X71819054Y-39480485D01*
X71768259Y-39432512D01*
X71751463Y-39364692D01*
X71773999Y-39298556D01*
X71819054Y-39259515D01*
X71827816Y-39255051D01*
X71902557Y-39200749D01*
X71999786Y-39130109D01*
X71999788Y-39130106D01*
X71999792Y-39130104D01*
X72150104Y-38979792D01*
X72150106Y-38979788D01*
X72150109Y-38979786D01*
X72275048Y-38807820D01*
X72275047Y-38807820D01*
X72275051Y-38807816D01*
X72371557Y-38618412D01*
X72437246Y-38416243D01*
X72470500Y-38206287D01*
X72470500Y-37993713D01*
X72437246Y-37783757D01*
X72371557Y-37581588D01*
X72275051Y-37392184D01*
X72275049Y-37392181D01*
X72275048Y-37392179D01*
X72150109Y-37220213D01*
X72036569Y-37106673D01*
X72003084Y-37045350D01*
X72008068Y-36975658D01*
X72049940Y-36919725D01*
X72080915Y-36902810D01*
X72212331Y-36853796D01*
X72327546Y-36767546D01*
X72413796Y-36652331D01*
X72464091Y-36517483D01*
X72470500Y-36457873D01*
X72470499Y-35134499D01*
X72490184Y-35067461D01*
X72542987Y-35021706D01*
X72594499Y-35010500D01*
X89535538Y-35010500D01*
X89602577Y-35030185D01*
G37*
%TD.AperFunction*%
%TA.AperFunction,Conductor*%
G36*
X110288942Y-20450716D02*
G01*
X110334697Y-20503520D01*
X110345903Y-20555031D01*
X110345903Y-186739481D01*
X110326218Y-186806520D01*
X110273414Y-186852275D01*
X110221903Y-186863481D01*
X38724500Y-186863481D01*
X38657461Y-186843796D01*
X38611706Y-186790992D01*
X38600500Y-186739481D01*
X38600500Y-180177106D01*
X42819500Y-180177106D01*
X42819500Y-180502893D01*
X42855974Y-180826604D01*
X42855976Y-180826620D01*
X42928467Y-181144226D01*
X42928471Y-181144238D01*
X43036066Y-181451725D01*
X43177413Y-181745234D01*
X43177415Y-181745237D01*
X43350739Y-182021081D01*
X43553857Y-182275783D01*
X43784217Y-182506143D01*
X44038919Y-182709261D01*
X44314763Y-182882585D01*
X44608278Y-183023935D01*
X44839217Y-183104744D01*
X44915761Y-183131528D01*
X44915773Y-183131532D01*
X45233383Y-183204024D01*
X45557106Y-183240499D01*
X45557107Y-183240500D01*
X45557111Y-183240500D01*
X45882893Y-183240500D01*
X45882893Y-183240499D01*
X46206617Y-183204024D01*
X46524227Y-183131532D01*
X46831722Y-183023935D01*
X47125237Y-182882585D01*
X47401081Y-182709261D01*
X47655783Y-182506143D01*
X47886143Y-182275783D01*
X48089261Y-182021081D01*
X48262585Y-181745237D01*
X48403935Y-181451722D01*
X48511532Y-181144227D01*
X48584024Y-180826617D01*
X48620500Y-180502889D01*
X48620500Y-180177111D01*
X48584024Y-179853383D01*
X48511532Y-179535773D01*
X48492394Y-179481081D01*
X48484744Y-179459217D01*
X48403935Y-179228278D01*
X48262585Y-178934763D01*
X48089261Y-178658919D01*
X47886143Y-178404217D01*
X47655783Y-178173857D01*
X47401081Y-177970739D01*
X47125237Y-177797415D01*
X47125234Y-177797413D01*
X47017128Y-177745352D01*
X46831725Y-177656066D01*
X46777541Y-177637106D01*
X101239500Y-177637106D01*
X101239500Y-177962893D01*
X101275974Y-178286604D01*
X101275976Y-178286620D01*
X101348467Y-178604226D01*
X101348471Y-178604238D01*
X101456066Y-178911725D01*
X101597413Y-179205234D01*
X101597415Y-179205237D01*
X101770739Y-179481081D01*
X101973857Y-179735783D01*
X102204217Y-179966143D01*
X102458919Y-180169261D01*
X102734763Y-180342585D01*
X103028278Y-180483935D01*
X103259217Y-180564744D01*
X103335761Y-180591528D01*
X103335773Y-180591532D01*
X103653383Y-180664024D01*
X103977106Y-180700499D01*
X103977107Y-180700500D01*
X103977111Y-180700500D01*
X104302893Y-180700500D01*
X104302893Y-180700499D01*
X104626617Y-180664024D01*
X104944227Y-180591532D01*
X105251722Y-180483935D01*
X105545237Y-180342585D01*
X105821081Y-180169261D01*
X106075783Y-179966143D01*
X106306143Y-179735783D01*
X106509261Y-179481081D01*
X106682585Y-179205237D01*
X106823935Y-178911722D01*
X106931532Y-178604227D01*
X107004024Y-178286617D01*
X107040500Y-177962889D01*
X107040500Y-177637111D01*
X107004024Y-177313383D01*
X106931532Y-176995773D01*
X106823935Y-176688278D01*
X106682585Y-176394763D01*
X106509261Y-176118919D01*
X106306143Y-175864217D01*
X106075783Y-175633857D01*
X105821081Y-175430739D01*
X105545237Y-175257415D01*
X105545234Y-175257413D01*
X105251725Y-175116066D01*
X104944238Y-175008471D01*
X104944226Y-175008467D01*
X104626620Y-174935976D01*
X104626604Y-174935974D01*
X104302893Y-174899500D01*
X104302889Y-174899500D01*
X103977111Y-174899500D01*
X103977107Y-174899500D01*
X103653395Y-174935974D01*
X103653379Y-174935976D01*
X103335773Y-175008467D01*
X103335761Y-175008471D01*
X103028274Y-175116066D01*
X102734765Y-175257413D01*
X102458920Y-175430738D01*
X102204217Y-175633856D01*
X101973856Y-175864217D01*
X101770738Y-176118920D01*
X101597413Y-176394765D01*
X101456066Y-176688274D01*
X101348471Y-176995761D01*
X101348467Y-176995773D01*
X101275976Y-177313379D01*
X101275974Y-177313395D01*
X101239500Y-177637106D01*
X46777541Y-177637106D01*
X46524238Y-177548471D01*
X46524226Y-177548467D01*
X46206620Y-177475976D01*
X46206604Y-177475974D01*
X45882893Y-177439500D01*
X45882889Y-177439500D01*
X45557111Y-177439500D01*
X45557107Y-177439500D01*
X45233395Y-177475974D01*
X45233379Y-177475976D01*
X44915773Y-177548467D01*
X44915761Y-177548471D01*
X44608274Y-177656066D01*
X44314765Y-177797413D01*
X44038920Y-177970738D01*
X43784217Y-178173856D01*
X43553856Y-178404217D01*
X43350738Y-178658920D01*
X43177413Y-178934765D01*
X43036066Y-179228274D01*
X42928471Y-179535761D01*
X42928467Y-179535773D01*
X42855976Y-179853379D01*
X42855974Y-179853395D01*
X42819500Y-180177106D01*
X38600500Y-180177106D01*
X38600500Y-148962135D01*
X49449500Y-148962135D01*
X49449500Y-150757870D01*
X49449501Y-150757876D01*
X49455908Y-150817483D01*
X49506202Y-150952328D01*
X49506206Y-150952335D01*
X49592452Y-151067544D01*
X49592455Y-151067547D01*
X49707664Y-151153793D01*
X49707671Y-151153797D01*
X49839082Y-151202810D01*
X49895016Y-151244681D01*
X49919433Y-151310145D01*
X49904582Y-151378418D01*
X49883431Y-151406673D01*
X49769889Y-151520215D01*
X49644951Y-151692179D01*
X49548444Y-151881585D01*
X49482753Y-152083760D01*
X49449500Y-152293713D01*
X49449500Y-152506286D01*
X49482753Y-152716239D01*
X49548444Y-152918414D01*
X49644951Y-153107820D01*
X49769890Y-153279786D01*
X49920213Y-153430109D01*
X50092182Y-153555050D01*
X50100946Y-153559516D01*
X50151742Y-153607491D01*
X50168536Y-153675312D01*
X50145998Y-153741447D01*
X50100946Y-153780484D01*
X50092182Y-153784949D01*
X49920213Y-153909890D01*
X49769890Y-154060213D01*
X49644951Y-154232179D01*
X49548444Y-154421585D01*
X49482753Y-154623760D01*
X49449500Y-154833713D01*
X49449500Y-155046286D01*
X49482753Y-155256239D01*
X49548444Y-155458414D01*
X49644951Y-155647820D01*
X49769890Y-155819786D01*
X49920213Y-155970109D01*
X50092182Y-156095050D01*
X50100946Y-156099516D01*
X50151742Y-156147491D01*
X50168536Y-156215312D01*
X50145998Y-156281447D01*
X50100946Y-156320484D01*
X50092182Y-156324949D01*
X49920213Y-156449890D01*
X49769890Y-156600213D01*
X49644951Y-156772179D01*
X49548444Y-156961585D01*
X49482753Y-157163760D01*
X49449500Y-157373713D01*
X49449500Y-157586286D01*
X49482753Y-157796239D01*
X49548444Y-157998414D01*
X49644951Y-158187820D01*
X49769890Y-158359786D01*
X49920213Y-158510109D01*
X50092182Y-158635050D01*
X50100946Y-158639516D01*
X50151742Y-158687491D01*
X50168536Y-158755312D01*
X50145998Y-158821447D01*
X50100946Y-158860484D01*
X50092182Y-158864949D01*
X49920213Y-158989890D01*
X49769890Y-159140213D01*
X49644951Y-159312179D01*
X49548444Y-159501585D01*
X49482753Y-159703760D01*
X49449500Y-159913713D01*
X49449500Y-160126286D01*
X49482753Y-160336239D01*
X49548444Y-160538414D01*
X49644951Y-160727820D01*
X49769890Y-160899786D01*
X49920213Y-161050109D01*
X50092182Y-161175050D01*
X50100946Y-161179516D01*
X50151742Y-161227491D01*
X50168536Y-161295312D01*
X50145998Y-161361447D01*
X50100946Y-161400484D01*
X50092182Y-161404949D01*
X49920213Y-161529890D01*
X49769890Y-161680213D01*
X49644951Y-161852179D01*
X49548444Y-162041585D01*
X49482753Y-162243760D01*
X49449500Y-162453713D01*
X49449500Y-162666286D01*
X49482753Y-162876239D01*
X49548444Y-163078414D01*
X49644951Y-163267820D01*
X49769890Y-163439786D01*
X49920213Y-163590109D01*
X50092182Y-163715050D01*
X50100946Y-163719516D01*
X50151742Y-163767491D01*
X50168536Y-163835312D01*
X50145998Y-163901447D01*
X50100946Y-163940484D01*
X50092182Y-163944949D01*
X49920213Y-164069890D01*
X49769890Y-164220213D01*
X49644951Y-164392179D01*
X49548444Y-164581585D01*
X49482753Y-164783760D01*
X49449500Y-164993713D01*
X49449500Y-165206286D01*
X49482753Y-165416239D01*
X49548444Y-165618414D01*
X49644951Y-165807820D01*
X49769890Y-165979786D01*
X49920213Y-166130109D01*
X50092182Y-166255050D01*
X50100946Y-166259516D01*
X50151742Y-166307491D01*
X50168536Y-166375312D01*
X50145998Y-166441447D01*
X50100946Y-166480484D01*
X50092182Y-166484949D01*
X49920213Y-166609890D01*
X49769890Y-166760213D01*
X49644951Y-166932179D01*
X49548444Y-167121585D01*
X49482753Y-167323760D01*
X49449500Y-167533713D01*
X49449500Y-167746286D01*
X49482753Y-167956239D01*
X49548444Y-168158414D01*
X49644951Y-168347820D01*
X49769890Y-168519786D01*
X49920213Y-168670109D01*
X50092179Y-168795048D01*
X50092181Y-168795049D01*
X50092184Y-168795051D01*
X50281588Y-168891557D01*
X50483757Y-168957246D01*
X50693713Y-168990500D01*
X50693714Y-168990500D01*
X50906286Y-168990500D01*
X50906287Y-168990500D01*
X51116243Y-168957246D01*
X51318412Y-168891557D01*
X51507816Y-168795051D01*
X51529789Y-168779086D01*
X51679786Y-168670109D01*
X51679788Y-168670106D01*
X51679792Y-168670104D01*
X51830104Y-168519792D01*
X51830106Y-168519788D01*
X51830109Y-168519786D01*
X51955048Y-168347820D01*
X51955047Y-168347820D01*
X51955051Y-168347816D01*
X52051557Y-168158412D01*
X52117246Y-167956243D01*
X52150500Y-167746287D01*
X52150500Y-167533713D01*
X52117246Y-167323757D01*
X52051557Y-167121588D01*
X51955051Y-166932184D01*
X51955049Y-166932181D01*
X51955048Y-166932179D01*
X51830109Y-166760213D01*
X51679786Y-166609890D01*
X51507820Y-166484951D01*
X51507115Y-166484591D01*
X51499054Y-166480485D01*
X51448259Y-166432512D01*
X51431463Y-166364692D01*
X51453999Y-166298556D01*
X51499054Y-166259515D01*
X51507816Y-166255051D01*
X51562572Y-166215269D01*
X51679786Y-166130109D01*
X51679788Y-166130106D01*
X51679792Y-166130104D01*
X51830104Y-165979792D01*
X51830106Y-165979788D01*
X51830109Y-165979786D01*
X51955048Y-165807820D01*
X51955047Y-165807820D01*
X51955051Y-165807816D01*
X52051557Y-165618412D01*
X52117246Y-165416243D01*
X52150500Y-165206287D01*
X52150500Y-164993713D01*
X52117246Y-164783757D01*
X52051557Y-164581588D01*
X51955051Y-164392184D01*
X51955049Y-164392181D01*
X51955048Y-164392179D01*
X51830109Y-164220213D01*
X51679786Y-164069890D01*
X51507820Y-163944951D01*
X51499600Y-163940763D01*
X51499054Y-163940485D01*
X51448259Y-163892512D01*
X51431463Y-163824692D01*
X51453999Y-163758556D01*
X51499054Y-163719515D01*
X51507816Y-163715051D01*
X51562303Y-163675464D01*
X51679786Y-163590109D01*
X51679788Y-163590106D01*
X51679792Y-163590104D01*
X51830104Y-163439792D01*
X51830106Y-163439788D01*
X51830109Y-163439786D01*
X51955048Y-163267820D01*
X51955047Y-163267820D01*
X51955051Y-163267816D01*
X52051557Y-163078412D01*
X52117246Y-162876243D01*
X52150500Y-162666287D01*
X52150500Y-162453713D01*
X52117246Y-162243757D01*
X52051557Y-162041588D01*
X51955051Y-161852184D01*
X51955049Y-161852181D01*
X51955048Y-161852179D01*
X51830109Y-161680213D01*
X51679786Y-161529890D01*
X51507820Y-161404951D01*
X51507115Y-161404591D01*
X51499054Y-161400485D01*
X51448259Y-161352512D01*
X51431463Y-161284692D01*
X51453999Y-161218556D01*
X51499054Y-161179515D01*
X51507816Y-161175051D01*
X51661675Y-161063267D01*
X51679786Y-161050109D01*
X51679788Y-161050106D01*
X51679792Y-161050104D01*
X51830104Y-160899792D01*
X51830106Y-160899788D01*
X51830109Y-160899786D01*
X51955048Y-160727820D01*
X51955047Y-160727820D01*
X51955051Y-160727816D01*
X52051557Y-160538412D01*
X52117246Y-160336243D01*
X52150500Y-160126287D01*
X52150500Y-159913713D01*
X52117246Y-159703757D01*
X52051557Y-159501588D01*
X51955051Y-159312184D01*
X51955049Y-159312181D01*
X51955048Y-159312179D01*
X51830109Y-159140213D01*
X51679786Y-158989890D01*
X51507820Y-158864951D01*
X51507115Y-158864591D01*
X51499054Y-158860485D01*
X51448259Y-158812512D01*
X51431463Y-158744692D01*
X51453999Y-158678556D01*
X51499054Y-158639515D01*
X51507816Y-158635051D01*
X51529789Y-158619086D01*
X51679786Y-158510109D01*
X51679788Y-158510106D01*
X51679792Y-158510104D01*
X51830104Y-158359792D01*
X51830106Y-158359788D01*
X51830109Y-158359786D01*
X51955048Y-158187820D01*
X51955047Y-158187820D01*
X51955051Y-158187816D01*
X52051557Y-157998412D01*
X52117246Y-157796243D01*
X52150500Y-157586287D01*
X52150500Y-157373713D01*
X52117246Y-157163757D01*
X52051557Y-156961588D01*
X51955051Y-156772184D01*
X51955049Y-156772181D01*
X51955048Y-156772179D01*
X51830109Y-156600213D01*
X51679786Y-156449890D01*
X51507820Y-156324951D01*
X51507115Y-156324591D01*
X51499054Y-156320485D01*
X51448259Y-156272512D01*
X51431463Y-156204692D01*
X51453999Y-156138556D01*
X51499054Y-156099515D01*
X51507816Y-156095051D01*
X51529789Y-156079086D01*
X51679786Y-155970109D01*
X51679788Y-155970106D01*
X51679792Y-155970104D01*
X51830104Y-155819792D01*
X51830106Y-155819788D01*
X51830109Y-155819786D01*
X51955048Y-155647820D01*
X51955047Y-155647820D01*
X51955051Y-155647816D01*
X52051557Y-155458412D01*
X52117246Y-155256243D01*
X52150500Y-155046287D01*
X52150500Y-154833713D01*
X52117246Y-154623757D01*
X52051557Y-154421588D01*
X51955051Y-154232184D01*
X51955049Y-154232181D01*
X51955048Y-154232179D01*
X51830109Y-154060213D01*
X51679786Y-153909890D01*
X51507820Y-153784951D01*
X51507115Y-153784591D01*
X51499054Y-153780485D01*
X51448259Y-153732512D01*
X51431463Y-153664692D01*
X51453999Y-153598556D01*
X51499054Y-153559515D01*
X51507816Y-153555051D01*
X51529789Y-153539086D01*
X51679786Y-153430109D01*
X51679788Y-153430106D01*
X51679792Y-153430104D01*
X51830104Y-153279792D01*
X51830106Y-153279788D01*
X51830109Y-153279786D01*
X51955048Y-153107820D01*
X51955047Y-153107820D01*
X51955051Y-153107816D01*
X52051557Y-152918412D01*
X52117246Y-152716243D01*
X52150500Y-152506287D01*
X52150500Y-152293713D01*
X52117246Y-152083757D01*
X52051557Y-151881588D01*
X51955051Y-151692184D01*
X51955049Y-151692181D01*
X51955048Y-151692179D01*
X51830109Y-151520213D01*
X51716569Y-151406673D01*
X51683084Y-151345350D01*
X51688068Y-151275658D01*
X51729940Y-151219725D01*
X51760915Y-151202810D01*
X51892331Y-151153796D01*
X52007546Y-151067546D01*
X52093796Y-150952331D01*
X52144091Y-150817483D01*
X52150500Y-150757873D01*
X52150499Y-148962135D01*
X74849500Y-148962135D01*
X74849500Y-150757870D01*
X74849501Y-150757876D01*
X74855908Y-150817483D01*
X74906202Y-150952328D01*
X74906206Y-150952335D01*
X74992452Y-151067544D01*
X74992455Y-151067547D01*
X75107664Y-151153793D01*
X75107671Y-151153797D01*
X75239082Y-151202810D01*
X75295016Y-151244681D01*
X75319433Y-151310145D01*
X75304582Y-151378418D01*
X75283431Y-151406673D01*
X75169889Y-151520215D01*
X75044951Y-151692179D01*
X74948444Y-151881585D01*
X74882753Y-152083760D01*
X74849500Y-152293713D01*
X74849500Y-152506286D01*
X74882753Y-152716239D01*
X74948444Y-152918414D01*
X75044951Y-153107820D01*
X75169890Y-153279786D01*
X75320213Y-153430109D01*
X75492182Y-153555050D01*
X75500946Y-153559516D01*
X75551742Y-153607491D01*
X75568536Y-153675312D01*
X75545998Y-153741447D01*
X75500946Y-153780484D01*
X75492182Y-153784949D01*
X75320213Y-153909890D01*
X75169890Y-154060213D01*
X75044951Y-154232179D01*
X74948444Y-154421585D01*
X74882753Y-154623760D01*
X74849500Y-154833713D01*
X74849500Y-155046286D01*
X74882753Y-155256239D01*
X74948444Y-155458414D01*
X75044951Y-155647820D01*
X75169890Y-155819786D01*
X75320213Y-155970109D01*
X75492182Y-156095050D01*
X75500946Y-156099516D01*
X75551742Y-156147491D01*
X75568536Y-156215312D01*
X75545998Y-156281447D01*
X75500946Y-156320484D01*
X75492182Y-156324949D01*
X75320213Y-156449890D01*
X75169890Y-156600213D01*
X75044951Y-156772179D01*
X74948444Y-156961585D01*
X74882753Y-157163760D01*
X74849500Y-157373713D01*
X74849500Y-157586286D01*
X74882753Y-157796239D01*
X74948444Y-157998414D01*
X75044951Y-158187820D01*
X75169890Y-158359786D01*
X75320213Y-158510109D01*
X75492182Y-158635050D01*
X75500946Y-158639516D01*
X75551742Y-158687491D01*
X75568536Y-158755312D01*
X75545998Y-158821447D01*
X75500946Y-158860484D01*
X75492182Y-158864949D01*
X75320213Y-158989890D01*
X75169890Y-159140213D01*
X75044951Y-159312179D01*
X74948444Y-159501585D01*
X74882753Y-159703760D01*
X74849500Y-159913713D01*
X74849500Y-160126286D01*
X74882753Y-160336239D01*
X74948444Y-160538414D01*
X75044951Y-160727820D01*
X75169890Y-160899786D01*
X75320213Y-161050109D01*
X75492182Y-161175050D01*
X75500946Y-161179516D01*
X75551742Y-161227491D01*
X75568536Y-161295312D01*
X75545998Y-161361447D01*
X75500946Y-161400484D01*
X75492182Y-161404949D01*
X75320213Y-161529890D01*
X75169890Y-161680213D01*
X75044951Y-161852179D01*
X74948444Y-162041585D01*
X74882753Y-162243760D01*
X74849500Y-162453713D01*
X74849500Y-162666286D01*
X74882753Y-162876239D01*
X74948444Y-163078414D01*
X75044951Y-163267820D01*
X75169890Y-163439786D01*
X75320213Y-163590109D01*
X75492179Y-163715048D01*
X75492181Y-163715049D01*
X75492184Y-163715051D01*
X75501493Y-163719794D01*
X75552290Y-163767766D01*
X75569087Y-163835587D01*
X75546552Y-163901722D01*
X75501505Y-163940760D01*
X75492446Y-163945376D01*
X75492440Y-163945380D01*
X75438282Y-163984727D01*
X75438282Y-163984728D01*
X76070591Y-164617037D01*
X76007007Y-164634075D01*
X75892993Y-164699901D01*
X75799901Y-164792993D01*
X75734075Y-164907007D01*
X75717037Y-164970591D01*
X75084728Y-164338282D01*
X75084727Y-164338282D01*
X75045380Y-164392439D01*
X74948904Y-164581782D01*
X74883242Y-164783869D01*
X74883242Y-164783872D01*
X74850000Y-164993753D01*
X74850000Y-165206246D01*
X74883242Y-165416127D01*
X74883242Y-165416130D01*
X74948904Y-165618217D01*
X75045375Y-165807550D01*
X75084728Y-165861716D01*
X75717037Y-165229408D01*
X75734075Y-165292993D01*
X75799901Y-165407007D01*
X75892993Y-165500099D01*
X76007007Y-165565925D01*
X76070590Y-165582962D01*
X75438282Y-166215269D01*
X75438282Y-166215270D01*
X75492452Y-166254626D01*
X75492451Y-166254626D01*
X75501495Y-166259234D01*
X75552292Y-166307208D01*
X75569087Y-166375029D01*
X75546550Y-166441164D01*
X75501499Y-166480202D01*
X75492182Y-166484949D01*
X75320213Y-166609890D01*
X75169890Y-166760213D01*
X75044951Y-166932179D01*
X74948444Y-167121585D01*
X74882753Y-167323760D01*
X74849500Y-167533713D01*
X74849500Y-167746286D01*
X74882753Y-167956239D01*
X74948444Y-168158414D01*
X75044951Y-168347820D01*
X75169890Y-168519786D01*
X75320213Y-168670109D01*
X75492179Y-168795048D01*
X75492181Y-168795049D01*
X75492184Y-168795051D01*
X75681588Y-168891557D01*
X75883757Y-168957246D01*
X76093713Y-168990500D01*
X76093714Y-168990500D01*
X76306286Y-168990500D01*
X76306287Y-168990500D01*
X76516243Y-168957246D01*
X76718412Y-168891557D01*
X76907816Y-168795051D01*
X76929789Y-168779086D01*
X77079786Y-168670109D01*
X77079788Y-168670106D01*
X77079792Y-168670104D01*
X77230104Y-168519792D01*
X77230106Y-168519788D01*
X77230109Y-168519786D01*
X77355048Y-168347820D01*
X77355047Y-168347820D01*
X77355051Y-168347816D01*
X77451557Y-168158412D01*
X77517246Y-167956243D01*
X77550500Y-167746287D01*
X77550500Y-167533713D01*
X77517246Y-167323757D01*
X77451557Y-167121588D01*
X77355051Y-166932184D01*
X77355049Y-166932181D01*
X77355048Y-166932179D01*
X77230109Y-166760213D01*
X77079786Y-166609890D01*
X76907817Y-166484949D01*
X76898504Y-166480204D01*
X76847707Y-166432230D01*
X76830912Y-166364409D01*
X76853449Y-166298274D01*
X76898507Y-166259232D01*
X76907555Y-166254622D01*
X76961716Y-166215270D01*
X76961717Y-166215270D01*
X76329408Y-165582962D01*
X76392993Y-165565925D01*
X76507007Y-165500099D01*
X76600099Y-165407007D01*
X76665925Y-165292993D01*
X76682962Y-165229408D01*
X77315270Y-165861717D01*
X77315270Y-165861716D01*
X77354622Y-165807554D01*
X77451095Y-165618217D01*
X77516757Y-165416130D01*
X77516757Y-165416127D01*
X77550000Y-165206246D01*
X77550000Y-164993753D01*
X77516757Y-164783872D01*
X77516757Y-164783869D01*
X77451095Y-164581782D01*
X77354624Y-164392449D01*
X77315270Y-164338282D01*
X77315269Y-164338282D01*
X76682962Y-164970590D01*
X76665925Y-164907007D01*
X76600099Y-164792993D01*
X76507007Y-164699901D01*
X76392993Y-164634075D01*
X76329409Y-164617037D01*
X76961716Y-163984728D01*
X76907547Y-163945373D01*
X76907547Y-163945372D01*
X76898500Y-163940763D01*
X76847706Y-163892788D01*
X76830912Y-163824966D01*
X76853451Y-163758832D01*
X76898508Y-163719793D01*
X76907816Y-163715051D01*
X77008108Y-163642185D01*
X77079786Y-163590109D01*
X77079788Y-163590106D01*
X77079792Y-163590104D01*
X77230104Y-163439792D01*
X77230106Y-163439788D01*
X77230109Y-163439786D01*
X77355048Y-163267820D01*
X77355047Y-163267820D01*
X77355051Y-163267816D01*
X77451557Y-163078412D01*
X77517246Y-162876243D01*
X77550500Y-162666287D01*
X77550500Y-162453713D01*
X77517246Y-162243757D01*
X77451557Y-162041588D01*
X77355051Y-161852184D01*
X77355049Y-161852181D01*
X77355048Y-161852179D01*
X77230109Y-161680213D01*
X77079786Y-161529890D01*
X76907820Y-161404951D01*
X76907115Y-161404591D01*
X76899054Y-161400485D01*
X76848259Y-161352512D01*
X76831463Y-161284692D01*
X76853999Y-161218556D01*
X76899054Y-161179515D01*
X76907816Y-161175051D01*
X77061675Y-161063267D01*
X77079786Y-161050109D01*
X77079788Y-161050106D01*
X77079792Y-161050104D01*
X77230104Y-160899792D01*
X77230106Y-160899788D01*
X77230109Y-160899786D01*
X77355048Y-160727820D01*
X77355047Y-160727820D01*
X77355051Y-160727816D01*
X77451557Y-160538412D01*
X77517246Y-160336243D01*
X77550500Y-160126287D01*
X77550500Y-159913713D01*
X77517246Y-159703757D01*
X77451557Y-159501588D01*
X77355051Y-159312184D01*
X77355049Y-159312181D01*
X77355048Y-159312179D01*
X77230109Y-159140213D01*
X77079786Y-158989890D01*
X76907820Y-158864951D01*
X76907115Y-158864591D01*
X76899054Y-158860485D01*
X76848259Y-158812512D01*
X76831463Y-158744692D01*
X76853999Y-158678556D01*
X76899054Y-158639515D01*
X76907816Y-158635051D01*
X76929789Y-158619086D01*
X77079786Y-158510109D01*
X77079788Y-158510106D01*
X77079792Y-158510104D01*
X77230104Y-158359792D01*
X77230106Y-158359788D01*
X77230109Y-158359786D01*
X77355048Y-158187820D01*
X77355047Y-158187820D01*
X77355051Y-158187816D01*
X77451557Y-157998412D01*
X77517246Y-157796243D01*
X77550500Y-157586287D01*
X77550500Y-157373713D01*
X77517246Y-157163757D01*
X77451557Y-156961588D01*
X77355051Y-156772184D01*
X77355049Y-156772181D01*
X77355048Y-156772179D01*
X77230109Y-156600213D01*
X77079786Y-156449890D01*
X76907820Y-156324951D01*
X76907115Y-156324591D01*
X76899054Y-156320485D01*
X76848259Y-156272512D01*
X76831463Y-156204692D01*
X76853999Y-156138556D01*
X76899054Y-156099515D01*
X76907816Y-156095051D01*
X76929789Y-156079086D01*
X77079786Y-155970109D01*
X77079788Y-155970106D01*
X77079792Y-155970104D01*
X77230104Y-155819792D01*
X77230106Y-155819788D01*
X77230109Y-155819786D01*
X77355048Y-155647820D01*
X77355047Y-155647820D01*
X77355051Y-155647816D01*
X77451557Y-155458412D01*
X77517246Y-155256243D01*
X77550500Y-155046287D01*
X77550500Y-154833713D01*
X77517246Y-154623757D01*
X77451557Y-154421588D01*
X77355051Y-154232184D01*
X77355049Y-154232181D01*
X77355048Y-154232179D01*
X77230109Y-154060213D01*
X77079786Y-153909890D01*
X76907820Y-153784951D01*
X76907115Y-153784591D01*
X76899054Y-153780485D01*
X76848259Y-153732512D01*
X76831463Y-153664692D01*
X76853999Y-153598556D01*
X76899054Y-153559515D01*
X76907816Y-153555051D01*
X76929789Y-153539086D01*
X77079786Y-153430109D01*
X77079788Y-153430106D01*
X77079792Y-153430104D01*
X77230104Y-153279792D01*
X77230106Y-153279788D01*
X77230109Y-153279786D01*
X77355048Y-153107820D01*
X77355047Y-153107820D01*
X77355051Y-153107816D01*
X77451557Y-152918412D01*
X77517246Y-152716243D01*
X77550500Y-152506287D01*
X77550500Y-152293713D01*
X77517246Y-152083757D01*
X77451557Y-151881588D01*
X77355051Y-151692184D01*
X77355049Y-151692181D01*
X77355048Y-151692179D01*
X77230109Y-151520213D01*
X77116569Y-151406673D01*
X77083084Y-151345350D01*
X77088068Y-151275658D01*
X77129940Y-151219725D01*
X77160915Y-151202810D01*
X77292331Y-151153796D01*
X77407546Y-151067546D01*
X77493796Y-150952331D01*
X77544091Y-150817483D01*
X77550500Y-150757873D01*
X77550499Y-148962128D01*
X77544091Y-148902517D01*
X77493796Y-148767669D01*
X77493795Y-148767668D01*
X77493793Y-148767664D01*
X77407547Y-148652455D01*
X77407544Y-148652452D01*
X77292335Y-148566206D01*
X77292328Y-148566202D01*
X77157482Y-148515908D01*
X77157483Y-148515908D01*
X77097883Y-148509501D01*
X77097881Y-148509500D01*
X77097873Y-148509500D01*
X77097864Y-148509500D01*
X75302129Y-148509500D01*
X75302123Y-148509501D01*
X75242516Y-148515908D01*
X75107671Y-148566202D01*
X75107664Y-148566206D01*
X74992455Y-148652452D01*
X74992452Y-148652455D01*
X74906206Y-148767664D01*
X74906202Y-148767671D01*
X74855908Y-148902517D01*
X74849501Y-148962116D01*
X74849501Y-148962123D01*
X74849500Y-148962135D01*
X52150499Y-148962135D01*
X52150499Y-148962128D01*
X52144091Y-148902517D01*
X52093796Y-148767669D01*
X52093795Y-148767668D01*
X52093793Y-148767664D01*
X52007547Y-148652455D01*
X52007544Y-148652452D01*
X51892335Y-148566206D01*
X51892328Y-148566202D01*
X51757482Y-148515908D01*
X51757483Y-148515908D01*
X51697883Y-148509501D01*
X51697881Y-148509500D01*
X51697873Y-148509500D01*
X51697864Y-148509500D01*
X49902129Y-148509500D01*
X49902123Y-148509501D01*
X49842516Y-148515908D01*
X49707671Y-148566202D01*
X49707664Y-148566206D01*
X49592455Y-148652452D01*
X49592452Y-148652455D01*
X49506206Y-148767664D01*
X49506202Y-148767671D01*
X49455908Y-148902517D01*
X49449501Y-148962116D01*
X49449501Y-148962123D01*
X49449500Y-148962135D01*
X38600500Y-148962135D01*
X38600500Y-35560000D01*
X48260000Y-35560000D01*
X48260000Y-40640000D01*
X48639900Y-40640000D01*
X48639900Y-90000749D01*
X48639899Y-90000775D01*
X48639899Y-90005885D01*
X48639899Y-90164515D01*
X48639899Y-90164517D01*
X48639898Y-90164517D01*
X48670845Y-90320091D01*
X48670848Y-90320101D01*
X48731548Y-90466646D01*
X48731555Y-90466659D01*
X48819680Y-90598547D01*
X48819681Y-90598548D01*
X48819682Y-90598549D01*
X48931851Y-90710718D01*
X48931852Y-90710718D01*
X48938919Y-90717785D01*
X48938918Y-90717785D01*
X48938922Y-90717788D01*
X49413181Y-91192047D01*
X49446666Y-91253370D01*
X49449500Y-91279728D01*
X49449500Y-92337870D01*
X49449501Y-92337876D01*
X49455908Y-92397483D01*
X49506202Y-92532328D01*
X49506206Y-92532335D01*
X49592452Y-92647544D01*
X49592455Y-92647547D01*
X49707664Y-92733793D01*
X49707671Y-92733797D01*
X49752618Y-92750561D01*
X49842517Y-92784091D01*
X49902127Y-92790500D01*
X49912685Y-92790499D01*
X49979723Y-92810179D01*
X50000372Y-92826818D01*
X50670591Y-93497037D01*
X50607007Y-93514075D01*
X50492993Y-93579901D01*
X50399901Y-93672993D01*
X50334075Y-93787007D01*
X50317037Y-93850591D01*
X49684728Y-93218282D01*
X49684727Y-93218282D01*
X49645380Y-93272439D01*
X49548904Y-93461782D01*
X49483242Y-93663869D01*
X49483242Y-93663872D01*
X49450000Y-93873753D01*
X49450000Y-94086246D01*
X49483242Y-94296127D01*
X49483242Y-94296130D01*
X49548904Y-94498217D01*
X49645375Y-94687550D01*
X49684728Y-94741716D01*
X50317037Y-94109408D01*
X50334075Y-94172993D01*
X50399901Y-94287007D01*
X50492993Y-94380099D01*
X50607007Y-94445925D01*
X50670590Y-94462962D01*
X50038282Y-95095269D01*
X50038282Y-95095270D01*
X50092452Y-95134626D01*
X50092451Y-95134626D01*
X50101495Y-95139234D01*
X50152292Y-95187208D01*
X50169087Y-95255029D01*
X50146550Y-95321164D01*
X50101499Y-95360202D01*
X50092182Y-95364949D01*
X49920213Y-95489890D01*
X49769890Y-95640213D01*
X49644951Y-95812179D01*
X49548444Y-96001585D01*
X49482753Y-96203760D01*
X49449500Y-96413713D01*
X49449500Y-96626286D01*
X49482753Y-96836239D01*
X49548444Y-97038414D01*
X49644951Y-97227820D01*
X49769890Y-97399786D01*
X49920213Y-97550109D01*
X50092182Y-97675050D01*
X50100946Y-97679516D01*
X50151742Y-97727491D01*
X50168536Y-97795312D01*
X50145998Y-97861447D01*
X50100946Y-97900484D01*
X50092182Y-97904949D01*
X49920213Y-98029890D01*
X49769890Y-98180213D01*
X49644951Y-98352179D01*
X49548444Y-98541585D01*
X49482753Y-98743760D01*
X49449500Y-98953713D01*
X49449500Y-99166286D01*
X49482753Y-99376239D01*
X49548444Y-99578414D01*
X49644951Y-99767820D01*
X49769890Y-99939786D01*
X49920213Y-100090109D01*
X50092182Y-100215050D01*
X50100946Y-100219516D01*
X50151742Y-100267491D01*
X50168536Y-100335312D01*
X50145998Y-100401447D01*
X50100946Y-100440484D01*
X50092182Y-100444949D01*
X49920213Y-100569890D01*
X49769890Y-100720213D01*
X49644951Y-100892179D01*
X49548444Y-101081585D01*
X49482753Y-101283760D01*
X49449500Y-101493713D01*
X49449500Y-101706286D01*
X49482753Y-101916239D01*
X49548444Y-102118414D01*
X49644951Y-102307820D01*
X49769890Y-102479786D01*
X49920213Y-102630109D01*
X50092182Y-102755050D01*
X50100946Y-102759516D01*
X50151742Y-102807491D01*
X50168536Y-102875312D01*
X50145998Y-102941447D01*
X50100946Y-102980484D01*
X50092182Y-102984949D01*
X49920213Y-103109890D01*
X49769890Y-103260213D01*
X49644951Y-103432179D01*
X49548444Y-103621585D01*
X49482753Y-103823760D01*
X49449500Y-104033713D01*
X49449500Y-104246286D01*
X49482753Y-104456239D01*
X49548444Y-104658414D01*
X49644951Y-104847820D01*
X49769890Y-105019786D01*
X49920213Y-105170109D01*
X50092182Y-105295050D01*
X50100946Y-105299516D01*
X50151742Y-105347491D01*
X50168536Y-105415312D01*
X50145998Y-105481447D01*
X50100946Y-105520484D01*
X50092182Y-105524949D01*
X49920213Y-105649890D01*
X49769890Y-105800213D01*
X49644951Y-105972179D01*
X49548444Y-106161585D01*
X49482753Y-106363760D01*
X49449500Y-106573713D01*
X49449500Y-106786286D01*
X49482753Y-106996239D01*
X49548444Y-107198414D01*
X49644951Y-107387820D01*
X49769890Y-107559786D01*
X49920213Y-107710109D01*
X50092182Y-107835050D01*
X50100946Y-107839516D01*
X50151742Y-107887491D01*
X50168536Y-107955312D01*
X50145998Y-108021447D01*
X50100946Y-108060484D01*
X50092182Y-108064949D01*
X49920213Y-108189890D01*
X49769890Y-108340213D01*
X49644951Y-108512179D01*
X49548444Y-108701585D01*
X49482753Y-108903760D01*
X49449500Y-109113713D01*
X49449500Y-109326286D01*
X49482753Y-109536239D01*
X49548444Y-109738414D01*
X49644951Y-109927820D01*
X49769890Y-110099786D01*
X49920213Y-110250109D01*
X50092179Y-110375048D01*
X50092181Y-110375049D01*
X50092184Y-110375051D01*
X50281588Y-110471557D01*
X50483757Y-110537246D01*
X50693713Y-110570500D01*
X50693714Y-110570500D01*
X50906286Y-110570500D01*
X50906287Y-110570500D01*
X51116243Y-110537246D01*
X51318412Y-110471557D01*
X51507816Y-110375051D01*
X51529789Y-110359086D01*
X51679786Y-110250109D01*
X51679788Y-110250106D01*
X51679792Y-110250104D01*
X51830104Y-110099792D01*
X51830106Y-110099788D01*
X51830109Y-110099786D01*
X51955048Y-109927820D01*
X51955047Y-109927820D01*
X51955051Y-109927816D01*
X52051557Y-109738412D01*
X52117246Y-109536243D01*
X52150500Y-109326287D01*
X52150500Y-109113713D01*
X52117246Y-108903757D01*
X52051557Y-108701588D01*
X51955051Y-108512184D01*
X51955049Y-108512181D01*
X51955048Y-108512179D01*
X51830109Y-108340213D01*
X51679786Y-108189890D01*
X51507820Y-108064951D01*
X51507115Y-108064591D01*
X51499054Y-108060485D01*
X51448259Y-108012512D01*
X51431463Y-107944692D01*
X51453999Y-107878556D01*
X51499054Y-107839515D01*
X51507816Y-107835051D01*
X51529789Y-107819086D01*
X51679786Y-107710109D01*
X51679788Y-107710106D01*
X51679792Y-107710104D01*
X51830104Y-107559792D01*
X51830106Y-107559788D01*
X51830109Y-107559786D01*
X51955048Y-107387820D01*
X51955047Y-107387820D01*
X51955051Y-107387816D01*
X52051557Y-107198412D01*
X52117246Y-106996243D01*
X52150500Y-106786287D01*
X52150500Y-106573713D01*
X52117246Y-106363757D01*
X52051557Y-106161588D01*
X51955051Y-105972184D01*
X51955049Y-105972181D01*
X51955048Y-105972179D01*
X51830109Y-105800213D01*
X51679786Y-105649890D01*
X51507820Y-105524951D01*
X51507115Y-105524591D01*
X51499054Y-105520485D01*
X51448259Y-105472512D01*
X51431463Y-105404692D01*
X51453999Y-105338556D01*
X51499054Y-105299515D01*
X51507816Y-105295051D01*
X51529789Y-105279086D01*
X51679786Y-105170109D01*
X51679788Y-105170106D01*
X51679792Y-105170104D01*
X51830104Y-105019792D01*
X51830106Y-105019788D01*
X51830109Y-105019786D01*
X51955048Y-104847820D01*
X51955047Y-104847820D01*
X51955051Y-104847816D01*
X52051557Y-104658412D01*
X52117246Y-104456243D01*
X52150500Y-104246287D01*
X52150500Y-104033713D01*
X52117246Y-103823757D01*
X52051557Y-103621588D01*
X51955051Y-103432184D01*
X51955049Y-103432181D01*
X51955048Y-103432179D01*
X51830109Y-103260213D01*
X51679786Y-103109890D01*
X51507820Y-102984951D01*
X51507115Y-102984591D01*
X51499054Y-102980485D01*
X51448259Y-102932512D01*
X51431463Y-102864692D01*
X51453999Y-102798556D01*
X51499054Y-102759515D01*
X51507816Y-102755051D01*
X51529789Y-102739086D01*
X51679786Y-102630109D01*
X51679788Y-102630106D01*
X51679792Y-102630104D01*
X51830104Y-102479792D01*
X51830106Y-102479788D01*
X51830109Y-102479786D01*
X51955048Y-102307820D01*
X51955047Y-102307820D01*
X51955051Y-102307816D01*
X52051557Y-102118412D01*
X52117246Y-101916243D01*
X52150500Y-101706287D01*
X52150500Y-101493713D01*
X52117246Y-101283757D01*
X52051557Y-101081588D01*
X51955051Y-100892184D01*
X51955049Y-100892181D01*
X51955048Y-100892179D01*
X51830109Y-100720213D01*
X51679786Y-100569890D01*
X51507820Y-100444951D01*
X51507115Y-100444591D01*
X51499054Y-100440485D01*
X51448259Y-100392512D01*
X51431463Y-100324692D01*
X51453999Y-100258556D01*
X51499054Y-100219515D01*
X51507816Y-100215051D01*
X51529789Y-100199086D01*
X51679786Y-100090109D01*
X51679788Y-100090106D01*
X51679792Y-100090104D01*
X51830104Y-99939792D01*
X51830106Y-99939788D01*
X51830109Y-99939786D01*
X51955048Y-99767820D01*
X51955047Y-99767820D01*
X51955051Y-99767816D01*
X52051557Y-99578412D01*
X52117246Y-99376243D01*
X52150500Y-99166287D01*
X52150500Y-98953713D01*
X52117246Y-98743757D01*
X52051557Y-98541588D01*
X51955051Y-98352184D01*
X51955049Y-98352181D01*
X51955048Y-98352179D01*
X51830109Y-98180213D01*
X51679786Y-98029890D01*
X51507820Y-97904951D01*
X51507115Y-97904591D01*
X51499054Y-97900485D01*
X51448259Y-97852512D01*
X51431463Y-97784692D01*
X51453999Y-97718556D01*
X51499054Y-97679515D01*
X51507816Y-97675051D01*
X51529789Y-97659086D01*
X51679786Y-97550109D01*
X51679788Y-97550106D01*
X51679792Y-97550104D01*
X51830104Y-97399792D01*
X51830106Y-97399788D01*
X51830109Y-97399786D01*
X51955048Y-97227820D01*
X51955047Y-97227820D01*
X51955051Y-97227816D01*
X52051557Y-97038412D01*
X52117246Y-96836243D01*
X52150500Y-96626287D01*
X52150500Y-96413713D01*
X52117246Y-96203757D01*
X52051557Y-96001588D01*
X51955051Y-95812184D01*
X51955049Y-95812181D01*
X51955048Y-95812179D01*
X51830109Y-95640213D01*
X51679786Y-95489890D01*
X51507817Y-95364949D01*
X51498504Y-95360204D01*
X51447707Y-95312230D01*
X51430912Y-95244409D01*
X51453449Y-95178274D01*
X51498507Y-95139232D01*
X51507555Y-95134622D01*
X51561716Y-95095270D01*
X51561717Y-95095270D01*
X50929408Y-94462962D01*
X50992993Y-94445925D01*
X51107007Y-94380099D01*
X51200099Y-94287007D01*
X51265925Y-94172993D01*
X51282962Y-94109408D01*
X51915270Y-94741717D01*
X51915270Y-94741716D01*
X51954622Y-94687554D01*
X52051095Y-94498217D01*
X52116757Y-94296130D01*
X52116757Y-94296127D01*
X52150000Y-94086246D01*
X52150000Y-93873753D01*
X52116757Y-93663872D01*
X52116757Y-93663869D01*
X52051095Y-93461782D01*
X51954624Y-93272449D01*
X51915270Y-93218282D01*
X51915269Y-93218282D01*
X51282962Y-93850590D01*
X51265925Y-93787007D01*
X51200099Y-93672993D01*
X51107007Y-93579901D01*
X50992993Y-93514075D01*
X50929409Y-93497037D01*
X51599627Y-92826818D01*
X51660950Y-92793333D01*
X51687307Y-92790499D01*
X51697872Y-92790499D01*
X51757483Y-92784091D01*
X51892331Y-92733796D01*
X52007546Y-92647546D01*
X52093796Y-92532331D01*
X52144091Y-92397483D01*
X52150500Y-92337873D01*
X52150499Y-90542128D01*
X52144091Y-90482517D01*
X52138176Y-90466659D01*
X52093797Y-90347671D01*
X52093793Y-90347664D01*
X52007547Y-90232455D01*
X52007544Y-90232452D01*
X51892335Y-90146206D01*
X51892328Y-90146202D01*
X51757482Y-90095908D01*
X51757483Y-90095908D01*
X51697883Y-90089501D01*
X51697881Y-90089500D01*
X51697873Y-90089500D01*
X51697865Y-90089500D01*
X50639729Y-90089500D01*
X50572690Y-90069815D01*
X50552048Y-90053181D01*
X50286819Y-89787952D01*
X50253334Y-89726629D01*
X50250500Y-89700271D01*
X50250500Y-54752127D01*
X50270185Y-54685088D01*
X50322989Y-54639333D01*
X50392147Y-54629389D01*
X50412813Y-54634194D01*
X50483757Y-54657246D01*
X50693713Y-54690500D01*
X50693714Y-54690500D01*
X50906286Y-54690500D01*
X50906287Y-54690500D01*
X51116243Y-54657246D01*
X51129698Y-54652873D01*
X51199535Y-54650873D01*
X51255702Y-54683121D01*
X80454907Y-83882326D01*
X80488392Y-83943649D01*
X80488843Y-83945815D01*
X80510261Y-84053491D01*
X80510264Y-84053501D01*
X80570602Y-84199172D01*
X80570609Y-84199185D01*
X80658210Y-84330288D01*
X80658213Y-84330292D01*
X80769707Y-84441786D01*
X80769711Y-84441789D01*
X80900814Y-84529390D01*
X80900827Y-84529397D01*
X81046498Y-84589735D01*
X81046503Y-84589737D01*
X81201153Y-84620499D01*
X81201156Y-84620500D01*
X81201158Y-84620500D01*
X81358844Y-84620500D01*
X81358845Y-84620499D01*
X81513497Y-84589737D01*
X81659179Y-84529394D01*
X81790289Y-84441789D01*
X81901789Y-84330289D01*
X81989394Y-84199179D01*
X82049737Y-84053497D01*
X82080500Y-83898842D01*
X82080500Y-83741158D01*
X82080500Y-83741155D01*
X82080499Y-83741153D01*
X82049738Y-83586510D01*
X82049737Y-83586503D01*
X82049735Y-83586498D01*
X81989397Y-83440827D01*
X81989390Y-83440814D01*
X81901789Y-83309711D01*
X81901786Y-83309707D01*
X81790292Y-83198213D01*
X81790288Y-83198210D01*
X81659185Y-83110609D01*
X81659172Y-83110602D01*
X81513501Y-83050264D01*
X81513491Y-83050261D01*
X81405815Y-83028843D01*
X81343904Y-82996458D01*
X81342326Y-82994907D01*
X52143121Y-53795702D01*
X52109636Y-53734379D01*
X52112873Y-53669698D01*
X52117246Y-53656243D01*
X52150500Y-53446287D01*
X52150500Y-53233713D01*
X52117246Y-53023757D01*
X52051557Y-52821588D01*
X51955051Y-52632184D01*
X51955049Y-52632181D01*
X51955048Y-52632179D01*
X51830109Y-52460213D01*
X51679786Y-52309890D01*
X51507820Y-52184951D01*
X51507115Y-52184591D01*
X51499054Y-52180485D01*
X51448259Y-52132512D01*
X51431463Y-52064692D01*
X51453999Y-51998556D01*
X51499054Y-51959515D01*
X51507816Y-51955051D01*
X51622167Y-51871971D01*
X51679786Y-51830109D01*
X51679788Y-51830106D01*
X51679792Y-51830104D01*
X51830104Y-51679792D01*
X51830106Y-51679788D01*
X51830109Y-51679786D01*
X51955048Y-51507820D01*
X51955047Y-51507820D01*
X51955051Y-51507816D01*
X52051557Y-51318412D01*
X52117246Y-51116243D01*
X52150500Y-50906287D01*
X52150500Y-50693713D01*
X52117246Y-50483757D01*
X52051557Y-50281588D01*
X51955051Y-50092184D01*
X51955049Y-50092181D01*
X51955048Y-50092179D01*
X51830109Y-49920213D01*
X51679786Y-49769890D01*
X51507820Y-49644951D01*
X51507115Y-49644591D01*
X51499054Y-49640485D01*
X51448259Y-49592512D01*
X51431463Y-49524692D01*
X51453999Y-49458556D01*
X51499054Y-49419515D01*
X51507816Y-49415051D01*
X51529789Y-49399086D01*
X51679786Y-49290109D01*
X51679788Y-49290106D01*
X51679792Y-49290104D01*
X51830104Y-49139792D01*
X51830106Y-49139788D01*
X51830109Y-49139786D01*
X51955048Y-48967820D01*
X51955050Y-48967817D01*
X51955051Y-48967816D01*
X52051557Y-48778412D01*
X52117246Y-48576243D01*
X52150500Y-48366287D01*
X52150500Y-48153713D01*
X52117246Y-47943757D01*
X52051557Y-47741588D01*
X51955051Y-47552184D01*
X51955049Y-47552181D01*
X51955048Y-47552179D01*
X51830109Y-47380213D01*
X51679786Y-47229890D01*
X51507820Y-47104951D01*
X51507115Y-47104591D01*
X51499054Y-47100485D01*
X51448259Y-47052512D01*
X51431463Y-46984692D01*
X51453999Y-46918556D01*
X51499054Y-46879515D01*
X51507816Y-46875051D01*
X51567693Y-46831548D01*
X51679786Y-46750109D01*
X51679788Y-46750106D01*
X51679792Y-46750104D01*
X51830104Y-46599792D01*
X51830106Y-46599788D01*
X51830109Y-46599786D01*
X51955048Y-46427820D01*
X51955047Y-46427820D01*
X51955051Y-46427816D01*
X52051557Y-46238412D01*
X52117246Y-46036243D01*
X52150500Y-45826287D01*
X52150500Y-45613713D01*
X52117246Y-45403757D01*
X52051557Y-45201588D01*
X51955051Y-45012184D01*
X51955049Y-45012181D01*
X51955048Y-45012179D01*
X51830109Y-44840213D01*
X51679786Y-44689890D01*
X51507820Y-44564951D01*
X51507115Y-44564591D01*
X51499054Y-44560485D01*
X51448259Y-44512512D01*
X51431463Y-44444692D01*
X51453999Y-44378556D01*
X51499054Y-44339515D01*
X51507816Y-44335051D01*
X51529789Y-44319086D01*
X51679786Y-44210109D01*
X51679788Y-44210106D01*
X51679792Y-44210104D01*
X51830104Y-44059792D01*
X51830106Y-44059788D01*
X51830109Y-44059786D01*
X51955048Y-43887820D01*
X51955047Y-43887820D01*
X51955051Y-43887816D01*
X52051557Y-43698412D01*
X52117246Y-43496243D01*
X52150500Y-43286287D01*
X52150500Y-43073713D01*
X52117246Y-42863757D01*
X52051557Y-42661588D01*
X51955051Y-42472184D01*
X51955049Y-42472181D01*
X51955048Y-42472179D01*
X51830109Y-42300213D01*
X51679786Y-42149890D01*
X51507820Y-42024951D01*
X51507115Y-42024591D01*
X51499054Y-42020485D01*
X51448259Y-41972512D01*
X51431463Y-41904692D01*
X51453999Y-41838556D01*
X51499054Y-41799515D01*
X51507816Y-41795051D01*
X51529789Y-41779086D01*
X51679786Y-41670109D01*
X51679788Y-41670106D01*
X51679792Y-41670104D01*
X51830104Y-41519792D01*
X51830106Y-41519788D01*
X51830109Y-41519786D01*
X51953902Y-41349397D01*
X51955051Y-41347816D01*
X52051557Y-41158412D01*
X52117246Y-40956243D01*
X52150500Y-40746287D01*
X52150500Y-40640000D01*
X53340000Y-40640000D01*
X53340000Y-36466900D01*
X57389100Y-36466900D01*
X57456139Y-36486585D01*
X57501894Y-36539389D01*
X57513100Y-36590900D01*
X57513100Y-53250678D01*
X57513100Y-53429322D01*
X57513100Y-53429324D01*
X57513099Y-53429324D01*
X57547950Y-53604527D01*
X57547952Y-53604533D01*
X57616314Y-53769575D01*
X57616319Y-53769584D01*
X57715564Y-53918114D01*
X57715567Y-53918118D01*
X74165479Y-70368031D01*
X74165480Y-70368032D01*
X74165483Y-70368034D01*
X74165485Y-70368036D01*
X74314022Y-70467284D01*
X74479067Y-70535648D01*
X74479071Y-70535648D01*
X74479072Y-70535649D01*
X74654275Y-70570500D01*
X74654278Y-70570500D01*
X74654279Y-70570500D01*
X74832922Y-70570500D01*
X83872700Y-70570500D01*
X83939739Y-70590185D01*
X83985494Y-70642989D01*
X83996700Y-70694500D01*
X83996700Y-120374278D01*
X83996700Y-120552922D01*
X83996700Y-120552924D01*
X83996699Y-120552924D01*
X84031550Y-120728127D01*
X84031552Y-120728133D01*
X84099914Y-120893175D01*
X84099919Y-120893184D01*
X84199164Y-121041714D01*
X84199167Y-121041718D01*
X87513181Y-124355731D01*
X87527884Y-124382658D01*
X87544477Y-124408477D01*
X87545368Y-124414677D01*
X87546666Y-124417054D01*
X87549500Y-124443412D01*
X87549500Y-124476586D01*
X87529815Y-124543625D01*
X87513180Y-124564267D01*
X86865485Y-125211965D01*
X86802324Y-125275126D01*
X86739163Y-125338286D01*
X86639919Y-125486815D01*
X86639914Y-125486824D01*
X86571552Y-125651866D01*
X86571550Y-125651872D01*
X86536700Y-125827075D01*
X86536700Y-125827078D01*
X86536700Y-156307078D01*
X86536700Y-156485722D01*
X86536700Y-156485724D01*
X86536699Y-156485724D01*
X86571550Y-156660927D01*
X86571552Y-156660933D01*
X86639914Y-156825975D01*
X86639919Y-156825984D01*
X86739164Y-156974514D01*
X86739167Y-156974518D01*
X91431781Y-161667131D01*
X91465266Y-161728454D01*
X91468100Y-161754812D01*
X91468100Y-163575146D01*
X91448415Y-163642185D01*
X91395611Y-163687940D01*
X91326453Y-163697884D01*
X91271215Y-163675464D01*
X91113849Y-163561132D01*
X90889383Y-163446760D01*
X90649785Y-163368910D01*
X90400962Y-163329500D01*
X90149038Y-163329500D01*
X90024626Y-163349205D01*
X89900214Y-163368910D01*
X89660616Y-163446760D01*
X89436151Y-163561132D01*
X89232350Y-163709201D01*
X89232345Y-163709205D01*
X89054205Y-163887345D01*
X89054201Y-163887350D01*
X88906132Y-164091151D01*
X88791760Y-164315616D01*
X88713910Y-164555214D01*
X88713910Y-164555215D01*
X88674500Y-164804038D01*
X88674500Y-166355962D01*
X88687995Y-166441164D01*
X88713910Y-166604785D01*
X88791760Y-166844383D01*
X88838521Y-166936155D01*
X88888286Y-167033825D01*
X88906132Y-167068848D01*
X89054201Y-167272649D01*
X89054205Y-167272654D01*
X89232345Y-167450794D01*
X89232350Y-167450798D01*
X89346474Y-167533713D01*
X89436155Y-167598870D01*
X89579184Y-167671747D01*
X89660616Y-167713239D01*
X89660618Y-167713239D01*
X89660621Y-167713241D01*
X89900215Y-167791090D01*
X90149038Y-167830500D01*
X90149039Y-167830500D01*
X90400961Y-167830500D01*
X90400962Y-167830500D01*
X90649785Y-167791090D01*
X90889379Y-167713241D01*
X91113845Y-167598870D01*
X91317656Y-167450793D01*
X91409511Y-167358937D01*
X91470831Y-167325454D01*
X91510445Y-167323330D01*
X91517514Y-167324089D01*
X91517517Y-167324091D01*
X91577127Y-167330500D01*
X93172872Y-167330499D01*
X93232483Y-167324091D01*
X93367331Y-167273796D01*
X93482546Y-167187546D01*
X93511236Y-167149220D01*
X93567166Y-167107353D01*
X93636857Y-167102368D01*
X93683386Y-167123217D01*
X93719590Y-167149521D01*
X93719592Y-167149522D01*
X93719595Y-167149524D01*
X93789704Y-167185246D01*
X93894970Y-167238882D01*
X93894972Y-167238882D01*
X93894975Y-167238884D01*
X93995317Y-167271487D01*
X94082173Y-167299709D01*
X94276578Y-167330500D01*
X94276583Y-167330500D01*
X94473422Y-167330500D01*
X94667826Y-167299709D01*
X94747574Y-167273797D01*
X94855025Y-167238884D01*
X95030405Y-167149524D01*
X95189646Y-167033828D01*
X95287319Y-166936155D01*
X95348642Y-166902670D01*
X95418334Y-166907654D01*
X95462681Y-166936155D01*
X95560354Y-167033828D01*
X95719595Y-167149524D01*
X95789704Y-167185246D01*
X95894970Y-167238882D01*
X95894972Y-167238882D01*
X95894975Y-167238884D01*
X95995317Y-167271487D01*
X96082173Y-167299709D01*
X96276578Y-167330500D01*
X96276583Y-167330500D01*
X96473422Y-167330500D01*
X96667826Y-167299709D01*
X96747574Y-167273797D01*
X96855025Y-167238884D01*
X97030405Y-167149524D01*
X97030409Y-167149520D01*
X97034087Y-167147647D01*
X97102756Y-167134751D01*
X97167497Y-167161027D01*
X97190699Y-167185245D01*
X97254207Y-167272656D01*
X97254209Y-167272658D01*
X97432345Y-167450794D01*
X97432350Y-167450798D01*
X97546474Y-167533713D01*
X97636155Y-167598870D01*
X97779184Y-167671747D01*
X97860616Y-167713239D01*
X97860618Y-167713239D01*
X97860621Y-167713241D01*
X98100215Y-167791090D01*
X98349038Y-167830500D01*
X98349039Y-167830500D01*
X98600961Y-167830500D01*
X98600962Y-167830500D01*
X98849785Y-167791090D01*
X99089379Y-167713241D01*
X99313845Y-167598870D01*
X99517656Y-167450793D01*
X99695793Y-167272656D01*
X99843870Y-167068845D01*
X99958241Y-166844379D01*
X100036090Y-166604785D01*
X100075500Y-166355962D01*
X100075500Y-164804038D01*
X100036090Y-164555215D01*
X99958241Y-164315621D01*
X99958239Y-164315618D01*
X99958239Y-164315616D01*
X99909626Y-164220208D01*
X99843870Y-164091155D01*
X99821426Y-164060263D01*
X99695798Y-163887350D01*
X99695794Y-163887345D01*
X99517654Y-163709205D01*
X99517649Y-163709201D01*
X99313848Y-163561132D01*
X99313847Y-163561131D01*
X99313845Y-163561130D01*
X99243747Y-163525413D01*
X99089383Y-163446760D01*
X98849785Y-163368910D01*
X98600962Y-163329500D01*
X98349038Y-163329500D01*
X98224626Y-163349205D01*
X98100214Y-163368910D01*
X97860616Y-163446760D01*
X97636151Y-163561132D01*
X97432350Y-163709201D01*
X97432345Y-163709205D01*
X97254209Y-163887341D01*
X97254202Y-163887350D01*
X97190699Y-163974753D01*
X97135369Y-164017419D01*
X97065756Y-164023397D01*
X97034087Y-164012352D01*
X96855029Y-163921117D01*
X96667826Y-163860290D01*
X96473422Y-163829500D01*
X96473417Y-163829500D01*
X96276583Y-163829500D01*
X96276578Y-163829500D01*
X96082173Y-163860290D01*
X95894970Y-163921117D01*
X95719594Y-164010476D01*
X95651069Y-164060263D01*
X95560354Y-164126172D01*
X95560352Y-164126174D01*
X95560351Y-164126174D01*
X95462681Y-164223845D01*
X95401358Y-164257330D01*
X95331666Y-164252346D01*
X95287319Y-164223845D01*
X95189648Y-164126174D01*
X95189646Y-164126172D01*
X95030405Y-164010476D01*
X95030403Y-164010475D01*
X94855029Y-163921117D01*
X94667826Y-163860290D01*
X94473422Y-163829500D01*
X94473417Y-163829500D01*
X94276583Y-163829500D01*
X94276578Y-163829500D01*
X94082173Y-163860290D01*
X93894970Y-163921117D01*
X93719595Y-164010475D01*
X93683385Y-164036784D01*
X93617578Y-164060263D01*
X93549524Y-164044437D01*
X93511235Y-164010778D01*
X93482546Y-163972454D01*
X93482544Y-163972452D01*
X93482543Y-163972451D01*
X93367334Y-163886205D01*
X93362561Y-163884425D01*
X93306630Y-163842551D01*
X93282216Y-163777086D01*
X93281900Y-163768245D01*
X93281900Y-161238475D01*
X93247049Y-161063272D01*
X93247048Y-161063271D01*
X93247048Y-161063267D01*
X93178684Y-160898222D01*
X93111143Y-160797139D01*
X93079436Y-160749685D01*
X88386819Y-156057068D01*
X88353334Y-155995745D01*
X88350500Y-155969387D01*
X88350500Y-133491601D01*
X88370185Y-133424562D01*
X88422989Y-133378807D01*
X88492147Y-133368863D01*
X88512820Y-133373671D01*
X88583866Y-133396756D01*
X88583872Y-133396757D01*
X88793754Y-133430000D01*
X89006246Y-133430000D01*
X89216127Y-133396757D01*
X89216130Y-133396757D01*
X89418217Y-133331095D01*
X89607554Y-133234622D01*
X89661716Y-133195270D01*
X89661717Y-133195270D01*
X89029409Y-132562962D01*
X89092993Y-132545925D01*
X89207007Y-132480099D01*
X89300099Y-132387007D01*
X89365925Y-132272993D01*
X89382962Y-132209408D01*
X90015270Y-132841717D01*
X90015270Y-132841716D01*
X90054622Y-132787554D01*
X90151095Y-132598217D01*
X90216757Y-132396130D01*
X90216757Y-132396127D01*
X90250000Y-132186246D01*
X90250000Y-131973753D01*
X90216757Y-131763872D01*
X90216757Y-131763869D01*
X90151095Y-131561782D01*
X90054624Y-131372449D01*
X90015270Y-131318282D01*
X90015269Y-131318282D01*
X89382962Y-131950590D01*
X89365925Y-131887007D01*
X89300099Y-131772993D01*
X89207007Y-131679901D01*
X89092993Y-131614075D01*
X89029407Y-131597036D01*
X89661716Y-130964728D01*
X89607547Y-130925373D01*
X89607547Y-130925372D01*
X89598500Y-130920763D01*
X89547706Y-130872788D01*
X89530912Y-130804966D01*
X89553451Y-130738832D01*
X89598508Y-130699793D01*
X89607816Y-130695051D01*
X89687007Y-130637515D01*
X89779786Y-130570109D01*
X89779788Y-130570106D01*
X89779792Y-130570104D01*
X89930104Y-130419792D01*
X89930106Y-130419788D01*
X89930109Y-130419786D01*
X90055048Y-130247820D01*
X90055047Y-130247820D01*
X90055051Y-130247816D01*
X90151557Y-130058412D01*
X90217246Y-129856243D01*
X90250500Y-129646287D01*
X90250500Y-129433713D01*
X90217246Y-129223757D01*
X90151557Y-129021588D01*
X90055051Y-128832184D01*
X90055049Y-128832181D01*
X90055048Y-128832179D01*
X89930109Y-128660213D01*
X89779786Y-128509890D01*
X89607820Y-128384951D01*
X89607115Y-128384591D01*
X89599054Y-128380485D01*
X89548259Y-128332512D01*
X89531463Y-128264692D01*
X89553999Y-128198556D01*
X89599054Y-128159515D01*
X89607816Y-128155051D01*
X89629789Y-128139086D01*
X89779786Y-128030109D01*
X89779788Y-128030106D01*
X89779792Y-128030104D01*
X89930104Y-127879792D01*
X89930106Y-127879788D01*
X89930109Y-127879786D01*
X90055048Y-127707820D01*
X90055047Y-127707820D01*
X90055051Y-127707816D01*
X90151557Y-127518412D01*
X90217246Y-127316243D01*
X90250500Y-127106287D01*
X90250500Y-126893713D01*
X90217246Y-126683757D01*
X90151557Y-126481588D01*
X90055051Y-126292184D01*
X90055049Y-126292181D01*
X90055048Y-126292179D01*
X89930109Y-126120213D01*
X89816569Y-126006673D01*
X89783084Y-125945350D01*
X89788068Y-125875658D01*
X89829940Y-125819725D01*
X89860915Y-125802810D01*
X89992331Y-125753796D01*
X90107546Y-125667546D01*
X90193796Y-125552331D01*
X90244091Y-125417483D01*
X90250500Y-125357873D01*
X90250499Y-123562128D01*
X90244091Y-123502517D01*
X90193796Y-123367669D01*
X90193795Y-123367668D01*
X90193793Y-123367664D01*
X90107547Y-123252455D01*
X90107544Y-123252452D01*
X89992335Y-123166206D01*
X89992328Y-123166202D01*
X89857482Y-123115908D01*
X89857483Y-123115908D01*
X89797883Y-123109501D01*
X89797881Y-123109500D01*
X89797873Y-123109500D01*
X89797865Y-123109500D01*
X88883412Y-123109500D01*
X88816373Y-123089815D01*
X88795731Y-123073181D01*
X85846819Y-120124269D01*
X85813334Y-120062946D01*
X85810500Y-120036588D01*
X85810500Y-80152127D01*
X85830185Y-80085088D01*
X85882989Y-80039333D01*
X85952147Y-80029389D01*
X85972813Y-80034194D01*
X86043757Y-80057246D01*
X86253713Y-80090500D01*
X86253714Y-80090500D01*
X86466286Y-80090500D01*
X86466287Y-80090500D01*
X86676243Y-80057246D01*
X86878412Y-79991557D01*
X87067816Y-79895051D01*
X87089789Y-79879086D01*
X87239786Y-79770109D01*
X87239788Y-79770106D01*
X87239792Y-79770104D01*
X87390104Y-79619792D01*
X87390106Y-79619788D01*
X87390109Y-79619786D01*
X87515050Y-79447818D01*
X87521475Y-79435208D01*
X87569448Y-79384411D01*
X87631961Y-79367500D01*
X88360643Y-79367500D01*
X88427682Y-79387185D01*
X88429534Y-79388398D01*
X88520814Y-79449390D01*
X88520827Y-79449397D01*
X88666498Y-79509735D01*
X88666503Y-79509737D01*
X88821153Y-79540499D01*
X88821156Y-79540500D01*
X88821158Y-79540500D01*
X88978844Y-79540500D01*
X88978845Y-79540499D01*
X89133497Y-79509737D01*
X89279179Y-79449394D01*
X89410289Y-79361789D01*
X89521789Y-79250289D01*
X89609394Y-79119179D01*
X89669737Y-78973497D01*
X89700500Y-78818842D01*
X89700500Y-78661158D01*
X89700500Y-78661155D01*
X89700499Y-78661153D01*
X89669738Y-78506510D01*
X89669737Y-78506503D01*
X89669735Y-78506498D01*
X89609397Y-78360827D01*
X89609390Y-78360814D01*
X89521789Y-78229711D01*
X89521786Y-78229707D01*
X89410292Y-78118213D01*
X89410288Y-78118210D01*
X89279185Y-78030609D01*
X89279172Y-78030602D01*
X89133501Y-77970264D01*
X89133489Y-77970261D01*
X88978845Y-77939500D01*
X88978842Y-77939500D01*
X88821158Y-77939500D01*
X88821155Y-77939500D01*
X88666510Y-77970261D01*
X88666498Y-77970264D01*
X88520827Y-78030602D01*
X88520814Y-78030609D01*
X88429534Y-78091602D01*
X88362857Y-78112480D01*
X88360643Y-78112500D01*
X87631961Y-78112500D01*
X87564922Y-78092815D01*
X87521475Y-78044792D01*
X87515050Y-78032181D01*
X87390109Y-77860213D01*
X87239786Y-77709890D01*
X87067820Y-77584951D01*
X87067115Y-77584591D01*
X87059054Y-77580485D01*
X87008259Y-77532512D01*
X86991463Y-77464692D01*
X87013999Y-77398556D01*
X87059054Y-77359515D01*
X87067816Y-77355051D01*
X87089789Y-77339086D01*
X87239786Y-77230109D01*
X87239788Y-77230106D01*
X87239792Y-77230104D01*
X87390104Y-77079792D01*
X87390106Y-77079788D01*
X87390109Y-77079786D01*
X87515048Y-76907820D01*
X87515047Y-76907820D01*
X87515051Y-76907816D01*
X87611557Y-76718412D01*
X87677246Y-76516243D01*
X87710500Y-76306287D01*
X87710500Y-76093713D01*
X87677246Y-75883757D01*
X87611557Y-75681588D01*
X87515051Y-75492184D01*
X87515049Y-75492181D01*
X87515048Y-75492179D01*
X87390109Y-75320213D01*
X87239786Y-75169890D01*
X87067820Y-75044951D01*
X87067115Y-75044591D01*
X87059054Y-75040485D01*
X87008259Y-74992512D01*
X86991463Y-74924692D01*
X87013999Y-74858556D01*
X87059054Y-74819515D01*
X87067816Y-74815051D01*
X87089789Y-74799086D01*
X87239786Y-74690109D01*
X87239788Y-74690106D01*
X87239792Y-74690104D01*
X87390104Y-74539792D01*
X87390106Y-74539788D01*
X87390109Y-74539786D01*
X87515048Y-74367820D01*
X87515047Y-74367820D01*
X87515051Y-74367816D01*
X87611557Y-74178412D01*
X87677246Y-73976243D01*
X87710500Y-73766287D01*
X87710500Y-73657281D01*
X87730185Y-73590242D01*
X87782989Y-73544487D01*
X87852147Y-73534543D01*
X87915703Y-73563568D01*
X87922181Y-73569600D01*
X90776181Y-76423600D01*
X90809666Y-76484923D01*
X90812500Y-76511281D01*
X90812500Y-83280642D01*
X90792815Y-83347681D01*
X90791602Y-83349533D01*
X90730609Y-83440814D01*
X90730602Y-83440827D01*
X90670264Y-83586498D01*
X90670261Y-83586510D01*
X90639500Y-83741153D01*
X90639500Y-83898846D01*
X90670261Y-84053489D01*
X90670264Y-84053501D01*
X90730602Y-84199172D01*
X90730609Y-84199185D01*
X90818210Y-84330288D01*
X90818213Y-84330292D01*
X90929707Y-84441786D01*
X90929711Y-84441789D01*
X91060814Y-84529390D01*
X91060827Y-84529397D01*
X91206498Y-84589735D01*
X91206503Y-84589737D01*
X91361153Y-84620499D01*
X91361156Y-84620500D01*
X91361158Y-84620500D01*
X91518844Y-84620500D01*
X91518845Y-84620499D01*
X91673497Y-84589737D01*
X91819179Y-84529394D01*
X91950289Y-84441789D01*
X92061789Y-84330289D01*
X92149394Y-84199179D01*
X92209737Y-84053497D01*
X92240500Y-83898842D01*
X92240500Y-83741158D01*
X92240500Y-83741155D01*
X92240499Y-83741153D01*
X92209738Y-83586510D01*
X92209737Y-83586503D01*
X92209735Y-83586498D01*
X92149397Y-83440827D01*
X92149390Y-83440814D01*
X92088398Y-83349533D01*
X92067520Y-83282855D01*
X92067500Y-83280642D01*
X92067500Y-76138196D01*
X92067499Y-76138192D01*
X92043387Y-76016972D01*
X92043386Y-76016965D01*
X91998412Y-75908392D01*
X91996764Y-75903786D01*
X91927414Y-75799996D01*
X91927413Y-75799994D01*
X91927411Y-75799992D01*
X91840008Y-75712589D01*
X87703121Y-71575702D01*
X87669636Y-71514379D01*
X87672873Y-71449698D01*
X87677246Y-71436243D01*
X87710500Y-71226287D01*
X87710500Y-71013713D01*
X87677246Y-70803757D01*
X87611557Y-70601588D01*
X87515051Y-70412184D01*
X87515049Y-70412181D01*
X87515048Y-70412179D01*
X87390109Y-70240213D01*
X87239786Y-70089890D01*
X87067820Y-69964951D01*
X87067115Y-69964591D01*
X87059054Y-69960485D01*
X87008259Y-69912512D01*
X86991463Y-69844692D01*
X87013999Y-69778556D01*
X87059054Y-69739515D01*
X87067816Y-69735051D01*
X87089789Y-69719086D01*
X87239786Y-69610109D01*
X87239788Y-69610106D01*
X87239792Y-69610104D01*
X87390104Y-69459792D01*
X87390106Y-69459788D01*
X87390109Y-69459786D01*
X87515048Y-69287820D01*
X87515047Y-69287820D01*
X87515051Y-69287816D01*
X87611557Y-69098412D01*
X87677246Y-68896243D01*
X87710500Y-68686287D01*
X87710500Y-68473713D01*
X87705979Y-68445172D01*
X87714933Y-68375880D01*
X87740768Y-68338096D01*
X90768145Y-65310720D01*
X90768149Y-65310718D01*
X90880318Y-65198549D01*
X90880320Y-65198545D01*
X92972447Y-63106419D01*
X93033770Y-63072934D01*
X93060128Y-63070100D01*
X97439872Y-63070100D01*
X97506911Y-63089785D01*
X97527553Y-63106419D01*
X97723181Y-63302047D01*
X97756666Y-63363370D01*
X97759500Y-63389728D01*
X97759500Y-64100001D01*
X97759501Y-64100019D01*
X97770000Y-64202796D01*
X97770001Y-64202799D01*
X97825185Y-64369331D01*
X97825187Y-64369336D01*
X97917289Y-64518657D01*
X97986510Y-64587878D01*
X98019995Y-64649201D01*
X98015011Y-64718893D01*
X97999148Y-64748444D01*
X97948139Y-64818651D01*
X97855244Y-65000968D01*
X97792009Y-65195582D01*
X97760000Y-65397682D01*
X97760000Y-65602317D01*
X97792009Y-65804417D01*
X97855244Y-65999031D01*
X97948141Y-66181350D01*
X97948147Y-66181359D01*
X97980523Y-66225921D01*
X97980524Y-66225922D01*
X98660000Y-65546446D01*
X98660000Y-65552661D01*
X98687259Y-65654394D01*
X98739920Y-65745606D01*
X98814394Y-65820080D01*
X98905606Y-65872741D01*
X99007339Y-65900000D01*
X99013553Y-65900000D01*
X98334076Y-66579474D01*
X98378650Y-66611859D01*
X98560968Y-66704755D01*
X98755582Y-66767990D01*
X98957683Y-66800000D01*
X99162317Y-66800000D01*
X99364417Y-66767990D01*
X99559031Y-66704755D01*
X99741349Y-66611859D01*
X99785921Y-66579474D01*
X99106447Y-65900000D01*
X99112661Y-65900000D01*
X99214394Y-65872741D01*
X99305606Y-65820080D01*
X99380080Y-65745606D01*
X99432741Y-65654394D01*
X99460000Y-65552661D01*
X99460000Y-65546447D01*
X100139474Y-66225921D01*
X100171859Y-66181349D01*
X100264755Y-65999031D01*
X100327990Y-65804417D01*
X100360000Y-65602317D01*
X100360000Y-65397682D01*
X100327990Y-65195582D01*
X100264755Y-65000968D01*
X100171857Y-64818646D01*
X100120853Y-64748446D01*
X100097372Y-64682640D01*
X100113197Y-64614586D01*
X100133489Y-64587879D01*
X100133490Y-64587878D01*
X100202712Y-64518656D01*
X100294814Y-64369334D01*
X100349999Y-64202797D01*
X100360500Y-64100009D01*
X100360499Y-62899992D01*
X100349999Y-62797203D01*
X100294814Y-62630666D01*
X100202712Y-62481344D01*
X100078656Y-62357288D01*
X99929334Y-62265186D01*
X99762797Y-62210001D01*
X99762795Y-62210000D01*
X99660016Y-62199500D01*
X99660009Y-62199500D01*
X98949729Y-62199500D01*
X98882690Y-62179815D01*
X98862048Y-62163181D01*
X98457388Y-61758522D01*
X98450319Y-61751453D01*
X98450318Y-61751451D01*
X98338149Y-61639282D01*
X98338145Y-61639279D01*
X98268549Y-61569683D01*
X98268548Y-61569682D01*
X98268547Y-61569681D01*
X98136650Y-61481550D01*
X98136648Y-61481549D01*
X97990101Y-61420848D01*
X97990091Y-61420845D01*
X97834517Y-61389899D01*
X97834515Y-61389899D01*
X97675885Y-61389899D01*
X97675883Y-61389899D01*
X97520308Y-61420845D01*
X97520298Y-61420848D01*
X97449773Y-61450061D01*
X97402321Y-61459500D01*
X92595879Y-61459500D01*
X92440309Y-61490444D01*
X92440305Y-61490446D01*
X92440303Y-61490446D01*
X92440302Y-61490447D01*
X92397377Y-61508227D01*
X92397375Y-61508228D01*
X92293749Y-61551150D01*
X92293740Y-61551155D01*
X92161852Y-61639280D01*
X92105767Y-61695365D01*
X92049682Y-61751451D01*
X91271781Y-62529352D01*
X91210458Y-62562837D01*
X91140766Y-62557853D01*
X91084833Y-62515981D01*
X91060416Y-62450517D01*
X91060100Y-62441671D01*
X91060100Y-58464768D01*
X96590000Y-58464768D01*
X96590000Y-58669403D01*
X96622009Y-58871503D01*
X96685244Y-59066117D01*
X96778141Y-59248436D01*
X96778147Y-59248445D01*
X96810523Y-59293007D01*
X96810524Y-59293008D01*
X97490000Y-58613532D01*
X97490000Y-58619747D01*
X97517259Y-58721480D01*
X97569920Y-58812692D01*
X97644394Y-58887166D01*
X97735606Y-58939827D01*
X97837339Y-58967086D01*
X97843553Y-58967086D01*
X97164076Y-59646560D01*
X97208650Y-59678945D01*
X97390968Y-59771841D01*
X97585582Y-59835076D01*
X97787683Y-59867086D01*
X97992317Y-59867086D01*
X98194417Y-59835076D01*
X98389031Y-59771841D01*
X98571349Y-59678945D01*
X98615921Y-59646560D01*
X97936447Y-58967086D01*
X97942661Y-58967086D01*
X98044394Y-58939827D01*
X98135606Y-58887166D01*
X98210080Y-58812692D01*
X98262741Y-58721480D01*
X98290000Y-58619747D01*
X98290000Y-58613533D01*
X98969474Y-59293007D01*
X99001859Y-59248435D01*
X99094755Y-59066117D01*
X99157990Y-58871503D01*
X99190000Y-58669403D01*
X99190000Y-58464768D01*
X99157990Y-58262668D01*
X99094755Y-58068054D01*
X99001859Y-57885736D01*
X98969474Y-57841163D01*
X98969474Y-57841162D01*
X98290000Y-58520637D01*
X98290000Y-58514425D01*
X98262741Y-58412692D01*
X98210080Y-58321480D01*
X98135606Y-58247006D01*
X98044394Y-58194345D01*
X97942661Y-58167086D01*
X97936446Y-58167086D01*
X98615922Y-57487610D01*
X98615921Y-57487609D01*
X98571359Y-57455233D01*
X98571350Y-57455227D01*
X98389031Y-57362330D01*
X98194417Y-57299095D01*
X97992317Y-57267086D01*
X97787683Y-57267086D01*
X97585582Y-57299095D01*
X97390968Y-57362330D01*
X97208644Y-57455229D01*
X97164077Y-57487609D01*
X97164077Y-57487610D01*
X97843554Y-58167086D01*
X97837339Y-58167086D01*
X97735606Y-58194345D01*
X97644394Y-58247006D01*
X97569920Y-58321480D01*
X97517259Y-58412692D01*
X97490000Y-58514425D01*
X97490000Y-58520639D01*
X96810524Y-57841163D01*
X96810523Y-57841163D01*
X96778143Y-57885730D01*
X96685244Y-58068054D01*
X96622009Y-58262668D01*
X96590000Y-58464768D01*
X91060100Y-58464768D01*
X91060100Y-56225393D01*
X91079785Y-56158354D01*
X91096414Y-56137717D01*
X95121409Y-52112721D01*
X95129352Y-52108384D01*
X95134777Y-52101138D01*
X95159536Y-52091902D01*
X95182730Y-52079238D01*
X95191759Y-52079883D01*
X95200241Y-52076720D01*
X95226063Y-52082336D01*
X95252422Y-52084222D01*
X95261474Y-52090039D01*
X95268514Y-52091571D01*
X95296765Y-52112720D01*
X95296768Y-52112722D01*
X95325494Y-52141447D01*
X95394284Y-52210237D01*
X95394286Y-52210238D01*
X95398624Y-52214576D01*
X96553403Y-53369355D01*
X96586888Y-53430678D01*
X96588873Y-53459862D01*
X96589500Y-53459862D01*
X96589500Y-53669437D01*
X96621522Y-53871620D01*
X96684781Y-54066309D01*
X96777715Y-54248699D01*
X96898028Y-54414299D01*
X97042786Y-54559057D01*
X97197749Y-54671642D01*
X97208390Y-54679373D01*
X97324607Y-54738589D01*
X97390776Y-54772304D01*
X97390778Y-54772304D01*
X97390781Y-54772306D01*
X97477624Y-54800523D01*
X97585465Y-54835563D01*
X97686557Y-54851574D01*
X97787648Y-54867586D01*
X97787649Y-54867586D01*
X97992351Y-54867586D01*
X97992352Y-54867586D01*
X98194534Y-54835563D01*
X98389219Y-54772306D01*
X98571610Y-54679373D01*
X98664590Y-54611818D01*
X98737213Y-54559057D01*
X98737215Y-54559054D01*
X98737219Y-54559052D01*
X98881966Y-54414305D01*
X98881968Y-54414301D01*
X98881971Y-54414299D01*
X98934732Y-54341676D01*
X99002287Y-54248696D01*
X99095220Y-54066305D01*
X99158477Y-53871620D01*
X99190500Y-53669438D01*
X99190500Y-53464734D01*
X99158477Y-53262552D01*
X99095220Y-53067867D01*
X99095218Y-53067864D01*
X99095218Y-53067862D01*
X99042475Y-52964349D01*
X99002287Y-52885476D01*
X98955868Y-52821585D01*
X98881971Y-52719872D01*
X98737213Y-52575114D01*
X98571613Y-52454801D01*
X98571612Y-52454800D01*
X98571610Y-52454799D01*
X98514653Y-52425777D01*
X98389223Y-52361867D01*
X98194534Y-52298608D01*
X98019995Y-52270964D01*
X97992352Y-52266586D01*
X97787648Y-52266586D01*
X97782776Y-52266586D01*
X97782776Y-52264979D01*
X97721286Y-52252053D01*
X97692269Y-52230489D01*
X96749252Y-51287472D01*
X96715767Y-51226149D01*
X96712933Y-51199791D01*
X96712933Y-50572561D01*
X96732618Y-50505522D01*
X96749252Y-50484880D01*
X100481419Y-46752713D01*
X100542742Y-46719228D01*
X100612434Y-46724212D01*
X100668367Y-46766084D01*
X100692784Y-46831548D01*
X100693100Y-46840394D01*
X100693100Y-144352987D01*
X100673415Y-144420026D01*
X100656781Y-144440668D01*
X99164267Y-145933181D01*
X99102944Y-145966666D01*
X99076586Y-145969500D01*
X98162129Y-145969500D01*
X98162123Y-145969501D01*
X98102516Y-145975908D01*
X97967671Y-146026202D01*
X97967664Y-146026206D01*
X97852455Y-146112452D01*
X97852452Y-146112455D01*
X97766206Y-146227664D01*
X97766202Y-146227671D01*
X97715908Y-146362517D01*
X97709501Y-146422116D01*
X97709500Y-146422135D01*
X97709500Y-148217870D01*
X97709501Y-148217876D01*
X97715908Y-148277483D01*
X97766202Y-148412328D01*
X97766206Y-148412335D01*
X97852452Y-148527544D01*
X97852455Y-148527547D01*
X97967664Y-148613793D01*
X97967671Y-148613797D01*
X98102517Y-148664091D01*
X98102516Y-148664091D01*
X98109444Y-148664835D01*
X98162127Y-148670500D01*
X99957872Y-148670499D01*
X100017483Y-148664091D01*
X100152331Y-148613796D01*
X100267546Y-148527546D01*
X100353796Y-148412331D01*
X100404091Y-148277483D01*
X100410500Y-148217873D01*
X100410499Y-147303410D01*
X100430183Y-147236372D01*
X100446813Y-147215735D01*
X102304435Y-145358115D01*
X102403684Y-145209578D01*
X102472048Y-145044533D01*
X102506900Y-144869322D01*
X102506900Y-40020678D01*
X102506900Y-40020675D01*
X102472049Y-39845472D01*
X102472048Y-39845471D01*
X102472048Y-39845467D01*
X102403684Y-39680422D01*
X102403683Y-39680421D01*
X102403680Y-39680415D01*
X102304436Y-39531886D01*
X102252754Y-39480204D01*
X102178115Y-39405565D01*
X100396819Y-37624269D01*
X100363334Y-37562946D01*
X100360500Y-37536588D01*
X100360500Y-37467648D01*
X100328477Y-37265465D01*
X100265218Y-37070776D01*
X100216752Y-36975658D01*
X100172287Y-36888390D01*
X100147151Y-36853793D01*
X100051971Y-36722786D01*
X99907213Y-36578028D01*
X99741613Y-36457715D01*
X99741612Y-36457714D01*
X99741610Y-36457713D01*
X99684653Y-36428691D01*
X99559223Y-36364781D01*
X99364534Y-36301522D01*
X99189995Y-36273878D01*
X99162352Y-36269500D01*
X98957648Y-36269500D01*
X98933329Y-36273351D01*
X98755465Y-36301522D01*
X98560776Y-36364781D01*
X98378386Y-36457715D01*
X98212786Y-36578028D01*
X98068028Y-36722786D01*
X97947715Y-36888386D01*
X97854781Y-37070776D01*
X97791522Y-37265465D01*
X97759500Y-37467648D01*
X97759500Y-37672351D01*
X97791522Y-37874534D01*
X97854781Y-38069223D01*
X97947715Y-38251613D01*
X98068028Y-38417213D01*
X98212786Y-38561971D01*
X98367749Y-38674556D01*
X98378390Y-38682287D01*
X98494607Y-38741503D01*
X98560776Y-38775218D01*
X98560778Y-38775218D01*
X98560781Y-38775220D01*
X98665137Y-38809127D01*
X98755465Y-38838477D01*
X98845991Y-38852815D01*
X98957648Y-38870500D01*
X99026588Y-38870500D01*
X99093627Y-38890185D01*
X99114269Y-38906819D01*
X100656781Y-40449331D01*
X100690266Y-40510654D01*
X100693100Y-40537012D01*
X100693100Y-43539606D01*
X100673415Y-43606645D01*
X100620611Y-43652400D01*
X100551453Y-43662344D01*
X100487897Y-43633319D01*
X100481419Y-43627287D01*
X90550324Y-33696192D01*
X90550304Y-33696170D01*
X90433818Y-33579684D01*
X90433814Y-33579681D01*
X90301925Y-33491555D01*
X90301912Y-33491548D01*
X90155367Y-33430848D01*
X90155357Y-33430845D01*
X89999783Y-33399899D01*
X89999781Y-33399899D01*
X89841151Y-33399899D01*
X89835037Y-33399899D01*
X89835017Y-33399900D01*
X49365880Y-33399900D01*
X49210310Y-33430844D01*
X49210301Y-33430847D01*
X49063753Y-33491548D01*
X49063740Y-33491555D01*
X48931851Y-33579681D01*
X48931847Y-33579684D01*
X48819684Y-33691847D01*
X48819681Y-33691851D01*
X48731555Y-33823740D01*
X48731548Y-33823753D01*
X48670847Y-33970301D01*
X48670844Y-33970310D01*
X48639900Y-34125880D01*
X48639900Y-35560000D01*
X48260000Y-35560000D01*
X38600500Y-35560000D01*
X38600500Y-27777106D01*
X42819500Y-27777106D01*
X42819500Y-28102893D01*
X42855974Y-28426604D01*
X42855976Y-28426620D01*
X42928467Y-28744226D01*
X42928471Y-28744238D01*
X43036066Y-29051725D01*
X43177413Y-29345234D01*
X43177415Y-29345237D01*
X43350739Y-29621081D01*
X43553857Y-29875783D01*
X43784217Y-30106143D01*
X44038919Y-30309261D01*
X44314763Y-30482585D01*
X44608278Y-30623935D01*
X44839217Y-30704744D01*
X44915761Y-30731528D01*
X44915773Y-30731532D01*
X45233383Y-30804024D01*
X45557106Y-30840499D01*
X45557107Y-30840500D01*
X45557111Y-30840500D01*
X45882893Y-30840500D01*
X45882893Y-30840499D01*
X46206617Y-30804024D01*
X46524227Y-30731532D01*
X46831722Y-30623935D01*
X47125237Y-30482585D01*
X47401081Y-30309261D01*
X47655783Y-30106143D01*
X47886143Y-29875783D01*
X48089261Y-29621081D01*
X48262585Y-29345237D01*
X48403935Y-29051722D01*
X48511532Y-28744227D01*
X48584024Y-28426617D01*
X48620500Y-28102889D01*
X48620500Y-27777111D01*
X48620499Y-27777106D01*
X98699500Y-27777106D01*
X98699500Y-28102893D01*
X98735974Y-28426604D01*
X98735976Y-28426620D01*
X98808467Y-28744226D01*
X98808471Y-28744238D01*
X98916066Y-29051725D01*
X99057413Y-29345234D01*
X99057415Y-29345237D01*
X99230739Y-29621081D01*
X99433857Y-29875783D01*
X99664217Y-30106143D01*
X99918919Y-30309261D01*
X100194763Y-30482585D01*
X100488278Y-30623935D01*
X100719217Y-30704744D01*
X100795761Y-30731528D01*
X100795773Y-30731532D01*
X101113383Y-30804024D01*
X101437106Y-30840499D01*
X101437107Y-30840500D01*
X101437111Y-30840500D01*
X101762893Y-30840500D01*
X101762893Y-30840499D01*
X102086617Y-30804024D01*
X102404227Y-30731532D01*
X102711722Y-30623935D01*
X103005237Y-30482585D01*
X103281081Y-30309261D01*
X103535783Y-30106143D01*
X103766143Y-29875783D01*
X103969261Y-29621081D01*
X104142585Y-29345237D01*
X104283935Y-29051722D01*
X104391532Y-28744227D01*
X104464024Y-28426617D01*
X104500500Y-28102889D01*
X104500500Y-27777111D01*
X104464024Y-27453383D01*
X104391532Y-27135773D01*
X104283935Y-26828278D01*
X104142585Y-26534763D01*
X103969261Y-26258919D01*
X103766143Y-26004217D01*
X103535783Y-25773857D01*
X103281081Y-25570739D01*
X103005237Y-25397415D01*
X103005234Y-25397413D01*
X102711725Y-25256066D01*
X102404238Y-25148471D01*
X102404226Y-25148467D01*
X102086620Y-25075976D01*
X102086604Y-25075974D01*
X101762893Y-25039500D01*
X101762889Y-25039500D01*
X101437111Y-25039500D01*
X101437107Y-25039500D01*
X101113395Y-25075974D01*
X101113379Y-25075976D01*
X100795773Y-25148467D01*
X100795761Y-25148471D01*
X100488274Y-25256066D01*
X100194765Y-25397413D01*
X99918920Y-25570738D01*
X99664217Y-25773856D01*
X99433856Y-26004217D01*
X99230738Y-26258920D01*
X99057413Y-26534765D01*
X98916066Y-26828274D01*
X98808471Y-27135761D01*
X98808467Y-27135773D01*
X98735976Y-27453379D01*
X98735974Y-27453395D01*
X98699500Y-27777106D01*
X48620499Y-27777106D01*
X48584024Y-27453383D01*
X48511532Y-27135773D01*
X48403935Y-26828278D01*
X48262585Y-26534763D01*
X48089261Y-26258919D01*
X47886143Y-26004217D01*
X47655783Y-25773857D01*
X47401081Y-25570739D01*
X47125237Y-25397415D01*
X47125234Y-25397413D01*
X46831725Y-25256066D01*
X46524238Y-25148471D01*
X46524226Y-25148467D01*
X46206620Y-25075976D01*
X46206604Y-25075974D01*
X45882893Y-25039500D01*
X45882889Y-25039500D01*
X45557111Y-25039500D01*
X45557107Y-25039500D01*
X45233395Y-25075974D01*
X45233379Y-25075976D01*
X44915773Y-25148467D01*
X44915761Y-25148471D01*
X44608274Y-25256066D01*
X44314765Y-25397413D01*
X44038920Y-25570738D01*
X43784217Y-25773856D01*
X43553856Y-26004217D01*
X43350738Y-26258920D01*
X43177413Y-26534765D01*
X43036066Y-26828274D01*
X42928471Y-27135761D01*
X42928467Y-27135773D01*
X42855976Y-27453379D01*
X42855974Y-27453395D01*
X42819500Y-27777106D01*
X38600500Y-27777106D01*
X38600500Y-20555031D01*
X38620185Y-20487992D01*
X38672989Y-20442237D01*
X38724500Y-20431031D01*
X110221903Y-20431031D01*
X110288942Y-20450716D01*
G37*
%TD.AperFunction*%
%TD*%
%TA.AperFunction,Conductor*%
%TO.N,GND*%
G36*
X48639900Y-39205879D02*
G01*
X48639899Y-39205885D01*
X48639899Y-39364515D01*
X48639900Y-39364520D01*
X48639900Y-40640000D01*
X48260000Y-40640000D01*
X48260000Y-35560000D01*
X48639900Y-35560000D01*
X48639900Y-39205879D01*
G37*
%TD.AperFunction*%
%TA.AperFunction,Conductor*%
G36*
X53340000Y-40640000D02*
G01*
X52150500Y-40640000D01*
X52150500Y-40533713D01*
X52117246Y-40323760D01*
X52117246Y-40323757D01*
X52051557Y-40121588D01*
X51955051Y-39932184D01*
X51955049Y-39932181D01*
X51955048Y-39932179D01*
X51830109Y-39760213D01*
X51679786Y-39609890D01*
X51507817Y-39484949D01*
X51498504Y-39480204D01*
X51447707Y-39432230D01*
X51430912Y-39364409D01*
X51453449Y-39298274D01*
X51498507Y-39259232D01*
X51507555Y-39254622D01*
X51561716Y-39215270D01*
X51561717Y-39215270D01*
X50929409Y-38582962D01*
X50992993Y-38565925D01*
X51107007Y-38500099D01*
X51200099Y-38407007D01*
X51265925Y-38292993D01*
X51282962Y-38229408D01*
X51915270Y-38861717D01*
X51915270Y-38861716D01*
X51954622Y-38807554D01*
X52051095Y-38618217D01*
X52116757Y-38416130D01*
X52116757Y-38416127D01*
X52150000Y-38206246D01*
X52150000Y-37993753D01*
X52116757Y-37783872D01*
X52116757Y-37783869D01*
X52051095Y-37581782D01*
X51954624Y-37392449D01*
X51915270Y-37338282D01*
X51915269Y-37338282D01*
X51282962Y-37970590D01*
X51265925Y-37907007D01*
X51200099Y-37792993D01*
X51107007Y-37699901D01*
X50992993Y-37634075D01*
X50929407Y-37617036D01*
X51599627Y-36946818D01*
X51660950Y-36913333D01*
X51687308Y-36910499D01*
X51697871Y-36910499D01*
X51697872Y-36910499D01*
X51757483Y-36904091D01*
X51892331Y-36853796D01*
X52007546Y-36767546D01*
X52093796Y-36652331D01*
X52100306Y-36634874D01*
X52132871Y-36547567D01*
X52174742Y-36491633D01*
X52240207Y-36467216D01*
X52249053Y-36466900D01*
X53340000Y-36466900D01*
X53340000Y-40640000D01*
G37*
%TD.AperFunction*%
%TD*%
M02*
