%TF.GenerationSoftware,KiCad,Pcbnew,10.0.6*%
%TF.CreationDate,2026-09-17T13:40:12+02:00*%
%TF.ProjectId,bikesensor_pcb,62696b65-7365-46e7-936f-725f7063622e,rev?*%
%TF.SameCoordinates,Original*%
%TF.FileFunction,Soldermask,Top*%
%TF.FilePolarity,Negative*%
%FSLAX46Y46*%
G04 Gerber Fmt 4.6, Leading zero omitted, Abs format (unit mm)*
G04 Created by KiCad (PCBNEW 10.0.6) date 2026-09-17 13:40:12*
%MOMM*%
%LPD*%
G01*
G04 APERTURE LIST*
G04 Aperture macros list*
%AMRoundRect*
0 Rectangle with rounded corners*
0 $1 Rounding radius*
0 $2 $3 $4 $5 $6 $7 $8 $9 X,Y pos of 4 corners*
0 Add a 4 corners polygon primitive as box body*
4,1,4,$2,$3,$4,$5,$6,$7,$8,$9,$2,$3,0*
0 Add four circle primitives for the rounded corners*
1,1,$1+$1,$2,$3*
1,1,$1+$1,$4,$5*
1,1,$1+$1,$6,$7*
1,1,$1+$1,$8,$9*
0 Add four rect primitives between the rounded corners*
20,1,$1+$1,$2,$3,$4,$5,0*
20,1,$1+$1,$4,$5,$6,$7,0*
20,1,$1+$1,$6,$7,$8,$9,0*
20,1,$1+$1,$8,$9,$2,$3,0*%
G04 Aperture macros list end*
%ADD10R,1.700000X1.700000*%
%ADD11C,1.700000*%
%ADD12O,3.500000X2.200000*%
%ADD13R,2.500000X1.500000*%
%ADD14O,2.500000X1.500000*%
%ADD15C,1.600000*%
%ADD16RoundRect,0.250000X-0.550000X0.550000X-0.550000X-0.550000X0.550000X-0.550000X0.550000X0.550000X0*%
G04 APERTURE END LIST*
D10*
%TO.C,J5*%
X84000000Y-105000000D03*
D11*
X84000000Y-107540000D03*
X84000000Y-110080000D03*
X84000000Y-112620000D03*
%TD*%
D12*
%TO.C,SW1*%
X79000000Y-144100000D03*
X79000000Y-135900000D03*
D13*
X79000000Y-142000000D03*
D14*
X79000000Y-140000000D03*
X79000000Y-138000000D03*
%TD*%
D10*
%TO.C,J7*%
X74000000Y-126300000D03*
D11*
X74000000Y-128840000D03*
X74000000Y-131380000D03*
X74000000Y-133920000D03*
X74000000Y-136460000D03*
X74000000Y-139000000D03*
X74000000Y-141540000D03*
X74000000Y-144080000D03*
%TD*%
D10*
%TO.C,J8*%
X79000000Y-131000000D03*
%TD*%
%TO.C,J6*%
X51140000Y-126300000D03*
D11*
X51140000Y-128840000D03*
X51140000Y-131380000D03*
X51140000Y-133920000D03*
X51140000Y-136460000D03*
X51140000Y-139000000D03*
X51140000Y-141540000D03*
X51140000Y-144080000D03*
%TD*%
D15*
%TO.C,R1*%
X78000000Y-35190000D03*
X78000000Y-42810000D03*
%TD*%
D16*
%TO.C,C1*%
X73000000Y-54000000D03*
D15*
X73000000Y-56000000D03*
%TD*%
%TO.C,C2*%
X78000000Y-46500000D03*
X78000000Y-51500000D03*
%TD*%
%TO.C,R2*%
X72000000Y-35190000D03*
X72000000Y-42810000D03*
%TD*%
D10*
%TO.C,J1*%
X50800000Y-35560000D03*
D11*
X50800000Y-38100000D03*
X50800000Y-40640000D03*
X50800000Y-43180000D03*
X50800000Y-45720000D03*
X50800000Y-48260000D03*
X50800000Y-50800000D03*
X50800000Y-53340000D03*
%TD*%
D15*
%TO.C,C3*%
X72000000Y-46000000D03*
X72000000Y-51000000D03*
%TD*%
D10*
%TO.C,J3*%
X73000000Y-77000000D03*
D11*
X70460000Y-77000000D03*
X67920000Y-77000000D03*
X65380000Y-77000000D03*
X62840000Y-77000000D03*
X60300000Y-77000000D03*
X57760000Y-77000000D03*
X55220000Y-77000000D03*
%TD*%
D10*
%TO.C,J4*%
X79000000Y-59920000D03*
D11*
X79000000Y-62460000D03*
X79000000Y-65000000D03*
X79000000Y-67540000D03*
X79000000Y-70080000D03*
X79000000Y-72620000D03*
%TD*%
D10*
%TO.C,J2*%
X66040000Y-35560000D03*
D11*
X66040000Y-38100000D03*
X66040000Y-40640000D03*
X66040000Y-43180000D03*
X66040000Y-45720000D03*
X66040000Y-48260000D03*
X66040000Y-50800000D03*
X66040000Y-53340000D03*
%TD*%
D15*
%TO.C,R3*%
X82525000Y-68925000D03*
X82525000Y-61305000D03*
%TD*%
M02*
