%TF.GenerationSoftware,KiCad,Pcbnew,10.0.6*%
%TF.CreationDate,2026-09-17T13:40:12+02:00*%
%TF.ProjectId,bikesensor_pcb,62696b65-7365-46e7-936f-725f7063622e,rev?*%
%TF.SameCoordinates,Original*%
%TF.FileFunction,Copper,L1,Top*%
%TF.FilePolarity,Positive*%
%FSLAX46Y46*%
G04 Gerber Fmt 4.6, Leading zero omitted, Abs format (unit mm)*
G04 Created by KiCad (PCBNEW 10.0.6) date 2026-09-17 13:40:12*
%MOMM*%
%LPD*%
G01*
G04 APERTURE LIST*
G04 Aperture macros list*
%AMRoundRect*
0 Rectangle with rounded corners*
0 $1 Rounding radius*
0 $2 $3 $4 $5 $6 $7 $8 $9 X,Y pos of 4 corners*
0 Add a 4 corners polygon primitive as box body*
4,1,4,$2,$3,$4,$5,$6,$7,$8,$9,$2,$3,0*
0 Add four circle primitives for the rounded corners*
1,1,$1+$1,$2,$3*
1,1,$1+$1,$4,$5*
1,1,$1+$1,$6,$7*
1,1,$1+$1,$8,$9*
0 Add four rect primitives between the rounded corners*
20,1,$1+$1,$2,$3,$4,$5,0*
20,1,$1+$1,$4,$5,$6,$7,0*
20,1,$1+$1,$6,$7,$8,$9,0*
20,1,$1+$1,$8,$9,$2,$3,0*%
G04 Aperture macros list end*
%TA.AperFunction,ComponentPad*%
%ADD10R,1.700000X1.700000*%
%TD*%
%TA.AperFunction,ComponentPad*%
%ADD11C,1.700000*%
%TD*%
%TA.AperFunction,ComponentPad*%
%ADD12O,3.500000X2.200000*%
%TD*%
%TA.AperFunction,ComponentPad*%
%ADD13R,2.500000X1.500000*%
%TD*%
%TA.AperFunction,ComponentPad*%
%ADD14O,2.500000X1.500000*%
%TD*%
%TA.AperFunction,ComponentPad*%
%ADD15C,1.600000*%
%TD*%
%TA.AperFunction,ComponentPad*%
%ADD16RoundRect,0.250000X-0.550000X0.550000X-0.550000X-0.550000X0.550000X-0.550000X0.550000X0.550000X0*%
%TD*%
%TA.AperFunction,ViaPad*%
%ADD17C,0.600000*%
%TD*%
%TA.AperFunction,Conductor*%
%ADD18C,0.812800*%
%TD*%
%TA.AperFunction,Conductor*%
%ADD19C,0.254000*%
%TD*%
%TA.AperFunction,Conductor*%
%ADD20C,0.609600*%
%TD*%
%TA.AperFunction,Conductor*%
%ADD21C,0.200000*%
%TD*%
G04 APERTURE END LIST*
D10*
%TO.P,J5,1,Pin_1_1*%
%TO.N,+5V*%
X84000000Y-105000000D03*
D11*
%TO.P,J5,2,Pin_2_2*%
%TO.N,/GPS_TX*%
X84000000Y-107540000D03*
%TO.P,J5,3,Pin_3_3*%
%TO.N,/GPS_RX*%
X84000000Y-110080000D03*
%TO.P,J5,4,Pin_4_4*%
%TO.N,GND*%
X84000000Y-112620000D03*
%TD*%
D12*
%TO.P,SW1,*%
%TO.N,*%
X79000000Y-144100000D03*
X79000000Y-135900000D03*
D13*
%TO.P,SW1,1,A_1*%
%TO.N,+5V*%
X79000000Y-142000000D03*
D14*
%TO.P,SW1,2,B_2*%
%TO.N,Net-(J7-Pin_8)*%
X79000000Y-140000000D03*
%TO.P,SW1,3,C_3*%
%TO.N,unconnected-(SW1-C-Pad3)*%
X79000000Y-138000000D03*
%TD*%
D10*
%TO.P,J7,1,Pin_1_1*%
%TO.N,unconnected-(J7-Pin_1-Pad1)*%
X74000000Y-126300000D03*
D11*
%TO.P,J7,2,Pin_2_2*%
%TO.N,unconnected-(J7-Pin_2-Pad2)*%
X74000000Y-128840000D03*
%TO.P,J7,3,Pin_3_3*%
%TO.N,unconnected-(J7-Pin_3-Pad3)*%
X74000000Y-131380000D03*
%TO.P,J7,4,Pin_4_4*%
%TO.N,unconnected-(J7-Pin_4-Pad4)*%
X74000000Y-133920000D03*
%TO.P,J7,5,Pin_5_5*%
%TO.N,unconnected-(J7-Pin_5-Pad5)*%
X74000000Y-136460000D03*
%TO.P,J7,6,Pin_6_6*%
%TO.N,unconnected-(J7-Pin_6-Pad6)*%
X74000000Y-139000000D03*
%TO.P,J7,7,Pin_7_7*%
%TO.N,GND*%
X74000000Y-141540000D03*
%TO.P,J7,8,Pin_8_8*%
%TO.N,Net-(J7-Pin_8)*%
X74000000Y-144080000D03*
%TD*%
D10*
%TO.P,J8,1,Pin_1_1*%
%TO.N,/VBAT*%
X79000000Y-131000000D03*
%TD*%
%TO.P,J6,1,Pin_1_1*%
%TO.N,unconnected-(J6-Pin_1-Pad1)*%
X51140000Y-126300000D03*
D11*
%TO.P,J6,2,Pin_2_2*%
%TO.N,unconnected-(J6-Pin_2-Pad2)*%
X51140000Y-128840000D03*
%TO.P,J6,3,Pin_3_3*%
%TO.N,unconnected-(J6-Pin_3-Pad3)*%
X51140000Y-131380000D03*
%TO.P,J6,4,Pin_4_4*%
%TO.N,unconnected-(J6-Pin_4-Pad4)*%
X51140000Y-133920000D03*
%TO.P,J6,5,Pin_5_5*%
%TO.N,unconnected-(J6-Pin_5-Pad5)*%
X51140000Y-136460000D03*
%TO.P,J6,6,Pin_6_6*%
%TO.N,unconnected-(J6-Pin_6-Pad6)*%
X51140000Y-139000000D03*
%TO.P,J6,7,Pin_7_7*%
%TO.N,unconnected-(J6-Pin_7-Pad7)*%
X51140000Y-141540000D03*
%TO.P,J6,8,Pin_8_8*%
%TO.N,unconnected-(J6-Pin_8-Pad8)*%
X51140000Y-144080000D03*
%TD*%
D15*
%TO.P,R1,1*%
%TO.N,/VBAT*%
X78000000Y-35190000D03*
%TO.P,R1,2*%
%TO.N,/BATTERY_ADC*%
X78000000Y-42810000D03*
%TD*%
D16*
%TO.P,C1,1*%
%TO.N,+3V3*%
X73000000Y-54000000D03*
D15*
%TO.P,C1,2*%
%TO.N,GND*%
X73000000Y-56000000D03*
%TD*%
%TO.P,C2,1*%
%TO.N,+3V3*%
X78000000Y-46500000D03*
%TO.P,C2,2*%
%TO.N,GND*%
X78000000Y-51500000D03*
%TD*%
%TO.P,R2,1*%
%TO.N,/BATTERY_ADC*%
X72000000Y-35190000D03*
%TO.P,R2,2*%
%TO.N,GND*%
X72000000Y-42810000D03*
%TD*%
D10*
%TO.P,J1,1,Pin_1_1*%
%TO.N,+5V*%
X50800000Y-35560000D03*
D11*
%TO.P,J1,2,Pin_2_2*%
%TO.N,GND*%
X50800000Y-38100000D03*
%TO.P,J1,3,Pin_3_3*%
%TO.N,+3V3*%
X50800000Y-40640000D03*
%TO.P,J1,4,Pin_4_4*%
%TO.N,/GPIO_9*%
X50800000Y-43180000D03*
%TO.P,J1,5,Pin_5_5*%
%TO.N,/GPIO_8*%
X50800000Y-45720000D03*
%TO.P,J1,6,Pin_6_6*%
%TO.N,/I2C_SCL*%
X50800000Y-48260000D03*
%TO.P,J1,7,Pin_7_7*%
%TO.N,/I2C_SDA*%
X50800000Y-50800000D03*
%TO.P,J1,8,Pin_8_8*%
%TO.N,/SPI_MISO*%
X50800000Y-53340000D03*
%TD*%
D15*
%TO.P,C3,1*%
%TO.N,/BATTERY_ADC*%
X72000000Y-46000000D03*
%TO.P,C3,2*%
%TO.N,GND*%
X72000000Y-51000000D03*
%TD*%
D10*
%TO.P,J3,1,Pin_1_1*%
%TO.N,+3V3*%
X73000000Y-77000000D03*
D11*
%TO.P,J3,2,Pin_2_2*%
%TO.N,GND*%
X70460000Y-77000000D03*
%TO.P,J3,3,Pin_3_3*%
%TO.N,/I2C_SCL*%
X67920000Y-77000000D03*
%TO.P,J3,4,Pin_4_4*%
%TO.N,/I2C_SDA*%
X65380000Y-77000000D03*
%TO.P,J3,5,Pin_5_5*%
%TO.N,/XDA*%
X62840000Y-77000000D03*
%TO.P,J3,6,Pin_6_6*%
%TO.N,/XCL*%
X60300000Y-77000000D03*
%TO.P,J3,7,Pin_7_7*%
%TO.N,/AD0*%
X57760000Y-77000000D03*
%TO.P,J3,8,Pin_8_8*%
%TO.N,/INT*%
X55220000Y-77000000D03*
%TD*%
D10*
%TO.P,J4,1,Pin_1_1*%
%TO.N,GND*%
X79000000Y-59920000D03*
D11*
%TO.P,J4,2,Pin_2_2*%
%TO.N,+3V3*%
X79000000Y-62460000D03*
%TO.P,J4,3,Pin_3_3*%
%TO.N,/SPI_MISO*%
X79000000Y-65000000D03*
%TO.P,J4,4,Pin_4_4*%
%TO.N,/SPI_MOSI*%
X79000000Y-67540000D03*
%TO.P,J4,5,Pin_5_5*%
%TO.N,/SPI_SCK*%
X79000000Y-70080000D03*
%TO.P,J4,6,Pin_6_6*%
%TO.N,/SPI_CS*%
X79000000Y-72620000D03*
%TD*%
D10*
%TO.P,J2,1,Pin_1_1*%
%TO.N,/SPI_SCK*%
X66040000Y-35560000D03*
D11*
%TO.P,J2,2,Pin_2_2*%
%TO.N,/SPI_MOSI*%
X66040000Y-38100000D03*
%TO.P,J2,3,Pin_3_3*%
%TO.N,/SPI_CS*%
X66040000Y-40640000D03*
%TO.P,J2,4,Pin_4_4*%
%TO.N,/GPS_TX*%
X66040000Y-43180000D03*
%TO.P,J2,5,Pin_5_5*%
%TO.N,/BATTERY_ADC*%
X66040000Y-45720000D03*
%TO.P,J2,6,Pin_6_6*%
%TO.N,/UART_TX_DEBUG*%
X66040000Y-48260000D03*
%TO.P,J2,7,Pin_7_7*%
%TO.N,/UART_RX_DEBUG*%
X66040000Y-50800000D03*
%TO.P,J2,8,Pin_8_8*%
%TO.N,/GPS_RX*%
X66040000Y-53340000D03*
%TD*%
D15*
%TO.P,R3,1*%
%TO.N,/SPI_CS*%
X82525000Y-68925000D03*
%TO.P,R3,2*%
%TO.N,+3V3*%
X82525000Y-61305000D03*
%TD*%
D17*
%TO.N,/GPS_TX*%
X80000000Y-111000000D03*
%TO.N,/GPS_RX*%
X59000000Y-74000000D03*
X80000000Y-119000000D03*
X76000000Y-119000000D03*
%TO.N,GND*%
X62000000Y-66000000D03*
X76000000Y-58000000D03*
%TO.N,/BATTERY_ADC*%
X78000000Y-39000000D03*
X75000000Y-45000000D03*
%TO.N,+3V3*%
X82000000Y-59000000D03*
X71000000Y-69000000D03*
X68000000Y-72000000D03*
%TO.N,/SPI_MISO*%
X77000000Y-68000000D03*
X61000000Y-72000000D03*
%TO.N,/SPI_MOSI*%
X62000000Y-38000000D03*
X62000000Y-47000000D03*
%TO.N,/SPI_CS*%
X79000000Y-75000000D03*
%TD*%
%TO.N,+5V*%
D18*
X60000000Y-61087200D02*
X84000000Y-85087200D01*
X79038161Y-132456400D02*
X77543600Y-132456400D01*
X50800000Y-35560000D02*
X60000000Y-44760000D01*
X60000000Y-44760000D02*
X60000000Y-61087200D01*
X77543600Y-111456400D02*
X84000000Y-105000000D01*
X84000000Y-137418239D02*
X79038161Y-132456400D01*
X77543600Y-132456400D02*
X77543600Y-111456400D01*
X79418239Y-142000000D02*
X84000000Y-137418239D01*
X84000000Y-85087200D02*
X84000000Y-105000000D01*
X79000000Y-142000000D02*
X79418239Y-142000000D01*
%TO.N,/GPS_TX*%
D19*
X84000000Y-107540000D02*
X80540000Y-111000000D01*
X80540000Y-111000000D02*
X80000000Y-111000000D01*
%TO.N,/GPS_RX*%
X80000000Y-119000000D02*
X80000000Y-113000000D01*
X59000000Y-102000000D02*
X76000000Y-119000000D01*
X59000000Y-74000000D02*
X59000000Y-102000000D01*
X84000000Y-110080000D02*
X81080000Y-113000000D01*
X81080000Y-113000000D02*
X80000000Y-113000000D01*
%TO.N,GND*%
D18*
X78000000Y-51500000D02*
X78000000Y-56000000D01*
X62000000Y-68540000D02*
X62000000Y-66000000D01*
X70460000Y-77000000D02*
X62000000Y-68540000D01*
X78000000Y-56000000D02*
X76000000Y-58000000D01*
%TO.N,Net-(J7-Pin_8)*%
X74000000Y-144080000D02*
X78080000Y-140000000D01*
X78080000Y-140000000D02*
X79000000Y-140000000D01*
%TO.N,/VBAT*%
X79000000Y-131000000D02*
X85456400Y-124543600D01*
X85456400Y-42646400D02*
X78000000Y-35190000D01*
X85456400Y-124543600D02*
X85456400Y-42646400D01*
%TO.N,/BATTERY_ADC*%
X72000000Y-35190000D02*
X74190000Y-35190000D01*
X72000000Y-46000000D02*
X74000000Y-46000000D01*
X74190000Y-35190000D02*
X78000000Y-39000000D01*
X66040000Y-45720000D02*
X71720000Y-45720000D01*
X74000000Y-46000000D02*
X75000000Y-45000000D01*
X71720000Y-45720000D02*
X72000000Y-46000000D01*
%TO.N,+3V3*%
D20*
X75000000Y-49500000D02*
X75000000Y-54000000D01*
X72460000Y-69000000D02*
X79000000Y-62460000D01*
X73000000Y-54000000D02*
X75000000Y-54000000D01*
X78000000Y-46500000D02*
X75000000Y-49500000D01*
X75000000Y-61000000D02*
X77540000Y-61000000D01*
X64685200Y-53901177D02*
X65478823Y-54694800D01*
X65478823Y-54694800D02*
X72305200Y-54694800D01*
X64685200Y-46735600D02*
X64685200Y-53901177D01*
X49445200Y-39285200D02*
X49445200Y-34205200D01*
X74305200Y-54694800D02*
X75000000Y-54000000D01*
X74305200Y-60305200D02*
X75000000Y-61000000D01*
X49445200Y-34205200D02*
X52154800Y-34205200D01*
D21*
X82525000Y-59525000D02*
X82000000Y-59000000D01*
D20*
X77540000Y-61000000D02*
X79000000Y-62460000D01*
D21*
X82525000Y-61305000D02*
X82525000Y-59525000D01*
D20*
X52154800Y-34205200D02*
X64685200Y-46735600D01*
X71000000Y-69000000D02*
X72460000Y-69000000D01*
X72305200Y-54694800D02*
X73000000Y-54000000D01*
X74305200Y-54694800D02*
X74305200Y-60305200D01*
X50800000Y-40640000D02*
X49445200Y-39285200D01*
X73000000Y-77000000D02*
X68000000Y-72000000D01*
%TO.N,/I2C_SCL*%
D19*
X51977000Y-61057000D02*
X67920000Y-77000000D01*
X50800000Y-48260000D02*
X51977000Y-49437000D01*
X51977000Y-49437000D02*
X51977000Y-61057000D01*
%TO.N,/I2C_SDA*%
X50800000Y-50800000D02*
X49623000Y-51977000D01*
X49623000Y-51977000D02*
X49623000Y-61509712D01*
X49623000Y-61509712D02*
X65113288Y-77000000D01*
X65113288Y-77000000D02*
X65380000Y-77000000D01*
%TO.N,/SPI_MISO*%
X50800000Y-61800000D02*
X61000000Y-72000000D01*
X77000000Y-68000000D02*
X77000000Y-67000000D01*
X50800000Y-53340000D02*
X50800000Y-61800000D01*
X77000000Y-67000000D02*
X79000000Y-65000000D01*
%TO.N,/SPI_MOSI*%
X76908200Y-69631800D02*
X70738300Y-69631800D01*
X79000000Y-67540000D02*
X76908200Y-69631800D01*
X62000000Y-38000000D02*
X62100000Y-38100000D01*
X62100000Y-38100000D02*
X66040000Y-38100000D01*
X70738300Y-69631800D02*
X62000000Y-60893500D01*
X62000000Y-60893500D02*
X62000000Y-47000000D01*
%TO.N,/SPI_SCK*%
X79487530Y-73797000D02*
X80631000Y-72653530D01*
X80631000Y-72653530D02*
X80631000Y-43847181D01*
X77823000Y-73107530D02*
X78512470Y-73797000D01*
X80631000Y-43847181D02*
X73722019Y-36938200D01*
X79000000Y-70080000D02*
X77823000Y-71257000D01*
X67418200Y-36938200D02*
X66040000Y-35560000D01*
X78512470Y-73797000D02*
X79487530Y-73797000D01*
X77823000Y-71257000D02*
X77823000Y-73107530D01*
X73722019Y-36938200D02*
X67418200Y-36938200D01*
%TO.N,/SPI_CS*%
X80177000Y-71443000D02*
X80177000Y-47083181D01*
D21*
X82525000Y-68925000D02*
X82525000Y-73475000D01*
D19*
X79000000Y-72620000D02*
X80177000Y-71443000D01*
D21*
X82525000Y-73475000D02*
X81000000Y-75000000D01*
X82075000Y-68925000D02*
X82000000Y-69000000D01*
D19*
X73733819Y-40640000D02*
X66040000Y-40640000D01*
X80177000Y-47083181D02*
X73733819Y-40640000D01*
D21*
X81000000Y-75000000D02*
X79000000Y-75000000D01*
X82525000Y-68925000D02*
X82075000Y-68925000D01*
%TD*%
M02*
