%TF.GenerationSoftware,KiCad,Pcbnew,10.0.3*%
%TF.CreationDate,2026-06-02T11:28:32+02:00*%
%TF.ProjectId,bikesensor_pcb,62696b65-7365-46e7-936f-725f7063622e,rev?*%
%TF.SameCoordinates,Original*%
%TF.FileFunction,Legend,Top*%
%TF.FilePolarity,Positive*%
%FSLAX46Y46*%
G04 Gerber Fmt 4.6, Leading zero omitted, Abs format (unit mm)*
G04 Created by KiCad (PCBNEW 10.0.3) date 2026-06-02 11:28:32*
%MOMM*%
%LPD*%
G01*
G04 APERTURE LIST*
%ADD10C,0.150000*%
%ADD11C,0.120000*%
G04 APERTURE END LIST*
D10*
X103378095Y-172004819D02*
X103378095Y-171004819D01*
X103378095Y-171481009D02*
X103949523Y-171481009D01*
X103949523Y-172004819D02*
X103949523Y-171004819D01*
X104854285Y-171338152D02*
X104854285Y-172004819D01*
X104616190Y-170957200D02*
X104378095Y-171671485D01*
X104378095Y-171671485D02*
X104997142Y-171671485D01*
X44958095Y-174544819D02*
X44958095Y-173544819D01*
X44958095Y-174021009D02*
X45529523Y-174021009D01*
X45529523Y-174544819D02*
X45529523Y-173544819D01*
X45910476Y-173544819D02*
X46529523Y-173544819D01*
X46529523Y-173544819D02*
X46196190Y-173925771D01*
X46196190Y-173925771D02*
X46339047Y-173925771D01*
X46339047Y-173925771D02*
X46434285Y-173973390D01*
X46434285Y-173973390D02*
X46481904Y-174021009D01*
X46481904Y-174021009D02*
X46529523Y-174116247D01*
X46529523Y-174116247D02*
X46529523Y-174354342D01*
X46529523Y-174354342D02*
X46481904Y-174449580D01*
X46481904Y-174449580D02*
X46434285Y-174497200D01*
X46434285Y-174497200D02*
X46339047Y-174544819D01*
X46339047Y-174544819D02*
X46053333Y-174544819D01*
X46053333Y-174544819D02*
X45958095Y-174497200D01*
X45958095Y-174497200D02*
X45910476Y-174449580D01*
X44958095Y-22144819D02*
X44958095Y-21144819D01*
X44958095Y-21621009D02*
X45529523Y-21621009D01*
X45529523Y-22144819D02*
X45529523Y-21144819D01*
X45958095Y-21240057D02*
X46005714Y-21192438D01*
X46005714Y-21192438D02*
X46100952Y-21144819D01*
X46100952Y-21144819D02*
X46339047Y-21144819D01*
X46339047Y-21144819D02*
X46434285Y-21192438D01*
X46434285Y-21192438D02*
X46481904Y-21240057D01*
X46481904Y-21240057D02*
X46529523Y-21335295D01*
X46529523Y-21335295D02*
X46529523Y-21430533D01*
X46529523Y-21430533D02*
X46481904Y-21573390D01*
X46481904Y-21573390D02*
X45910476Y-22144819D01*
X45910476Y-22144819D02*
X46529523Y-22144819D01*
X100838095Y-22144819D02*
X100838095Y-21144819D01*
X100838095Y-21621009D02*
X101409523Y-21621009D01*
X101409523Y-22144819D02*
X101409523Y-21144819D01*
X102409523Y-22144819D02*
X101838095Y-22144819D01*
X102123809Y-22144819D02*
X102123809Y-21144819D01*
X102123809Y-21144819D02*
X102028571Y-21287676D01*
X102028571Y-21287676D02*
X101933333Y-21382914D01*
X101933333Y-21382914D02*
X101838095Y-21430533D01*
X88566666Y-121144819D02*
X88566666Y-121859104D01*
X88566666Y-121859104D02*
X88519047Y-122001961D01*
X88519047Y-122001961D02*
X88423809Y-122097200D01*
X88423809Y-122097200D02*
X88280952Y-122144819D01*
X88280952Y-122144819D02*
X88185714Y-122144819D01*
X89519047Y-121144819D02*
X89042857Y-121144819D01*
X89042857Y-121144819D02*
X88995238Y-121621009D01*
X88995238Y-121621009D02*
X89042857Y-121573390D01*
X89042857Y-121573390D02*
X89138095Y-121525771D01*
X89138095Y-121525771D02*
X89376190Y-121525771D01*
X89376190Y-121525771D02*
X89471428Y-121573390D01*
X89471428Y-121573390D02*
X89519047Y-121621009D01*
X89519047Y-121621009D02*
X89566666Y-121716247D01*
X89566666Y-121716247D02*
X89566666Y-121954342D01*
X89566666Y-121954342D02*
X89519047Y-122049580D01*
X89519047Y-122049580D02*
X89471428Y-122097200D01*
X89471428Y-122097200D02*
X89376190Y-122144819D01*
X89376190Y-122144819D02*
X89138095Y-122144819D01*
X89138095Y-122144819D02*
X89042857Y-122097200D01*
X89042857Y-122097200D02*
X88995238Y-122049580D01*
X95031667Y-162997200D02*
X95174524Y-163044819D01*
X95174524Y-163044819D02*
X95412619Y-163044819D01*
X95412619Y-163044819D02*
X95507857Y-162997200D01*
X95507857Y-162997200D02*
X95555476Y-162949580D01*
X95555476Y-162949580D02*
X95603095Y-162854342D01*
X95603095Y-162854342D02*
X95603095Y-162759104D01*
X95603095Y-162759104D02*
X95555476Y-162663866D01*
X95555476Y-162663866D02*
X95507857Y-162616247D01*
X95507857Y-162616247D02*
X95412619Y-162568628D01*
X95412619Y-162568628D02*
X95222143Y-162521009D01*
X95222143Y-162521009D02*
X95126905Y-162473390D01*
X95126905Y-162473390D02*
X95079286Y-162425771D01*
X95079286Y-162425771D02*
X95031667Y-162330533D01*
X95031667Y-162330533D02*
X95031667Y-162235295D01*
X95031667Y-162235295D02*
X95079286Y-162140057D01*
X95079286Y-162140057D02*
X95126905Y-162092438D01*
X95126905Y-162092438D02*
X95222143Y-162044819D01*
X95222143Y-162044819D02*
X95460238Y-162044819D01*
X95460238Y-162044819D02*
X95603095Y-162092438D01*
X95936429Y-162044819D02*
X96174524Y-163044819D01*
X96174524Y-163044819D02*
X96365000Y-162330533D01*
X96365000Y-162330533D02*
X96555476Y-163044819D01*
X96555476Y-163044819D02*
X96793572Y-162044819D01*
X97698333Y-163044819D02*
X97126905Y-163044819D01*
X97412619Y-163044819D02*
X97412619Y-162044819D01*
X97412619Y-162044819D02*
X97317381Y-162187676D01*
X97317381Y-162187676D02*
X97222143Y-162282914D01*
X97222143Y-162282914D02*
X97126905Y-162330533D01*
X75866666Y-146544819D02*
X75866666Y-147259104D01*
X75866666Y-147259104D02*
X75819047Y-147401961D01*
X75819047Y-147401961D02*
X75723809Y-147497200D01*
X75723809Y-147497200D02*
X75580952Y-147544819D01*
X75580952Y-147544819D02*
X75485714Y-147544819D01*
X76247619Y-146544819D02*
X76914285Y-146544819D01*
X76914285Y-146544819D02*
X76485714Y-147544819D01*
X101284819Y-147653333D02*
X101999104Y-147653333D01*
X101999104Y-147653333D02*
X102141961Y-147700952D01*
X102141961Y-147700952D02*
X102237200Y-147796190D01*
X102237200Y-147796190D02*
X102284819Y-147939047D01*
X102284819Y-147939047D02*
X102284819Y-148034285D01*
X101713390Y-147034285D02*
X101665771Y-147129523D01*
X101665771Y-147129523D02*
X101618152Y-147177142D01*
X101618152Y-147177142D02*
X101522914Y-147224761D01*
X101522914Y-147224761D02*
X101475295Y-147224761D01*
X101475295Y-147224761D02*
X101380057Y-147177142D01*
X101380057Y-147177142D02*
X101332438Y-147129523D01*
X101332438Y-147129523D02*
X101284819Y-147034285D01*
X101284819Y-147034285D02*
X101284819Y-146843809D01*
X101284819Y-146843809D02*
X101332438Y-146748571D01*
X101332438Y-146748571D02*
X101380057Y-146700952D01*
X101380057Y-146700952D02*
X101475295Y-146653333D01*
X101475295Y-146653333D02*
X101522914Y-146653333D01*
X101522914Y-146653333D02*
X101618152Y-146700952D01*
X101618152Y-146700952D02*
X101665771Y-146748571D01*
X101665771Y-146748571D02*
X101713390Y-146843809D01*
X101713390Y-146843809D02*
X101713390Y-147034285D01*
X101713390Y-147034285D02*
X101761009Y-147129523D01*
X101761009Y-147129523D02*
X101808628Y-147177142D01*
X101808628Y-147177142D02*
X101903866Y-147224761D01*
X101903866Y-147224761D02*
X102094342Y-147224761D01*
X102094342Y-147224761D02*
X102189580Y-147177142D01*
X102189580Y-147177142D02*
X102237200Y-147129523D01*
X102237200Y-147129523D02*
X102284819Y-147034285D01*
X102284819Y-147034285D02*
X102284819Y-146843809D01*
X102284819Y-146843809D02*
X102237200Y-146748571D01*
X102237200Y-146748571D02*
X102189580Y-146700952D01*
X102189580Y-146700952D02*
X102094342Y-146653333D01*
X102094342Y-146653333D02*
X101903866Y-146653333D01*
X101903866Y-146653333D02*
X101808628Y-146700952D01*
X101808628Y-146700952D02*
X101761009Y-146748571D01*
X101761009Y-146748571D02*
X101713390Y-146843809D01*
X50466666Y-146544819D02*
X50466666Y-147259104D01*
X50466666Y-147259104D02*
X50419047Y-147401961D01*
X50419047Y-147401961D02*
X50323809Y-147497200D01*
X50323809Y-147497200D02*
X50180952Y-147544819D01*
X50180952Y-147544819D02*
X50085714Y-147544819D01*
X51371428Y-146544819D02*
X51180952Y-146544819D01*
X51180952Y-146544819D02*
X51085714Y-146592438D01*
X51085714Y-146592438D02*
X51038095Y-146640057D01*
X51038095Y-146640057D02*
X50942857Y-146782914D01*
X50942857Y-146782914D02*
X50895238Y-146973390D01*
X50895238Y-146973390D02*
X50895238Y-147354342D01*
X50895238Y-147354342D02*
X50942857Y-147449580D01*
X50942857Y-147449580D02*
X50990476Y-147497200D01*
X50990476Y-147497200D02*
X51085714Y-147544819D01*
X51085714Y-147544819D02*
X51276190Y-147544819D01*
X51276190Y-147544819D02*
X51371428Y-147497200D01*
X51371428Y-147497200D02*
X51419047Y-147449580D01*
X51419047Y-147449580D02*
X51466666Y-147354342D01*
X51466666Y-147354342D02*
X51466666Y-147116247D01*
X51466666Y-147116247D02*
X51419047Y-147021009D01*
X51419047Y-147021009D02*
X51371428Y-146973390D01*
X51371428Y-146973390D02*
X51276190Y-146925771D01*
X51276190Y-146925771D02*
X51085714Y-146925771D01*
X51085714Y-146925771D02*
X50990476Y-146973390D01*
X50990476Y-146973390D02*
X50942857Y-147021009D01*
X50942857Y-147021009D02*
X50895238Y-147116247D01*
X101884819Y-41546666D02*
X101408628Y-41879999D01*
X101884819Y-42118094D02*
X100884819Y-42118094D01*
X100884819Y-42118094D02*
X100884819Y-41737142D01*
X100884819Y-41737142D02*
X100932438Y-41641904D01*
X100932438Y-41641904D02*
X100980057Y-41594285D01*
X100980057Y-41594285D02*
X101075295Y-41546666D01*
X101075295Y-41546666D02*
X101218152Y-41546666D01*
X101218152Y-41546666D02*
X101313390Y-41594285D01*
X101313390Y-41594285D02*
X101361009Y-41641904D01*
X101361009Y-41641904D02*
X101408628Y-41737142D01*
X101408628Y-41737142D02*
X101408628Y-42118094D01*
X101884819Y-40594285D02*
X101884819Y-41165713D01*
X101884819Y-40879999D02*
X100884819Y-40879999D01*
X100884819Y-40879999D02*
X101027676Y-40975237D01*
X101027676Y-40975237D02*
X101122914Y-41070475D01*
X101122914Y-41070475D02*
X101170533Y-41165713D01*
X103169580Y-64666666D02*
X103217200Y-64714285D01*
X103217200Y-64714285D02*
X103264819Y-64857142D01*
X103264819Y-64857142D02*
X103264819Y-64952380D01*
X103264819Y-64952380D02*
X103217200Y-65095237D01*
X103217200Y-65095237D02*
X103121961Y-65190475D01*
X103121961Y-65190475D02*
X103026723Y-65238094D01*
X103026723Y-65238094D02*
X102836247Y-65285713D01*
X102836247Y-65285713D02*
X102693390Y-65285713D01*
X102693390Y-65285713D02*
X102502914Y-65238094D01*
X102502914Y-65238094D02*
X102407676Y-65190475D01*
X102407676Y-65190475D02*
X102312438Y-65095237D01*
X102312438Y-65095237D02*
X102264819Y-64952380D01*
X102264819Y-64952380D02*
X102264819Y-64857142D01*
X102264819Y-64857142D02*
X102312438Y-64714285D01*
X102312438Y-64714285D02*
X102360057Y-64666666D01*
X103264819Y-63714285D02*
X103264819Y-64285713D01*
X103264819Y-63999999D02*
X102264819Y-63999999D01*
X102264819Y-63999999D02*
X102407676Y-64095237D01*
X102407676Y-64095237D02*
X102502914Y-64190475D01*
X102502914Y-64190475D02*
X102550533Y-64285713D01*
X99419580Y-50966666D02*
X99467200Y-51014285D01*
X99467200Y-51014285D02*
X99514819Y-51157142D01*
X99514819Y-51157142D02*
X99514819Y-51252380D01*
X99514819Y-51252380D02*
X99467200Y-51395237D01*
X99467200Y-51395237D02*
X99371961Y-51490475D01*
X99371961Y-51490475D02*
X99276723Y-51538094D01*
X99276723Y-51538094D02*
X99086247Y-51585713D01*
X99086247Y-51585713D02*
X98943390Y-51585713D01*
X98943390Y-51585713D02*
X98752914Y-51538094D01*
X98752914Y-51538094D02*
X98657676Y-51490475D01*
X98657676Y-51490475D02*
X98562438Y-51395237D01*
X98562438Y-51395237D02*
X98514819Y-51252380D01*
X98514819Y-51252380D02*
X98514819Y-51157142D01*
X98514819Y-51157142D02*
X98562438Y-51014285D01*
X98562438Y-51014285D02*
X98610057Y-50966666D01*
X98610057Y-50585713D02*
X98562438Y-50538094D01*
X98562438Y-50538094D02*
X98514819Y-50442856D01*
X98514819Y-50442856D02*
X98514819Y-50204761D01*
X98514819Y-50204761D02*
X98562438Y-50109523D01*
X98562438Y-50109523D02*
X98610057Y-50061904D01*
X98610057Y-50061904D02*
X98705295Y-50014285D01*
X98705295Y-50014285D02*
X98800533Y-50014285D01*
X98800533Y-50014285D02*
X98943390Y-50061904D01*
X98943390Y-50061904D02*
X99514819Y-50633332D01*
X99514819Y-50633332D02*
X99514819Y-50014285D01*
X86814819Y-38266666D02*
X86338628Y-38599999D01*
X86814819Y-38838094D02*
X85814819Y-38838094D01*
X85814819Y-38838094D02*
X85814819Y-38457142D01*
X85814819Y-38457142D02*
X85862438Y-38361904D01*
X85862438Y-38361904D02*
X85910057Y-38314285D01*
X85910057Y-38314285D02*
X86005295Y-38266666D01*
X86005295Y-38266666D02*
X86148152Y-38266666D01*
X86148152Y-38266666D02*
X86243390Y-38314285D01*
X86243390Y-38314285D02*
X86291009Y-38361904D01*
X86291009Y-38361904D02*
X86338628Y-38457142D01*
X86338628Y-38457142D02*
X86338628Y-38838094D01*
X85910057Y-37885713D02*
X85862438Y-37838094D01*
X85862438Y-37838094D02*
X85814819Y-37742856D01*
X85814819Y-37742856D02*
X85814819Y-37504761D01*
X85814819Y-37504761D02*
X85862438Y-37409523D01*
X85862438Y-37409523D02*
X85910057Y-37361904D01*
X85910057Y-37361904D02*
X86005295Y-37314285D01*
X86005295Y-37314285D02*
X86100533Y-37314285D01*
X86100533Y-37314285D02*
X86243390Y-37361904D01*
X86243390Y-37361904D02*
X86814819Y-37933332D01*
X86814819Y-37933332D02*
X86814819Y-37314285D01*
X50466666Y-32244819D02*
X50466666Y-32959104D01*
X50466666Y-32959104D02*
X50419047Y-33101961D01*
X50419047Y-33101961D02*
X50323809Y-33197200D01*
X50323809Y-33197200D02*
X50180952Y-33244819D01*
X50180952Y-33244819D02*
X50085714Y-33244819D01*
X51466666Y-33244819D02*
X50895238Y-33244819D01*
X51180952Y-33244819D02*
X51180952Y-32244819D01*
X51180952Y-32244819D02*
X51085714Y-32387676D01*
X51085714Y-32387676D02*
X50990476Y-32482914D01*
X50990476Y-32482914D02*
X50895238Y-32530533D01*
X86719580Y-53506666D02*
X86767200Y-53554285D01*
X86767200Y-53554285D02*
X86814819Y-53697142D01*
X86814819Y-53697142D02*
X86814819Y-53792380D01*
X86814819Y-53792380D02*
X86767200Y-53935237D01*
X86767200Y-53935237D02*
X86671961Y-54030475D01*
X86671961Y-54030475D02*
X86576723Y-54078094D01*
X86576723Y-54078094D02*
X86386247Y-54125713D01*
X86386247Y-54125713D02*
X86243390Y-54125713D01*
X86243390Y-54125713D02*
X86052914Y-54078094D01*
X86052914Y-54078094D02*
X85957676Y-54030475D01*
X85957676Y-54030475D02*
X85862438Y-53935237D01*
X85862438Y-53935237D02*
X85814819Y-53792380D01*
X85814819Y-53792380D02*
X85814819Y-53697142D01*
X85814819Y-53697142D02*
X85862438Y-53554285D01*
X85862438Y-53554285D02*
X85910057Y-53506666D01*
X85814819Y-53173332D02*
X85814819Y-52554285D01*
X85814819Y-52554285D02*
X86195771Y-52887618D01*
X86195771Y-52887618D02*
X86195771Y-52744761D01*
X86195771Y-52744761D02*
X86243390Y-52649523D01*
X86243390Y-52649523D02*
X86291009Y-52601904D01*
X86291009Y-52601904D02*
X86386247Y-52554285D01*
X86386247Y-52554285D02*
X86624342Y-52554285D01*
X86624342Y-52554285D02*
X86719580Y-52601904D01*
X86719580Y-52601904D02*
X86767200Y-52649523D01*
X86767200Y-52649523D02*
X86814819Y-52744761D01*
X86814819Y-52744761D02*
X86814819Y-53030475D01*
X86814819Y-53030475D02*
X86767200Y-53125713D01*
X86767200Y-53125713D02*
X86719580Y-53173332D01*
X50466666Y-88124819D02*
X50466666Y-88839104D01*
X50466666Y-88839104D02*
X50419047Y-88981961D01*
X50419047Y-88981961D02*
X50323809Y-89077200D01*
X50323809Y-89077200D02*
X50180952Y-89124819D01*
X50180952Y-89124819D02*
X50085714Y-89124819D01*
X50847619Y-88124819D02*
X51466666Y-88124819D01*
X51466666Y-88124819D02*
X51133333Y-88505771D01*
X51133333Y-88505771D02*
X51276190Y-88505771D01*
X51276190Y-88505771D02*
X51371428Y-88553390D01*
X51371428Y-88553390D02*
X51419047Y-88601009D01*
X51419047Y-88601009D02*
X51466666Y-88696247D01*
X51466666Y-88696247D02*
X51466666Y-88934342D01*
X51466666Y-88934342D02*
X51419047Y-89029580D01*
X51419047Y-89029580D02*
X51371428Y-89077200D01*
X51371428Y-89077200D02*
X51276190Y-89124819D01*
X51276190Y-89124819D02*
X50990476Y-89124819D01*
X50990476Y-89124819D02*
X50895238Y-89077200D01*
X50895238Y-89077200D02*
X50847619Y-89029580D01*
X86026666Y-62724819D02*
X86026666Y-63439104D01*
X86026666Y-63439104D02*
X85979047Y-63581961D01*
X85979047Y-63581961D02*
X85883809Y-63677200D01*
X85883809Y-63677200D02*
X85740952Y-63724819D01*
X85740952Y-63724819D02*
X85645714Y-63724819D01*
X86931428Y-63058152D02*
X86931428Y-63724819D01*
X86693333Y-62677200D02*
X86455238Y-63391485D01*
X86455238Y-63391485D02*
X87074285Y-63391485D01*
X70786666Y-32244819D02*
X70786666Y-32959104D01*
X70786666Y-32959104D02*
X70739047Y-33101961D01*
X70739047Y-33101961D02*
X70643809Y-33197200D01*
X70643809Y-33197200D02*
X70500952Y-33244819D01*
X70500952Y-33244819D02*
X70405714Y-33244819D01*
X71215238Y-32340057D02*
X71262857Y-32292438D01*
X71262857Y-32292438D02*
X71358095Y-32244819D01*
X71358095Y-32244819D02*
X71596190Y-32244819D01*
X71596190Y-32244819D02*
X71691428Y-32292438D01*
X71691428Y-32292438D02*
X71739047Y-32340057D01*
X71739047Y-32340057D02*
X71786666Y-32435295D01*
X71786666Y-32435295D02*
X71786666Y-32530533D01*
X71786666Y-32530533D02*
X71739047Y-32673390D01*
X71739047Y-32673390D02*
X71167619Y-33244819D01*
X71167619Y-33244819D02*
X71786666Y-33244819D01*
%TO.C,J5*%
D11*
X87570000Y-125730000D02*
X87570000Y-133410000D01*
X87570000Y-125730000D02*
X90230000Y-125730000D01*
X87570000Y-133410000D02*
X90230000Y-133410000D01*
X88900000Y-123130000D02*
X90230000Y-123130000D01*
X90230000Y-123130000D02*
X90230000Y-124460000D01*
X90230000Y-125730000D02*
X90230000Y-133410000D01*
%TO.C,SW1*%
X89965000Y-163320000D02*
X98785000Y-163320000D01*
X89965000Y-163630000D02*
X89965000Y-163320000D01*
X89965000Y-167840000D02*
X89965000Y-167530000D01*
X91875000Y-162620000D02*
X92375000Y-163120000D01*
X92375000Y-163120000D02*
X92875000Y-162620000D01*
X92875000Y-162620000D02*
X91875000Y-162620000D01*
X98785000Y-163320000D02*
X98785000Y-163630000D01*
X98785000Y-167840000D02*
X89965000Y-167840000D01*
X98785000Y-167840000D02*
X98785000Y-167530000D01*
%TO.C,J7*%
X74870000Y-151130000D02*
X74870000Y-168970000D01*
X74870000Y-151130000D02*
X77530000Y-151130000D01*
X74870000Y-168970000D02*
X77530000Y-168970000D01*
X76200000Y-148530000D02*
X77530000Y-148530000D01*
X77530000Y-148530000D02*
X77530000Y-149860000D01*
X77530000Y-151130000D02*
X77530000Y-168970000D01*
%TO.C,J8*%
X97730000Y-145990000D02*
X97730000Y-148650000D01*
X97850000Y-145990000D02*
X97730000Y-145990000D01*
X97850000Y-148650000D02*
X97730000Y-148650000D01*
X100390000Y-147320000D02*
X100390000Y-148650000D01*
X100390000Y-148650000D02*
X99060000Y-148650000D01*
%TO.C,J6*%
X49470000Y-151130000D02*
X49470000Y-168970000D01*
X49470000Y-151130000D02*
X52130000Y-151130000D01*
X49470000Y-168970000D02*
X52130000Y-168970000D01*
X50800000Y-148530000D02*
X52130000Y-148530000D01*
X52130000Y-148530000D02*
X52130000Y-149860000D01*
X52130000Y-151130000D02*
X52130000Y-168970000D01*
%TO.C,R1*%
X97690000Y-38110000D02*
X97690000Y-44650000D01*
X97690000Y-44650000D02*
X98020000Y-44650000D01*
X98020000Y-38110000D02*
X97690000Y-38110000D01*
X100100000Y-38110000D02*
X100430000Y-38110000D01*
X100430000Y-38110000D02*
X100430000Y-44650000D01*
X100430000Y-44650000D02*
X100100000Y-44650000D01*
%TO.C,C1*%
X98020000Y-64500000D02*
X96480000Y-64500000D01*
X98020000Y-64540000D02*
X96480000Y-64540000D01*
X98020000Y-64580000D02*
X96481000Y-64580000D01*
X98020000Y-64620000D02*
X96483000Y-64620000D01*
X98020000Y-64660000D02*
X96485000Y-64660000D01*
X98020000Y-64700000D02*
X96488000Y-64700000D01*
X98020000Y-64740000D02*
X96491000Y-64740000D01*
X98020000Y-64780000D02*
X96495000Y-64780000D01*
X98020000Y-64820000D02*
X96500000Y-64820000D01*
X98020000Y-64860000D02*
X96505000Y-64860000D01*
X98020000Y-64900000D02*
X96511000Y-64900000D01*
X98020000Y-64940000D02*
X96517000Y-64940000D01*
X98020000Y-64980000D02*
X96524000Y-64980000D01*
X98020000Y-65020000D02*
X96532000Y-65020000D01*
X98020000Y-65060000D02*
X96541000Y-65060000D01*
X98020000Y-65100000D02*
X96550000Y-65100000D01*
X98020000Y-65140000D02*
X96559000Y-65140000D01*
X98020000Y-65180000D02*
X96570000Y-65180000D01*
X98020000Y-65220000D02*
X96581000Y-65220000D01*
X98020000Y-65260000D02*
X96593000Y-65260000D01*
X98020000Y-65300000D02*
X96605000Y-65300000D01*
X98020000Y-65340000D02*
X96618000Y-65340000D01*
X98020000Y-65380000D02*
X96632000Y-65380000D01*
X98020000Y-65420000D02*
X96647000Y-65420000D01*
X98020000Y-65460000D02*
X96662000Y-65460000D01*
X98020000Y-65500000D02*
X96678000Y-65500000D01*
X98020000Y-65540000D02*
X96695000Y-65540000D01*
X98020000Y-65580000D02*
X96713000Y-65580000D01*
X98020000Y-65620000D02*
X96731000Y-65620000D01*
X98020000Y-65660000D02*
X96751000Y-65660000D01*
X98020000Y-65700000D02*
X96771000Y-65700000D01*
X98020000Y-65740000D02*
X96792000Y-65740000D01*
X98020000Y-65780000D02*
X96814000Y-65780000D01*
X98020000Y-65820000D02*
X96837000Y-65820000D01*
X98020000Y-65860000D02*
X96861000Y-65860000D01*
X98020000Y-65900000D02*
X96885000Y-65900000D01*
X98020000Y-65940000D02*
X96911000Y-65940000D01*
X98020000Y-65980000D02*
X96938000Y-65980000D01*
X98020000Y-66020000D02*
X96966000Y-66020000D01*
X98020000Y-66060000D02*
X96995000Y-66060000D01*
X98020000Y-66100000D02*
X97025000Y-66100000D01*
X98020000Y-66140000D02*
X97057000Y-66140000D01*
X98020000Y-66180000D02*
X97090000Y-66180000D01*
X98020000Y-66220000D02*
X97124000Y-66220000D01*
X98020000Y-66260000D02*
X97159000Y-66260000D01*
X98020000Y-66300000D02*
X97196000Y-66300000D01*
X98020000Y-66340000D02*
X97235000Y-66340000D01*
X98020000Y-66380000D02*
X97275000Y-66380000D01*
X98020000Y-66420000D02*
X97317000Y-66420000D01*
X98020000Y-66460000D02*
X97361000Y-66460000D01*
X98020000Y-66500000D02*
X97408000Y-66500000D01*
X99343000Y-67100000D02*
X98777000Y-67100000D01*
X99577000Y-67060000D02*
X98543000Y-67060000D01*
X99737000Y-67020000D02*
X98383000Y-67020000D01*
X99865000Y-66980000D02*
X98255000Y-66980000D01*
X99974000Y-66940000D02*
X98146000Y-66940000D01*
X100071000Y-66900000D02*
X98049000Y-66900000D01*
X100158000Y-66860000D02*
X97962000Y-66860000D01*
X100237000Y-66820000D02*
X97883000Y-66820000D01*
X100311000Y-66780000D02*
X97809000Y-66780000D01*
X100379000Y-66740000D02*
X97741000Y-66740000D01*
X100443000Y-66700000D02*
X97677000Y-66700000D01*
X100503000Y-66660000D02*
X97617000Y-66660000D01*
X100535000Y-61695225D02*
X100535000Y-62195225D01*
X100559000Y-66620000D02*
X97561000Y-66620000D01*
X100613000Y-66580000D02*
X97507000Y-66580000D01*
X100664000Y-66540000D02*
X97456000Y-66540000D01*
X100712000Y-66500000D02*
X100100000Y-66500000D01*
X100759000Y-66460000D02*
X100100000Y-66460000D01*
X100785000Y-61945225D02*
X100285000Y-61945225D01*
X100803000Y-66420000D02*
X100100000Y-66420000D01*
X100845000Y-66380000D02*
X100100000Y-66380000D01*
X100885000Y-66340000D02*
X100100000Y-66340000D01*
X100924000Y-66300000D02*
X100100000Y-66300000D01*
X100961000Y-66260000D02*
X100100000Y-66260000D01*
X100996000Y-66220000D02*
X100100000Y-66220000D01*
X101030000Y-66180000D02*
X100100000Y-66180000D01*
X101063000Y-66140000D02*
X100100000Y-66140000D01*
X101095000Y-66100000D02*
X100100000Y-66100000D01*
X101125000Y-66060000D02*
X100100000Y-66060000D01*
X101154000Y-66020000D02*
X100100000Y-66020000D01*
X101182000Y-65980000D02*
X100100000Y-65980000D01*
X101209000Y-65940000D02*
X100100000Y-65940000D01*
X101235000Y-65900000D02*
X100100000Y-65900000D01*
X101259000Y-65860000D02*
X100100000Y-65860000D01*
X101283000Y-65820000D02*
X100100000Y-65820000D01*
X101306000Y-65780000D02*
X100100000Y-65780000D01*
X101328000Y-65740000D02*
X100100000Y-65740000D01*
X101349000Y-65700000D02*
X100100000Y-65700000D01*
X101369000Y-65660000D02*
X100100000Y-65660000D01*
X101389000Y-65620000D02*
X100100000Y-65620000D01*
X101407000Y-65580000D02*
X100100000Y-65580000D01*
X101425000Y-65540000D02*
X100100000Y-65540000D01*
X101442000Y-65500000D02*
X100100000Y-65500000D01*
X101458000Y-65460000D02*
X100100000Y-65460000D01*
X101473000Y-65420000D02*
X100100000Y-65420000D01*
X101488000Y-65380000D02*
X100100000Y-65380000D01*
X101502000Y-65340000D02*
X100100000Y-65340000D01*
X101515000Y-65300000D02*
X100100000Y-65300000D01*
X101527000Y-65260000D02*
X100100000Y-65260000D01*
X101539000Y-65220000D02*
X100100000Y-65220000D01*
X101550000Y-65180000D02*
X100100000Y-65180000D01*
X101561000Y-65140000D02*
X100100000Y-65140000D01*
X101570000Y-65100000D02*
X100100000Y-65100000D01*
X101579000Y-65060000D02*
X100100000Y-65060000D01*
X101588000Y-65020000D02*
X100100000Y-65020000D01*
X101596000Y-64980000D02*
X100100000Y-64980000D01*
X101603000Y-64940000D02*
X100100000Y-64940000D01*
X101609000Y-64900000D02*
X100100000Y-64900000D01*
X101615000Y-64860000D02*
X100100000Y-64860000D01*
X101620000Y-64820000D02*
X100100000Y-64820000D01*
X101625000Y-64780000D02*
X100100000Y-64780000D01*
X101629000Y-64740000D02*
X100100000Y-64740000D01*
X101632000Y-64700000D02*
X100100000Y-64700000D01*
X101635000Y-64660000D02*
X100100000Y-64660000D01*
X101637000Y-64620000D02*
X100100000Y-64620000D01*
X101639000Y-64580000D02*
X100100000Y-64580000D01*
X101640000Y-64500000D02*
X100100000Y-64500000D01*
X101640000Y-64540000D02*
X100100000Y-64540000D01*
X101680000Y-64500000D02*
G75*
G02*
X96440000Y-64500000I-2620000J0D01*
G01*
X96440000Y-64500000D02*
G75*
G02*
X101680000Y-64500000I2620000J0D01*
G01*
%TO.C,C2*%
X96520000Y-53447086D02*
X96857000Y-53447086D01*
X96520000Y-58687086D02*
X96520000Y-53447086D01*
X96857000Y-58687086D02*
X96520000Y-58687086D01*
X98923000Y-53447086D02*
X99260000Y-53447086D01*
X99260000Y-53447086D02*
X99260000Y-58687086D01*
X99260000Y-58687086D02*
X98923000Y-58687086D01*
%TO.C,R2*%
X79910000Y-38110000D02*
X79910000Y-44650000D01*
X79910000Y-44650000D02*
X80240000Y-44650000D01*
X80240000Y-38110000D02*
X79910000Y-38110000D01*
X82320000Y-38110000D02*
X82650000Y-38110000D01*
X82650000Y-38110000D02*
X82650000Y-44650000D01*
X82650000Y-44650000D02*
X82320000Y-44650000D01*
%TO.C,J1*%
X49470000Y-36830000D02*
X49470000Y-54670000D01*
X49470000Y-36830000D02*
X52130000Y-36830000D01*
X49470000Y-54670000D02*
X52130000Y-54670000D01*
X50800000Y-34230000D02*
X52130000Y-34230000D01*
X52130000Y-34230000D02*
X52130000Y-35560000D01*
X52130000Y-36830000D02*
X52130000Y-54670000D01*
%TO.C,C3*%
X82450000Y-50760000D02*
X82787000Y-50760000D01*
X82450000Y-56000000D02*
X82450000Y-50760000D01*
X82787000Y-56000000D02*
X82450000Y-56000000D01*
X84853000Y-50760000D02*
X85190000Y-50760000D01*
X85190000Y-50760000D02*
X85190000Y-56000000D01*
X85190000Y-56000000D02*
X84853000Y-56000000D01*
%TO.C,J3*%
X49470000Y-92710000D02*
X49470000Y-110550000D01*
X49470000Y-92710000D02*
X52130000Y-92710000D01*
X49470000Y-110550000D02*
X52130000Y-110550000D01*
X50800000Y-90110000D02*
X52130000Y-90110000D01*
X52130000Y-90110000D02*
X52130000Y-91440000D01*
X52130000Y-92710000D02*
X52130000Y-110550000D01*
%TO.C,J4*%
X85030000Y-67310000D02*
X85030000Y-80070000D01*
X85030000Y-67310000D02*
X87690000Y-67310000D01*
X85030000Y-80070000D02*
X87690000Y-80070000D01*
X86360000Y-64710000D02*
X87690000Y-64710000D01*
X87690000Y-64710000D02*
X87690000Y-66040000D01*
X87690000Y-67310000D02*
X87690000Y-80070000D01*
%TO.C,J2*%
X69790000Y-36830000D02*
X69790000Y-54670000D01*
X69790000Y-36830000D02*
X72450000Y-36830000D01*
X69790000Y-54670000D02*
X72450000Y-54670000D01*
X71120000Y-34230000D02*
X72450000Y-34230000D01*
X72450000Y-34230000D02*
X72450000Y-35560000D01*
X72450000Y-36830000D02*
X72450000Y-54670000D01*
%TD*%
M02*
