%TF.GenerationSoftware,KiCad,Pcbnew,10.0.6*%
%TF.CreationDate,2026-09-17T13:40:12+02:00*%
%TF.ProjectId,bikesensor_pcb,62696b65-7365-46e7-936f-725f7063622e,rev?*%
%TF.SameCoordinates,Original*%
%TF.FileFunction,Copper,L2,Bot*%
%TF.FilePolarity,Positive*%
%FSLAX46Y46*%
G04 Gerber Fmt 4.6, Leading zero omitted, Abs format (unit mm)*
G04 Created by KiCad (PCBNEW 10.0.6) date 2026-09-17 13:40:12*
%MOMM*%
%LPD*%
G01*
G04 APERTURE LIST*
G04 Aperture macros list*
%AMRoundRect*
0 Rectangle with rounded corners*
0 $1 Rounding radius*
0 $2 $3 $4 $5 $6 $7 $8 $9 X,Y pos of 4 corners*
0 Add a 4 corners polygon primitive as box body*
4,1,4,$2,$3,$4,$5,$6,$7,$8,$9,$2,$3,0*
0 Add four circle primitives for the rounded corners*
1,1,$1+$1,$2,$3*
1,1,$1+$1,$4,$5*
1,1,$1+$1,$6,$7*
1,1,$1+$1,$8,$9*
0 Add four rect primitives between the rounded corners*
20,1,$1+$1,$2,$3,$4,$5,0*
20,1,$1+$1,$4,$5,$6,$7,0*
20,1,$1+$1,$6,$7,$8,$9,0*
20,1,$1+$1,$8,$9,$2,$3,0*%
G04 Aperture macros list end*
%TA.AperFunction,ComponentPad*%
%ADD10R,1.700000X1.700000*%
%TD*%
%TA.AperFunction,ComponentPad*%
%ADD11C,1.700000*%
%TD*%
%TA.AperFunction,ComponentPad*%
%ADD12O,3.500000X2.200000*%
%TD*%
%TA.AperFunction,ComponentPad*%
%ADD13R,2.500000X1.500000*%
%TD*%
%TA.AperFunction,ComponentPad*%
%ADD14O,2.500000X1.500000*%
%TD*%
%TA.AperFunction,ComponentPad*%
%ADD15C,1.600000*%
%TD*%
%TA.AperFunction,ComponentPad*%
%ADD16RoundRect,0.250000X-0.550000X0.550000X-0.550000X-0.550000X0.550000X-0.550000X0.550000X0.550000X0*%
%TD*%
%TA.AperFunction,ViaPad*%
%ADD17C,0.600000*%
%TD*%
%TA.AperFunction,Conductor*%
%ADD18C,0.254000*%
%TD*%
%TA.AperFunction,Conductor*%
%ADD19C,0.812800*%
%TD*%
%TA.AperFunction,Conductor*%
%ADD20C,0.609600*%
%TD*%
%TA.AperFunction,Conductor*%
%ADD21C,0.200000*%
%TD*%
G04 APERTURE END LIST*
D10*
%TO.P,J5,1,Pin_1_1*%
%TO.N,+5V*%
X84000000Y-105000000D03*
D11*
%TO.P,J5,2,Pin_2_2*%
%TO.N,/GPS_TX*%
X84000000Y-107540000D03*
%TO.P,J5,3,Pin_3_3*%
%TO.N,/GPS_RX*%
X84000000Y-110080000D03*
%TO.P,J5,4,Pin_4_4*%
%TO.N,GND*%
X84000000Y-112620000D03*
%TD*%
D12*
%TO.P,SW1,*%
%TO.N,*%
X79000000Y-144100000D03*
X79000000Y-135900000D03*
D13*
%TO.P,SW1,1,A_1*%
%TO.N,+5V*%
X79000000Y-142000000D03*
D14*
%TO.P,SW1,2,B_2*%
%TO.N,Net-(J7-Pin_8)*%
X79000000Y-140000000D03*
%TO.P,SW1,3,C_3*%
%TO.N,unconnected-(SW1-C-Pad3)*%
X79000000Y-138000000D03*
%TD*%
D10*
%TO.P,J7,1,Pin_1_1*%
%TO.N,unconnected-(J7-Pin_1-Pad1)*%
X74000000Y-126300000D03*
D11*
%TO.P,J7,2,Pin_2_2*%
%TO.N,unconnected-(J7-Pin_2-Pad2)*%
X74000000Y-128840000D03*
%TO.P,J7,3,Pin_3_3*%
%TO.N,unconnected-(J7-Pin_3-Pad3)*%
X74000000Y-131380000D03*
%TO.P,J7,4,Pin_4_4*%
%TO.N,unconnected-(J7-Pin_4-Pad4)*%
X74000000Y-133920000D03*
%TO.P,J7,5,Pin_5_5*%
%TO.N,unconnected-(J7-Pin_5-Pad5)*%
X74000000Y-136460000D03*
%TO.P,J7,6,Pin_6_6*%
%TO.N,unconnected-(J7-Pin_6-Pad6)*%
X74000000Y-139000000D03*
%TO.P,J7,7,Pin_7_7*%
%TO.N,GND*%
X74000000Y-141540000D03*
%TO.P,J7,8,Pin_8_8*%
%TO.N,Net-(J7-Pin_8)*%
X74000000Y-144080000D03*
%TD*%
D10*
%TO.P,J8,1,Pin_1_1*%
%TO.N,/VBAT*%
X79000000Y-131000000D03*
%TD*%
%TO.P,J6,1,Pin_1_1*%
%TO.N,unconnected-(J6-Pin_1-Pad1)*%
X51140000Y-126300000D03*
D11*
%TO.P,J6,2,Pin_2_2*%
%TO.N,unconnected-(J6-Pin_2-Pad2)*%
X51140000Y-128840000D03*
%TO.P,J6,3,Pin_3_3*%
%TO.N,unconnected-(J6-Pin_3-Pad3)*%
X51140000Y-131380000D03*
%TO.P,J6,4,Pin_4_4*%
%TO.N,unconnected-(J6-Pin_4-Pad4)*%
X51140000Y-133920000D03*
%TO.P,J6,5,Pin_5_5*%
%TO.N,unconnected-(J6-Pin_5-Pad5)*%
X51140000Y-136460000D03*
%TO.P,J6,6,Pin_6_6*%
%TO.N,unconnected-(J6-Pin_6-Pad6)*%
X51140000Y-139000000D03*
%TO.P,J6,7,Pin_7_7*%
%TO.N,unconnected-(J6-Pin_7-Pad7)*%
X51140000Y-141540000D03*
%TO.P,J6,8,Pin_8_8*%
%TO.N,unconnected-(J6-Pin_8-Pad8)*%
X51140000Y-144080000D03*
%TD*%
D15*
%TO.P,R1,1*%
%TO.N,/VBAT*%
X78000000Y-35190000D03*
%TO.P,R1,2*%
%TO.N,/BATTERY_ADC*%
X78000000Y-42810000D03*
%TD*%
D16*
%TO.P,C1,1*%
%TO.N,+3V3*%
X73000000Y-54000000D03*
D15*
%TO.P,C1,2*%
%TO.N,GND*%
X73000000Y-56000000D03*
%TD*%
%TO.P,C2,1*%
%TO.N,+3V3*%
X78000000Y-46500000D03*
%TO.P,C2,2*%
%TO.N,GND*%
X78000000Y-51500000D03*
%TD*%
%TO.P,R2,1*%
%TO.N,/BATTERY_ADC*%
X72000000Y-35190000D03*
%TO.P,R2,2*%
%TO.N,GND*%
X72000000Y-42810000D03*
%TD*%
D10*
%TO.P,J1,1,Pin_1_1*%
%TO.N,+5V*%
X50800000Y-35560000D03*
D11*
%TO.P,J1,2,Pin_2_2*%
%TO.N,GND*%
X50800000Y-38100000D03*
%TO.P,J1,3,Pin_3_3*%
%TO.N,+3V3*%
X50800000Y-40640000D03*
%TO.P,J1,4,Pin_4_4*%
%TO.N,/GPIO_9*%
X50800000Y-43180000D03*
%TO.P,J1,5,Pin_5_5*%
%TO.N,/GPIO_8*%
X50800000Y-45720000D03*
%TO.P,J1,6,Pin_6_6*%
%TO.N,/I2C_SCL*%
X50800000Y-48260000D03*
%TO.P,J1,7,Pin_7_7*%
%TO.N,/I2C_SDA*%
X50800000Y-50800000D03*
%TO.P,J1,8,Pin_8_8*%
%TO.N,/SPI_MISO*%
X50800000Y-53340000D03*
%TD*%
D15*
%TO.P,C3,1*%
%TO.N,/BATTERY_ADC*%
X72000000Y-46000000D03*
%TO.P,C3,2*%
%TO.N,GND*%
X72000000Y-51000000D03*
%TD*%
D10*
%TO.P,J3,1,Pin_1_1*%
%TO.N,+3V3*%
X73000000Y-77000000D03*
D11*
%TO.P,J3,2,Pin_2_2*%
%TO.N,GND*%
X70460000Y-77000000D03*
%TO.P,J3,3,Pin_3_3*%
%TO.N,/I2C_SCL*%
X67920000Y-77000000D03*
%TO.P,J3,4,Pin_4_4*%
%TO.N,/I2C_SDA*%
X65380000Y-77000000D03*
%TO.P,J3,5,Pin_5_5*%
%TO.N,/XDA*%
X62840000Y-77000000D03*
%TO.P,J3,6,Pin_6_6*%
%TO.N,/XCL*%
X60300000Y-77000000D03*
%TO.P,J3,7,Pin_7_7*%
%TO.N,/AD0*%
X57760000Y-77000000D03*
%TO.P,J3,8,Pin_8_8*%
%TO.N,/INT*%
X55220000Y-77000000D03*
%TD*%
D10*
%TO.P,J4,1,Pin_1_1*%
%TO.N,GND*%
X79000000Y-59920000D03*
D11*
%TO.P,J4,2,Pin_2_2*%
%TO.N,+3V3*%
X79000000Y-62460000D03*
%TO.P,J4,3,Pin_3_3*%
%TO.N,/SPI_MISO*%
X79000000Y-65000000D03*
%TO.P,J4,4,Pin_4_4*%
%TO.N,/SPI_MOSI*%
X79000000Y-67540000D03*
%TO.P,J4,5,Pin_5_5*%
%TO.N,/SPI_SCK*%
X79000000Y-70080000D03*
%TO.P,J4,6,Pin_6_6*%
%TO.N,/SPI_CS*%
X79000000Y-72620000D03*
%TD*%
D10*
%TO.P,J2,1,Pin_1_1*%
%TO.N,/SPI_SCK*%
X66040000Y-35560000D03*
D11*
%TO.P,J2,2,Pin_2_2*%
%TO.N,/SPI_MOSI*%
X66040000Y-38100000D03*
%TO.P,J2,3,Pin_3_3*%
%TO.N,/SPI_CS*%
X66040000Y-40640000D03*
%TO.P,J2,4,Pin_4_4*%
%TO.N,/GPS_TX*%
X66040000Y-43180000D03*
%TO.P,J2,5,Pin_5_5*%
%TO.N,/BATTERY_ADC*%
X66040000Y-45720000D03*
%TO.P,J2,6,Pin_6_6*%
%TO.N,/UART_TX_DEBUG*%
X66040000Y-48260000D03*
%TO.P,J2,7,Pin_7_7*%
%TO.N,/UART_RX_DEBUG*%
X66040000Y-50800000D03*
%TO.P,J2,8,Pin_8_8*%
%TO.N,/GPS_RX*%
X66040000Y-53340000D03*
%TD*%
D15*
%TO.P,R3,1*%
%TO.N,/SPI_CS*%
X82525000Y-68925000D03*
%TO.P,R3,2*%
%TO.N,+3V3*%
X82525000Y-61305000D03*
%TD*%
D17*
%TO.N,/GPS_TX*%
X80000000Y-111000000D03*
%TO.N,/GPS_RX*%
X59000000Y-74000000D03*
X80000000Y-119000000D03*
X76000000Y-119000000D03*
%TO.N,GND*%
X62000000Y-66000000D03*
X76000000Y-58000000D03*
%TO.N,/BATTERY_ADC*%
X78000000Y-39000000D03*
X75000000Y-45000000D03*
%TO.N,+3V3*%
X82000000Y-59000000D03*
X71000000Y-69000000D03*
X68000000Y-72000000D03*
%TO.N,/SPI_MISO*%
X77000000Y-68000000D03*
X61000000Y-72000000D03*
%TO.N,/SPI_MOSI*%
X62000000Y-38000000D03*
X62000000Y-47000000D03*
%TO.N,/SPI_CS*%
X79000000Y-75000000D03*
%TD*%
%TO.N,/GPS_TX*%
D18*
X80000000Y-111000000D02*
X77627000Y-108627000D01*
X66915470Y-43180000D02*
X66040000Y-43180000D01*
X77627000Y-108627000D02*
X77627000Y-53891530D01*
X77627000Y-53891530D02*
X66915470Y-43180000D01*
%TO.N,/GPS_RX*%
X66040000Y-53340000D02*
X59000000Y-60380000D01*
X59000000Y-60380000D02*
X59000000Y-74000000D01*
X76000000Y-119000000D02*
X80000000Y-119000000D01*
%TO.N,GND*%
D19*
X73000000Y-56000000D02*
X75000000Y-56000000D01*
X76000000Y-58000000D02*
X76106400Y-57893600D01*
X63000000Y-66000000D02*
X73000000Y-56000000D01*
X76106400Y-57893600D02*
X76106400Y-57106400D01*
X62000000Y-66000000D02*
X63000000Y-66000000D01*
X76106400Y-57106400D02*
X75000000Y-56000000D01*
%TO.N,/BATTERY_ADC*%
X75000000Y-45000000D02*
X75810000Y-45000000D01*
X75810000Y-45000000D02*
X78000000Y-42810000D01*
X78000000Y-39000000D02*
X78000000Y-42810000D01*
%TO.N,+3V3*%
D20*
X68000000Y-72000000D02*
X71000000Y-69000000D01*
D21*
X82000000Y-59460000D02*
X79000000Y-62460000D01*
X82000000Y-59000000D02*
X82000000Y-59460000D01*
%TO.N,/SPI_MISO*%
D18*
X65000000Y-68000000D02*
X77000000Y-68000000D01*
X61000000Y-72000000D02*
X65000000Y-68000000D01*
%TO.N,/SPI_MOSI*%
X62000000Y-47000000D02*
X62000000Y-38000000D01*
%TO.N,/SPI_CS*%
D21*
X79000000Y-75000000D02*
X79000000Y-72620000D01*
%TD*%
%TA.AperFunction,Conductor*%
%TO.N,GND*%
G36*
X86442538Y-32414533D02*
G01*
X86488293Y-32467337D01*
X86499499Y-32518848D01*
X86499499Y-145738703D01*
X86479814Y-145805742D01*
X86427010Y-145851497D01*
X86375499Y-145862703D01*
X80187189Y-145862703D01*
X80120150Y-145843018D01*
X80074395Y-145790214D01*
X80064451Y-145721056D01*
X80093476Y-145657500D01*
X80148869Y-145620772D01*
X80264379Y-145583241D01*
X80488845Y-145468870D01*
X80692656Y-145320793D01*
X80870793Y-145142656D01*
X81018870Y-144938845D01*
X81133241Y-144714379D01*
X81211090Y-144474785D01*
X81250500Y-144225962D01*
X81250500Y-143974038D01*
X81211090Y-143725215D01*
X81133241Y-143485621D01*
X81133239Y-143485618D01*
X81133239Y-143485616D01*
X81075439Y-143372179D01*
X81018870Y-143261155D01*
X80974590Y-143200208D01*
X80870798Y-143057350D01*
X80870794Y-143057345D01*
X80778939Y-142965490D01*
X80745454Y-142904167D01*
X80743331Y-142864554D01*
X80747213Y-142828443D01*
X80750500Y-142797873D01*
X80750499Y-141202128D01*
X80744091Y-141142517D01*
X80743115Y-141139901D01*
X80693797Y-141007671D01*
X80693793Y-141007664D01*
X80607548Y-140892456D01*
X80607546Y-140892455D01*
X80607546Y-140892454D01*
X80569220Y-140863763D01*
X80527351Y-140807829D01*
X80522368Y-140738137D01*
X80543214Y-140691616D01*
X80569524Y-140655405D01*
X80658884Y-140480025D01*
X80719709Y-140292826D01*
X80734640Y-140198556D01*
X80750500Y-140098422D01*
X80750500Y-139901577D01*
X80719709Y-139707173D01*
X80658882Y-139519970D01*
X80569523Y-139344594D01*
X80453828Y-139185354D01*
X80356155Y-139087681D01*
X80322670Y-139026358D01*
X80327654Y-138956666D01*
X80356155Y-138912319D01*
X80374761Y-138893713D01*
X80453828Y-138814646D01*
X80569524Y-138655405D01*
X80658884Y-138480025D01*
X80719709Y-138292826D01*
X80719811Y-138292179D01*
X80750500Y-138098422D01*
X80750500Y-137901577D01*
X80719709Y-137707173D01*
X80658882Y-137519970D01*
X80567647Y-137340912D01*
X80554751Y-137272243D01*
X80581027Y-137207502D01*
X80605248Y-137184298D01*
X80692652Y-137120796D01*
X80692652Y-137120795D01*
X80692656Y-137120793D01*
X80870793Y-136942656D01*
X81018870Y-136738845D01*
X81133241Y-136514379D01*
X81211090Y-136274785D01*
X81250500Y-136025962D01*
X81250500Y-135774038D01*
X81211090Y-135525215D01*
X81133241Y-135285621D01*
X81133239Y-135285618D01*
X81133239Y-135285616D01*
X81081815Y-135184692D01*
X81018870Y-135061155D01*
X80938187Y-134950104D01*
X80870798Y-134857350D01*
X80870794Y-134857345D01*
X80692654Y-134679205D01*
X80692649Y-134679201D01*
X80488848Y-134531132D01*
X80488847Y-134531131D01*
X80488845Y-134531130D01*
X80418747Y-134495413D01*
X80264383Y-134416760D01*
X80024785Y-134338910D01*
X79775962Y-134299500D01*
X78224038Y-134299500D01*
X78099626Y-134319205D01*
X77975214Y-134338910D01*
X77735616Y-134416760D01*
X77511151Y-134531132D01*
X77307350Y-134679201D01*
X77307345Y-134679205D01*
X77129205Y-134857345D01*
X77129201Y-134857350D01*
X76981132Y-135061151D01*
X76866760Y-135285616D01*
X76788910Y-135525214D01*
X76749500Y-135774038D01*
X76749500Y-136025961D01*
X76788910Y-136274785D01*
X76866760Y-136514383D01*
X76981132Y-136738848D01*
X77129201Y-136942649D01*
X77129205Y-136942654D01*
X77307349Y-137120798D01*
X77394752Y-137184299D01*
X77437418Y-137239628D01*
X77443397Y-137309242D01*
X77432352Y-137340911D01*
X77341118Y-137519967D01*
X77280290Y-137707173D01*
X77249500Y-137901577D01*
X77249500Y-138098422D01*
X77280290Y-138292826D01*
X77341117Y-138480029D01*
X77430476Y-138655405D01*
X77546172Y-138814646D01*
X77546174Y-138814648D01*
X77643845Y-138912319D01*
X77677330Y-138973642D01*
X77672346Y-139043334D01*
X77643845Y-139087681D01*
X77546174Y-139185351D01*
X77546174Y-139185352D01*
X77546172Y-139185354D01*
X77496485Y-139253741D01*
X77430476Y-139344594D01*
X77341117Y-139519970D01*
X77280290Y-139707173D01*
X77249500Y-139901577D01*
X77249500Y-140098422D01*
X77280290Y-140292826D01*
X77341117Y-140480029D01*
X77430472Y-140655397D01*
X77430476Y-140655405D01*
X77456781Y-140691611D01*
X77456783Y-140691613D01*
X77480263Y-140757419D01*
X77464438Y-140825473D01*
X77430777Y-140863765D01*
X77392452Y-140892455D01*
X77306206Y-141007664D01*
X77306202Y-141007671D01*
X77255908Y-141142517D01*
X77251186Y-141186446D01*
X77249501Y-141202123D01*
X77249500Y-141202135D01*
X77249500Y-142797870D01*
X77249501Y-142797876D01*
X77256669Y-142864555D01*
X77244262Y-142933314D01*
X77221061Y-142965488D01*
X77129205Y-143057345D01*
X77129201Y-143057350D01*
X76981132Y-143261151D01*
X76866760Y-143485616D01*
X76788910Y-143725214D01*
X76749500Y-143974038D01*
X76749500Y-144225961D01*
X76788910Y-144474785D01*
X76866760Y-144714383D01*
X76981132Y-144938848D01*
X77129201Y-145142649D01*
X77129205Y-145142654D01*
X77307345Y-145320794D01*
X77307350Y-145320798D01*
X77458343Y-145430500D01*
X77511155Y-145468870D01*
X77654184Y-145541747D01*
X77735616Y-145583239D01*
X77735618Y-145583239D01*
X77735621Y-145583241D01*
X77851130Y-145620772D01*
X77908805Y-145660210D01*
X77936003Y-145724569D01*
X77924088Y-145793415D01*
X77876844Y-145844891D01*
X77812811Y-145862703D01*
X48884500Y-145862703D01*
X48817461Y-145843018D01*
X48771706Y-145790214D01*
X48760500Y-145738703D01*
X48760500Y-125402135D01*
X49789500Y-125402135D01*
X49789500Y-127197870D01*
X49789501Y-127197876D01*
X49795908Y-127257483D01*
X49846202Y-127392328D01*
X49846206Y-127392335D01*
X49932452Y-127507544D01*
X49932455Y-127507547D01*
X50047664Y-127593793D01*
X50047671Y-127593797D01*
X50179082Y-127642810D01*
X50235016Y-127684681D01*
X50259433Y-127750145D01*
X50244582Y-127818418D01*
X50223431Y-127846673D01*
X50109889Y-127960215D01*
X49984951Y-128132179D01*
X49888444Y-128321585D01*
X49822753Y-128523760D01*
X49789500Y-128733713D01*
X49789500Y-128946286D01*
X49822753Y-129156239D01*
X49888444Y-129358414D01*
X49984951Y-129547820D01*
X50109890Y-129719786D01*
X50260213Y-129870109D01*
X50432182Y-129995050D01*
X50440946Y-129999516D01*
X50491742Y-130047491D01*
X50508536Y-130115312D01*
X50485998Y-130181447D01*
X50440946Y-130220484D01*
X50432182Y-130224949D01*
X50260213Y-130349890D01*
X50109890Y-130500213D01*
X49984951Y-130672179D01*
X49888444Y-130861585D01*
X49822753Y-131063760D01*
X49789500Y-131273713D01*
X49789500Y-131486286D01*
X49822753Y-131696239D01*
X49888444Y-131898414D01*
X49984951Y-132087820D01*
X50109890Y-132259786D01*
X50260213Y-132410109D01*
X50432182Y-132535050D01*
X50440946Y-132539516D01*
X50491742Y-132587491D01*
X50508536Y-132655312D01*
X50485998Y-132721447D01*
X50440946Y-132760484D01*
X50432182Y-132764949D01*
X50260213Y-132889890D01*
X50109890Y-133040213D01*
X49984951Y-133212179D01*
X49888444Y-133401585D01*
X49822753Y-133603760D01*
X49789500Y-133813713D01*
X49789500Y-134026287D01*
X49822754Y-134236243D01*
X49881407Y-134416759D01*
X49888444Y-134438414D01*
X49984951Y-134627820D01*
X50109890Y-134799786D01*
X50260213Y-134950109D01*
X50432182Y-135075050D01*
X50440946Y-135079516D01*
X50491742Y-135127491D01*
X50508536Y-135195312D01*
X50485998Y-135261447D01*
X50440946Y-135300484D01*
X50432182Y-135304949D01*
X50260213Y-135429890D01*
X50109890Y-135580213D01*
X49984951Y-135752179D01*
X49888444Y-135941585D01*
X49822753Y-136143760D01*
X49789500Y-136353713D01*
X49789500Y-136566286D01*
X49816830Y-136738845D01*
X49822754Y-136776243D01*
X49876824Y-136942654D01*
X49888444Y-136978414D01*
X49984951Y-137167820D01*
X50109890Y-137339786D01*
X50260213Y-137490109D01*
X50432182Y-137615050D01*
X50440946Y-137619516D01*
X50491742Y-137667491D01*
X50508536Y-137735312D01*
X50485998Y-137801447D01*
X50440946Y-137840484D01*
X50432182Y-137844949D01*
X50260213Y-137969890D01*
X50109890Y-138120213D01*
X49984951Y-138292179D01*
X49888444Y-138481585D01*
X49822753Y-138683760D01*
X49789500Y-138893713D01*
X49789500Y-139106286D01*
X49822753Y-139316239D01*
X49888444Y-139518414D01*
X49984951Y-139707820D01*
X50109890Y-139879786D01*
X50260213Y-140030109D01*
X50432182Y-140155050D01*
X50440946Y-140159516D01*
X50491742Y-140207491D01*
X50508536Y-140275312D01*
X50485998Y-140341447D01*
X50440946Y-140380484D01*
X50432182Y-140384949D01*
X50260213Y-140509890D01*
X50109890Y-140660213D01*
X49984951Y-140832179D01*
X49888444Y-141021585D01*
X49822753Y-141223760D01*
X49789500Y-141433713D01*
X49789500Y-141646286D01*
X49822753Y-141856239D01*
X49888444Y-142058414D01*
X49984951Y-142247820D01*
X50109890Y-142419786D01*
X50260213Y-142570109D01*
X50432182Y-142695050D01*
X50440946Y-142699516D01*
X50491742Y-142747491D01*
X50508536Y-142815312D01*
X50485998Y-142881447D01*
X50440946Y-142920484D01*
X50432182Y-142924949D01*
X50260213Y-143049890D01*
X50109890Y-143200213D01*
X49984951Y-143372179D01*
X49888444Y-143561585D01*
X49822753Y-143763760D01*
X49789500Y-143973713D01*
X49789500Y-144186286D01*
X49822753Y-144396239D01*
X49888444Y-144598414D01*
X49984951Y-144787820D01*
X50109890Y-144959786D01*
X50260213Y-145110109D01*
X50432179Y-145235048D01*
X50432181Y-145235049D01*
X50432184Y-145235051D01*
X50621588Y-145331557D01*
X50823757Y-145397246D01*
X51033713Y-145430500D01*
X51033714Y-145430500D01*
X51246286Y-145430500D01*
X51246287Y-145430500D01*
X51456243Y-145397246D01*
X51658412Y-145331557D01*
X51847816Y-145235051D01*
X51974988Y-145142656D01*
X52019786Y-145110109D01*
X52019788Y-145110106D01*
X52019792Y-145110104D01*
X52170104Y-144959792D01*
X52170106Y-144959788D01*
X52170109Y-144959786D01*
X52295048Y-144787820D01*
X52295047Y-144787820D01*
X52295051Y-144787816D01*
X52391557Y-144598412D01*
X52457246Y-144396243D01*
X52490500Y-144186287D01*
X52490500Y-143973713D01*
X52457246Y-143763757D01*
X52391557Y-143561588D01*
X52295051Y-143372184D01*
X52295049Y-143372181D01*
X52295048Y-143372179D01*
X52170109Y-143200213D01*
X52019786Y-143049890D01*
X51847820Y-142924951D01*
X51847115Y-142924591D01*
X51839054Y-142920485D01*
X51788259Y-142872512D01*
X51771463Y-142804692D01*
X51793999Y-142738556D01*
X51839054Y-142699515D01*
X51847816Y-142695051D01*
X51902572Y-142655269D01*
X52019786Y-142570109D01*
X52019788Y-142570106D01*
X52019792Y-142570104D01*
X52170104Y-142419792D01*
X52170106Y-142419788D01*
X52170109Y-142419786D01*
X52295048Y-142247820D01*
X52295047Y-142247820D01*
X52295051Y-142247816D01*
X52391557Y-142058412D01*
X52457246Y-141856243D01*
X52490500Y-141646287D01*
X52490500Y-141433713D01*
X52457246Y-141223757D01*
X52391557Y-141021588D01*
X52295051Y-140832184D01*
X52295049Y-140832181D01*
X52295048Y-140832179D01*
X52170109Y-140660213D01*
X52019786Y-140509890D01*
X51847820Y-140384951D01*
X51839600Y-140380763D01*
X51839054Y-140380485D01*
X51788259Y-140332512D01*
X51771463Y-140264692D01*
X51793999Y-140198556D01*
X51839054Y-140159515D01*
X51847816Y-140155051D01*
X51925767Y-140098417D01*
X52019786Y-140030109D01*
X52019788Y-140030106D01*
X52019792Y-140030104D01*
X52170104Y-139879792D01*
X52170106Y-139879788D01*
X52170109Y-139879786D01*
X52295048Y-139707820D01*
X52295047Y-139707820D01*
X52295051Y-139707816D01*
X52391557Y-139518412D01*
X52457246Y-139316243D01*
X52490500Y-139106287D01*
X52490500Y-138893713D01*
X52457246Y-138683757D01*
X52391557Y-138481588D01*
X52295051Y-138292184D01*
X52295049Y-138292181D01*
X52295048Y-138292179D01*
X52170109Y-138120213D01*
X52019786Y-137969890D01*
X51847820Y-137844951D01*
X51847115Y-137844591D01*
X51839054Y-137840485D01*
X51788259Y-137792512D01*
X51771463Y-137724692D01*
X51793999Y-137658556D01*
X51839054Y-137619515D01*
X51847816Y-137615051D01*
X51978689Y-137519967D01*
X52019786Y-137490109D01*
X52019788Y-137490106D01*
X52019792Y-137490104D01*
X52170104Y-137339792D01*
X52170106Y-137339788D01*
X52170109Y-137339786D01*
X52295048Y-137167820D01*
X52295047Y-137167820D01*
X52295051Y-137167816D01*
X52391557Y-136978412D01*
X52457246Y-136776243D01*
X52490500Y-136566287D01*
X52490500Y-136353713D01*
X52457246Y-136143757D01*
X52391557Y-135941588D01*
X52295051Y-135752184D01*
X52295049Y-135752181D01*
X52295048Y-135752179D01*
X52170109Y-135580213D01*
X52019786Y-135429890D01*
X51847820Y-135304951D01*
X51847115Y-135304591D01*
X51839054Y-135300485D01*
X51788259Y-135252512D01*
X51771463Y-135184692D01*
X51793999Y-135118556D01*
X51839054Y-135079515D01*
X51847816Y-135075051D01*
X51869789Y-135059086D01*
X52019786Y-134950109D01*
X52019788Y-134950106D01*
X52019792Y-134950104D01*
X52170104Y-134799792D01*
X52170106Y-134799788D01*
X52170109Y-134799786D01*
X52295048Y-134627820D01*
X52295047Y-134627820D01*
X52295051Y-134627816D01*
X52391557Y-134438412D01*
X52457246Y-134236243D01*
X52490500Y-134026287D01*
X52490500Y-133813713D01*
X52457246Y-133603757D01*
X52391557Y-133401588D01*
X52295051Y-133212184D01*
X52295049Y-133212181D01*
X52295048Y-133212179D01*
X52170109Y-133040213D01*
X52019786Y-132889890D01*
X51847820Y-132764951D01*
X51847115Y-132764591D01*
X51839054Y-132760485D01*
X51788259Y-132712512D01*
X51771463Y-132644692D01*
X51793999Y-132578556D01*
X51839054Y-132539515D01*
X51847816Y-132535051D01*
X51869789Y-132519086D01*
X52019786Y-132410109D01*
X52019788Y-132410106D01*
X52019792Y-132410104D01*
X52170104Y-132259792D01*
X52170106Y-132259788D01*
X52170109Y-132259786D01*
X52295048Y-132087820D01*
X52295047Y-132087820D01*
X52295051Y-132087816D01*
X52391557Y-131898412D01*
X52457246Y-131696243D01*
X52490500Y-131486287D01*
X52490500Y-131273713D01*
X52457246Y-131063757D01*
X52391557Y-130861588D01*
X52295051Y-130672184D01*
X52295049Y-130672181D01*
X52295048Y-130672179D01*
X52170109Y-130500213D01*
X52019786Y-130349890D01*
X51847820Y-130224951D01*
X51847115Y-130224591D01*
X51839054Y-130220485D01*
X51788259Y-130172512D01*
X51771463Y-130104692D01*
X51793999Y-130038556D01*
X51839054Y-129999515D01*
X51847816Y-129995051D01*
X51869789Y-129979086D01*
X52019786Y-129870109D01*
X52019788Y-129870106D01*
X52019792Y-129870104D01*
X52170104Y-129719792D01*
X52170106Y-129719788D01*
X52170109Y-129719786D01*
X52295048Y-129547820D01*
X52295047Y-129547820D01*
X52295051Y-129547816D01*
X52391557Y-129358412D01*
X52457246Y-129156243D01*
X52490500Y-128946287D01*
X52490500Y-128733713D01*
X52457246Y-128523757D01*
X52391557Y-128321588D01*
X52295051Y-128132184D01*
X52295049Y-128132181D01*
X52295048Y-128132179D01*
X52170109Y-127960213D01*
X52056569Y-127846673D01*
X52023084Y-127785350D01*
X52028068Y-127715658D01*
X52069940Y-127659725D01*
X52100915Y-127642810D01*
X52232331Y-127593796D01*
X52347546Y-127507546D01*
X52433796Y-127392331D01*
X52484091Y-127257483D01*
X52490500Y-127197873D01*
X52490499Y-125402135D01*
X72649500Y-125402135D01*
X72649500Y-127197870D01*
X72649501Y-127197876D01*
X72655908Y-127257483D01*
X72706202Y-127392328D01*
X72706206Y-127392335D01*
X72792452Y-127507544D01*
X72792455Y-127507547D01*
X72907664Y-127593793D01*
X72907671Y-127593797D01*
X73039082Y-127642810D01*
X73095016Y-127684681D01*
X73119433Y-127750145D01*
X73104582Y-127818418D01*
X73083431Y-127846673D01*
X72969889Y-127960215D01*
X72844951Y-128132179D01*
X72748444Y-128321585D01*
X72682753Y-128523760D01*
X72649500Y-128733713D01*
X72649500Y-128946286D01*
X72682753Y-129156239D01*
X72748444Y-129358414D01*
X72844951Y-129547820D01*
X72969890Y-129719786D01*
X73120213Y-129870109D01*
X73292182Y-129995050D01*
X73300946Y-129999516D01*
X73351742Y-130047491D01*
X73368536Y-130115312D01*
X73345998Y-130181447D01*
X73300946Y-130220484D01*
X73292182Y-130224949D01*
X73120213Y-130349890D01*
X72969890Y-130500213D01*
X72844951Y-130672179D01*
X72748444Y-130861585D01*
X72682753Y-131063760D01*
X72649500Y-131273713D01*
X72649500Y-131486286D01*
X72682753Y-131696239D01*
X72748444Y-131898414D01*
X72844951Y-132087820D01*
X72969890Y-132259786D01*
X73120213Y-132410109D01*
X73292182Y-132535050D01*
X73300946Y-132539516D01*
X73351742Y-132587491D01*
X73368536Y-132655312D01*
X73345998Y-132721447D01*
X73300946Y-132760484D01*
X73292182Y-132764949D01*
X73120213Y-132889890D01*
X72969890Y-133040213D01*
X72844951Y-133212179D01*
X72748444Y-133401585D01*
X72682753Y-133603760D01*
X72649500Y-133813713D01*
X72649500Y-134026287D01*
X72682754Y-134236243D01*
X72741407Y-134416759D01*
X72748444Y-134438414D01*
X72844951Y-134627820D01*
X72969890Y-134799786D01*
X73120213Y-134950109D01*
X73292182Y-135075050D01*
X73300946Y-135079516D01*
X73351742Y-135127491D01*
X73368536Y-135195312D01*
X73345998Y-135261447D01*
X73300946Y-135300484D01*
X73292182Y-135304949D01*
X73120213Y-135429890D01*
X72969890Y-135580213D01*
X72844951Y-135752179D01*
X72748444Y-135941585D01*
X72682753Y-136143760D01*
X72649500Y-136353713D01*
X72649500Y-136566286D01*
X72676830Y-136738845D01*
X72682754Y-136776243D01*
X72736824Y-136942654D01*
X72748444Y-136978414D01*
X72844951Y-137167820D01*
X72969890Y-137339786D01*
X73120213Y-137490109D01*
X73292182Y-137615050D01*
X73300946Y-137619516D01*
X73351742Y-137667491D01*
X73368536Y-137735312D01*
X73345998Y-137801447D01*
X73300946Y-137840484D01*
X73292182Y-137844949D01*
X73120213Y-137969890D01*
X72969890Y-138120213D01*
X72844951Y-138292179D01*
X72748444Y-138481585D01*
X72682753Y-138683760D01*
X72649500Y-138893713D01*
X72649500Y-139106286D01*
X72682753Y-139316239D01*
X72748444Y-139518414D01*
X72844951Y-139707820D01*
X72969890Y-139879786D01*
X73120213Y-140030109D01*
X73292179Y-140155048D01*
X73292181Y-140155049D01*
X73292184Y-140155051D01*
X73301493Y-140159794D01*
X73352290Y-140207766D01*
X73369087Y-140275587D01*
X73346552Y-140341722D01*
X73301505Y-140380760D01*
X73292446Y-140385376D01*
X73292440Y-140385380D01*
X73238282Y-140424727D01*
X73238282Y-140424728D01*
X73870591Y-141057037D01*
X73807007Y-141074075D01*
X73692993Y-141139901D01*
X73599901Y-141232993D01*
X73534075Y-141347007D01*
X73517037Y-141410591D01*
X72884728Y-140778282D01*
X72884727Y-140778282D01*
X72845380Y-140832439D01*
X72748904Y-141021782D01*
X72683242Y-141223869D01*
X72683242Y-141223872D01*
X72650000Y-141433753D01*
X72650000Y-141646246D01*
X72683242Y-141856127D01*
X72683242Y-141856130D01*
X72748904Y-142058217D01*
X72845375Y-142247550D01*
X72884728Y-142301716D01*
X73517037Y-141669408D01*
X73534075Y-141732993D01*
X73599901Y-141847007D01*
X73692993Y-141940099D01*
X73807007Y-142005925D01*
X73870590Y-142022962D01*
X73238282Y-142655269D01*
X73238282Y-142655270D01*
X73292452Y-142694626D01*
X73292451Y-142694626D01*
X73301495Y-142699234D01*
X73352292Y-142747208D01*
X73369087Y-142815029D01*
X73346550Y-142881164D01*
X73301499Y-142920202D01*
X73292182Y-142924949D01*
X73120213Y-143049890D01*
X72969890Y-143200213D01*
X72844951Y-143372179D01*
X72748444Y-143561585D01*
X72682753Y-143763760D01*
X72649500Y-143973713D01*
X72649500Y-144186286D01*
X72682753Y-144396239D01*
X72748444Y-144598414D01*
X72844951Y-144787820D01*
X72969890Y-144959786D01*
X73120213Y-145110109D01*
X73292179Y-145235048D01*
X73292181Y-145235049D01*
X73292184Y-145235051D01*
X73481588Y-145331557D01*
X73683757Y-145397246D01*
X73893713Y-145430500D01*
X73893714Y-145430500D01*
X74106286Y-145430500D01*
X74106287Y-145430500D01*
X74316243Y-145397246D01*
X74518412Y-145331557D01*
X74707816Y-145235051D01*
X74834988Y-145142656D01*
X74879786Y-145110109D01*
X74879788Y-145110106D01*
X74879792Y-145110104D01*
X75030104Y-144959792D01*
X75030106Y-144959788D01*
X75030109Y-144959786D01*
X75155048Y-144787820D01*
X75155047Y-144787820D01*
X75155051Y-144787816D01*
X75251557Y-144598412D01*
X75317246Y-144396243D01*
X75350500Y-144186287D01*
X75350500Y-143973713D01*
X75317246Y-143763757D01*
X75251557Y-143561588D01*
X75155051Y-143372184D01*
X75155049Y-143372181D01*
X75155048Y-143372179D01*
X75030109Y-143200213D01*
X74879786Y-143049890D01*
X74707817Y-142924949D01*
X74698504Y-142920204D01*
X74647707Y-142872230D01*
X74630912Y-142804409D01*
X74653449Y-142738274D01*
X74698507Y-142699232D01*
X74707555Y-142694622D01*
X74761716Y-142655270D01*
X74761717Y-142655270D01*
X74129408Y-142022962D01*
X74192993Y-142005925D01*
X74307007Y-141940099D01*
X74400099Y-141847007D01*
X74465925Y-141732993D01*
X74482962Y-141669408D01*
X75115270Y-142301717D01*
X75115270Y-142301716D01*
X75154622Y-142247554D01*
X75251095Y-142058217D01*
X75316757Y-141856130D01*
X75316757Y-141856127D01*
X75350000Y-141646246D01*
X75350000Y-141433753D01*
X75316757Y-141223872D01*
X75316757Y-141223869D01*
X75251095Y-141021782D01*
X75154624Y-140832449D01*
X75115270Y-140778282D01*
X75115269Y-140778282D01*
X74482962Y-141410590D01*
X74465925Y-141347007D01*
X74400099Y-141232993D01*
X74307007Y-141139901D01*
X74192993Y-141074075D01*
X74129409Y-141057037D01*
X74761716Y-140424728D01*
X74707547Y-140385373D01*
X74707547Y-140385372D01*
X74698500Y-140380763D01*
X74647706Y-140332788D01*
X74630912Y-140264966D01*
X74653451Y-140198832D01*
X74698508Y-140159793D01*
X74707816Y-140155051D01*
X74787007Y-140097515D01*
X74879786Y-140030109D01*
X74879788Y-140030106D01*
X74879792Y-140030104D01*
X75030104Y-139879792D01*
X75030106Y-139879788D01*
X75030109Y-139879786D01*
X75155048Y-139707820D01*
X75155047Y-139707820D01*
X75155051Y-139707816D01*
X75251557Y-139518412D01*
X75317246Y-139316243D01*
X75350500Y-139106287D01*
X75350500Y-138893713D01*
X75317246Y-138683757D01*
X75251557Y-138481588D01*
X75155051Y-138292184D01*
X75155049Y-138292181D01*
X75155048Y-138292179D01*
X75030109Y-138120213D01*
X74879786Y-137969890D01*
X74707820Y-137844951D01*
X74707115Y-137844591D01*
X74699054Y-137840485D01*
X74648259Y-137792512D01*
X74631463Y-137724692D01*
X74653999Y-137658556D01*
X74699054Y-137619515D01*
X74707816Y-137615051D01*
X74838689Y-137519967D01*
X74879786Y-137490109D01*
X74879788Y-137490106D01*
X74879792Y-137490104D01*
X75030104Y-137339792D01*
X75030106Y-137339788D01*
X75030109Y-137339786D01*
X75155048Y-137167820D01*
X75155047Y-137167820D01*
X75155051Y-137167816D01*
X75251557Y-136978412D01*
X75317246Y-136776243D01*
X75350500Y-136566287D01*
X75350500Y-136353713D01*
X75317246Y-136143757D01*
X75251557Y-135941588D01*
X75155051Y-135752184D01*
X75155049Y-135752181D01*
X75155048Y-135752179D01*
X75030109Y-135580213D01*
X74879786Y-135429890D01*
X74707820Y-135304951D01*
X74707115Y-135304591D01*
X74699054Y-135300485D01*
X74648259Y-135252512D01*
X74631463Y-135184692D01*
X74653999Y-135118556D01*
X74699054Y-135079515D01*
X74707816Y-135075051D01*
X74729789Y-135059086D01*
X74879786Y-134950109D01*
X74879788Y-134950106D01*
X74879792Y-134950104D01*
X75030104Y-134799792D01*
X75030106Y-134799788D01*
X75030109Y-134799786D01*
X75155048Y-134627820D01*
X75155047Y-134627820D01*
X75155051Y-134627816D01*
X75251557Y-134438412D01*
X75317246Y-134236243D01*
X75350500Y-134026287D01*
X75350500Y-133813713D01*
X75317246Y-133603757D01*
X75251557Y-133401588D01*
X75155051Y-133212184D01*
X75155049Y-133212181D01*
X75155048Y-133212179D01*
X75030109Y-133040213D01*
X74879786Y-132889890D01*
X74707820Y-132764951D01*
X74707115Y-132764591D01*
X74699054Y-132760485D01*
X74648259Y-132712512D01*
X74631463Y-132644692D01*
X74653999Y-132578556D01*
X74699054Y-132539515D01*
X74707816Y-132535051D01*
X74729789Y-132519086D01*
X74879786Y-132410109D01*
X74879788Y-132410106D01*
X74879792Y-132410104D01*
X75030104Y-132259792D01*
X75030106Y-132259788D01*
X75030109Y-132259786D01*
X75155048Y-132087820D01*
X75155047Y-132087820D01*
X75155051Y-132087816D01*
X75251557Y-131898412D01*
X75317246Y-131696243D01*
X75350500Y-131486287D01*
X75350500Y-131273713D01*
X75317246Y-131063757D01*
X75251557Y-130861588D01*
X75155051Y-130672184D01*
X75155049Y-130672181D01*
X75155048Y-130672179D01*
X75030109Y-130500213D01*
X74879786Y-130349890D01*
X74707820Y-130224951D01*
X74707115Y-130224591D01*
X74699054Y-130220485D01*
X74691205Y-130213071D01*
X74681088Y-130209304D01*
X74666250Y-130189503D01*
X74648259Y-130172512D01*
X74645663Y-130162030D01*
X74639189Y-130153391D01*
X74637411Y-130128711D01*
X74631463Y-130104692D01*
X74632334Y-130102135D01*
X77649500Y-130102135D01*
X77649500Y-131897870D01*
X77649501Y-131897876D01*
X77655908Y-131957483D01*
X77706202Y-132092328D01*
X77706206Y-132092335D01*
X77792452Y-132207544D01*
X77792455Y-132207547D01*
X77907664Y-132293793D01*
X77907671Y-132293797D01*
X78042517Y-132344091D01*
X78042516Y-132344091D01*
X78049444Y-132344835D01*
X78102127Y-132350500D01*
X79897872Y-132350499D01*
X79957483Y-132344091D01*
X80092331Y-132293796D01*
X80207546Y-132207546D01*
X80293796Y-132092331D01*
X80344091Y-131957483D01*
X80350500Y-131897873D01*
X80350499Y-130102128D01*
X80344091Y-130042517D01*
X80339506Y-130030225D01*
X80293797Y-129907671D01*
X80293793Y-129907664D01*
X80207547Y-129792455D01*
X80207544Y-129792452D01*
X80092335Y-129706206D01*
X80092328Y-129706202D01*
X79957482Y-129655908D01*
X79957483Y-129655908D01*
X79897883Y-129649501D01*
X79897881Y-129649500D01*
X79897873Y-129649500D01*
X79897864Y-129649500D01*
X78102129Y-129649500D01*
X78102123Y-129649501D01*
X78042516Y-129655908D01*
X77907671Y-129706202D01*
X77907664Y-129706206D01*
X77792455Y-129792452D01*
X77792452Y-129792455D01*
X77706206Y-129907664D01*
X77706202Y-129907671D01*
X77655908Y-130042517D01*
X77651481Y-130083702D01*
X77649501Y-130102123D01*
X77649500Y-130102135D01*
X74632334Y-130102135D01*
X74634945Y-130094471D01*
X74634170Y-130083702D01*
X74646017Y-130061978D01*
X74653999Y-130038556D01*
X74663335Y-130030225D01*
X74667624Y-130022362D01*
X74692032Y-130004619D01*
X74695868Y-130001197D01*
X74697433Y-130000341D01*
X74707816Y-129995051D01*
X74709965Y-129993490D01*
X74879786Y-129870109D01*
X74879788Y-129870106D01*
X74879792Y-129870104D01*
X75030104Y-129719792D01*
X75030106Y-129719788D01*
X75030109Y-129719786D01*
X75155048Y-129547820D01*
X75155047Y-129547820D01*
X75155051Y-129547816D01*
X75251557Y-129358412D01*
X75317246Y-129156243D01*
X75350500Y-128946287D01*
X75350500Y-128733713D01*
X75317246Y-128523757D01*
X75251557Y-128321588D01*
X75155051Y-128132184D01*
X75155049Y-128132181D01*
X75155048Y-128132179D01*
X75030109Y-127960213D01*
X74916569Y-127846673D01*
X74883084Y-127785350D01*
X74888068Y-127715658D01*
X74929940Y-127659725D01*
X74960915Y-127642810D01*
X75092331Y-127593796D01*
X75207546Y-127507546D01*
X75293796Y-127392331D01*
X75344091Y-127257483D01*
X75350500Y-127197873D01*
X75350499Y-125402128D01*
X75344091Y-125342517D01*
X75293796Y-125207669D01*
X75293795Y-125207668D01*
X75293793Y-125207664D01*
X75207547Y-125092455D01*
X75207544Y-125092452D01*
X75092335Y-125006206D01*
X75092328Y-125006202D01*
X74957482Y-124955908D01*
X74957483Y-124955908D01*
X74897883Y-124949501D01*
X74897881Y-124949500D01*
X74897873Y-124949500D01*
X74897864Y-124949500D01*
X73102129Y-124949500D01*
X73102123Y-124949501D01*
X73042516Y-124955908D01*
X72907671Y-125006202D01*
X72907664Y-125006206D01*
X72792455Y-125092452D01*
X72792452Y-125092455D01*
X72706206Y-125207664D01*
X72706202Y-125207671D01*
X72655908Y-125342517D01*
X72649501Y-125402116D01*
X72649501Y-125402123D01*
X72649500Y-125402135D01*
X52490499Y-125402135D01*
X52490499Y-125402128D01*
X52484091Y-125342517D01*
X52433796Y-125207669D01*
X52433795Y-125207668D01*
X52433793Y-125207664D01*
X52347547Y-125092455D01*
X52347544Y-125092452D01*
X52232335Y-125006206D01*
X52232328Y-125006202D01*
X52097482Y-124955908D01*
X52097483Y-124955908D01*
X52037883Y-124949501D01*
X52037881Y-124949500D01*
X52037873Y-124949500D01*
X52037864Y-124949500D01*
X50242129Y-124949500D01*
X50242123Y-124949501D01*
X50182516Y-124955908D01*
X50047671Y-125006202D01*
X50047664Y-125006206D01*
X49932455Y-125092452D01*
X49932452Y-125092455D01*
X49846206Y-125207664D01*
X49846202Y-125207671D01*
X49795908Y-125342517D01*
X49789501Y-125402116D01*
X49789501Y-125402123D01*
X49789500Y-125402135D01*
X48760500Y-125402135D01*
X48760500Y-118921153D01*
X75199500Y-118921153D01*
X75199500Y-119078846D01*
X75230261Y-119233489D01*
X75230264Y-119233501D01*
X75290602Y-119379172D01*
X75290609Y-119379185D01*
X75378210Y-119510288D01*
X75378213Y-119510292D01*
X75489707Y-119621786D01*
X75489711Y-119621789D01*
X75620814Y-119709390D01*
X75620827Y-119709397D01*
X75766498Y-119769735D01*
X75766503Y-119769737D01*
X75921153Y-119800499D01*
X75921156Y-119800500D01*
X75921158Y-119800500D01*
X76078844Y-119800500D01*
X76078845Y-119800499D01*
X76233497Y-119769737D01*
X76379179Y-119709394D01*
X76470466Y-119648398D01*
X76537143Y-119627520D01*
X76539357Y-119627500D01*
X79460643Y-119627500D01*
X79527682Y-119647185D01*
X79529534Y-119648398D01*
X79620814Y-119709390D01*
X79620827Y-119709397D01*
X79766498Y-119769735D01*
X79766503Y-119769737D01*
X79921153Y-119800499D01*
X79921156Y-119800500D01*
X79921158Y-119800500D01*
X80078844Y-119800500D01*
X80078845Y-119800499D01*
X80233497Y-119769737D01*
X80379179Y-119709394D01*
X80510289Y-119621789D01*
X80621789Y-119510289D01*
X80709394Y-119379179D01*
X80769737Y-119233497D01*
X80800500Y-119078842D01*
X80800500Y-118921158D01*
X80800500Y-118921155D01*
X80800499Y-118921153D01*
X80769738Y-118766510D01*
X80769737Y-118766503D01*
X80769735Y-118766498D01*
X80709397Y-118620827D01*
X80709390Y-118620814D01*
X80621789Y-118489711D01*
X80621786Y-118489707D01*
X80510292Y-118378213D01*
X80510288Y-118378210D01*
X80379185Y-118290609D01*
X80379172Y-118290602D01*
X80233501Y-118230264D01*
X80233489Y-118230261D01*
X80078845Y-118199500D01*
X80078842Y-118199500D01*
X79921158Y-118199500D01*
X79921155Y-118199500D01*
X79766510Y-118230261D01*
X79766498Y-118230264D01*
X79620827Y-118290602D01*
X79620814Y-118290609D01*
X79529534Y-118351602D01*
X79462857Y-118372480D01*
X79460643Y-118372500D01*
X76539357Y-118372500D01*
X76472318Y-118352815D01*
X76470466Y-118351602D01*
X76379185Y-118290609D01*
X76379172Y-118290602D01*
X76233501Y-118230264D01*
X76233489Y-118230261D01*
X76078845Y-118199500D01*
X76078842Y-118199500D01*
X75921158Y-118199500D01*
X75921155Y-118199500D01*
X75766510Y-118230261D01*
X75766498Y-118230264D01*
X75620827Y-118290602D01*
X75620814Y-118290609D01*
X75489711Y-118378210D01*
X75489707Y-118378213D01*
X75378213Y-118489707D01*
X75378210Y-118489711D01*
X75290609Y-118620814D01*
X75290602Y-118620827D01*
X75230264Y-118766498D01*
X75230261Y-118766510D01*
X75199500Y-118921153D01*
X48760500Y-118921153D01*
X48760500Y-76893713D01*
X53869500Y-76893713D01*
X53869500Y-77106286D01*
X53902753Y-77316239D01*
X53968444Y-77518414D01*
X54064951Y-77707820D01*
X54189890Y-77879786D01*
X54340213Y-78030109D01*
X54512179Y-78155048D01*
X54512181Y-78155049D01*
X54512184Y-78155051D01*
X54701588Y-78251557D01*
X54903757Y-78317246D01*
X55113713Y-78350500D01*
X55113714Y-78350500D01*
X55326286Y-78350500D01*
X55326287Y-78350500D01*
X55536243Y-78317246D01*
X55738412Y-78251557D01*
X55927816Y-78155051D01*
X56014138Y-78092335D01*
X56099786Y-78030109D01*
X56099788Y-78030106D01*
X56099792Y-78030104D01*
X56250104Y-77879792D01*
X56250106Y-77879788D01*
X56250109Y-77879786D01*
X56375048Y-77707820D01*
X56375047Y-77707820D01*
X56375051Y-77707816D01*
X56379514Y-77699054D01*
X56427488Y-77648259D01*
X56495308Y-77631463D01*
X56561444Y-77653999D01*
X56600486Y-77699056D01*
X56604951Y-77707820D01*
X56729890Y-77879786D01*
X56880213Y-78030109D01*
X57052179Y-78155048D01*
X57052181Y-78155049D01*
X57052184Y-78155051D01*
X57241588Y-78251557D01*
X57443757Y-78317246D01*
X57653713Y-78350500D01*
X57653714Y-78350500D01*
X57866286Y-78350500D01*
X57866287Y-78350500D01*
X58076243Y-78317246D01*
X58278412Y-78251557D01*
X58467816Y-78155051D01*
X58554138Y-78092335D01*
X58639786Y-78030109D01*
X58639788Y-78030106D01*
X58639792Y-78030104D01*
X58790104Y-77879792D01*
X58790106Y-77879788D01*
X58790109Y-77879786D01*
X58915048Y-77707820D01*
X58915047Y-77707820D01*
X58915051Y-77707816D01*
X58919514Y-77699054D01*
X58967488Y-77648259D01*
X59035308Y-77631463D01*
X59101444Y-77653999D01*
X59140486Y-77699056D01*
X59144951Y-77707820D01*
X59269890Y-77879786D01*
X59420213Y-78030109D01*
X59592179Y-78155048D01*
X59592181Y-78155049D01*
X59592184Y-78155051D01*
X59781588Y-78251557D01*
X59983757Y-78317246D01*
X60193713Y-78350500D01*
X60193714Y-78350500D01*
X60406286Y-78350500D01*
X60406287Y-78350500D01*
X60616243Y-78317246D01*
X60818412Y-78251557D01*
X61007816Y-78155051D01*
X61094138Y-78092335D01*
X61179786Y-78030109D01*
X61179788Y-78030106D01*
X61179792Y-78030104D01*
X61330104Y-77879792D01*
X61330106Y-77879788D01*
X61330109Y-77879786D01*
X61455048Y-77707820D01*
X61455047Y-77707820D01*
X61455051Y-77707816D01*
X61459514Y-77699054D01*
X61507488Y-77648259D01*
X61575308Y-77631463D01*
X61641444Y-77653999D01*
X61680486Y-77699056D01*
X61684951Y-77707820D01*
X61809890Y-77879786D01*
X61960213Y-78030109D01*
X62132179Y-78155048D01*
X62132181Y-78155049D01*
X62132184Y-78155051D01*
X62321588Y-78251557D01*
X62523757Y-78317246D01*
X62733713Y-78350500D01*
X62733714Y-78350500D01*
X62946286Y-78350500D01*
X62946287Y-78350500D01*
X63156243Y-78317246D01*
X63358412Y-78251557D01*
X63547816Y-78155051D01*
X63634138Y-78092335D01*
X63719786Y-78030109D01*
X63719788Y-78030106D01*
X63719792Y-78030104D01*
X63870104Y-77879792D01*
X63870106Y-77879788D01*
X63870109Y-77879786D01*
X63995048Y-77707820D01*
X63995047Y-77707820D01*
X63995051Y-77707816D01*
X63999514Y-77699054D01*
X64047488Y-77648259D01*
X64115308Y-77631463D01*
X64181444Y-77653999D01*
X64220486Y-77699056D01*
X64224951Y-77707820D01*
X64349890Y-77879786D01*
X64500213Y-78030109D01*
X64672179Y-78155048D01*
X64672181Y-78155049D01*
X64672184Y-78155051D01*
X64861588Y-78251557D01*
X65063757Y-78317246D01*
X65273713Y-78350500D01*
X65273714Y-78350500D01*
X65486286Y-78350500D01*
X65486287Y-78350500D01*
X65696243Y-78317246D01*
X65898412Y-78251557D01*
X66087816Y-78155051D01*
X66174138Y-78092335D01*
X66259786Y-78030109D01*
X66259788Y-78030106D01*
X66259792Y-78030104D01*
X66410104Y-77879792D01*
X66410106Y-77879788D01*
X66410109Y-77879786D01*
X66535048Y-77707820D01*
X66535047Y-77707820D01*
X66535051Y-77707816D01*
X66539514Y-77699054D01*
X66587488Y-77648259D01*
X66655308Y-77631463D01*
X66721444Y-77653999D01*
X66760486Y-77699056D01*
X66764951Y-77707820D01*
X66889890Y-77879786D01*
X67040213Y-78030109D01*
X67212179Y-78155048D01*
X67212181Y-78155049D01*
X67212184Y-78155051D01*
X67401588Y-78251557D01*
X67603757Y-78317246D01*
X67813713Y-78350500D01*
X67813714Y-78350500D01*
X68026286Y-78350500D01*
X68026287Y-78350500D01*
X68236243Y-78317246D01*
X68438412Y-78251557D01*
X68627816Y-78155051D01*
X68714138Y-78092335D01*
X68799786Y-78030109D01*
X68799788Y-78030106D01*
X68799792Y-78030104D01*
X68950104Y-77879792D01*
X68950106Y-77879788D01*
X68950109Y-77879786D01*
X69017515Y-77787007D01*
X69075051Y-77707816D01*
X69079793Y-77698508D01*
X69127763Y-77647711D01*
X69195583Y-77630911D01*
X69261719Y-77653445D01*
X69300763Y-77698500D01*
X69305373Y-77707547D01*
X69344728Y-77761716D01*
X69977037Y-77129408D01*
X69994075Y-77192993D01*
X70059901Y-77307007D01*
X70152993Y-77400099D01*
X70267007Y-77465925D01*
X70330590Y-77482962D01*
X69698282Y-78115269D01*
X69698282Y-78115270D01*
X69752449Y-78154624D01*
X69941782Y-78251095D01*
X70143870Y-78316757D01*
X70353754Y-78350000D01*
X70566246Y-78350000D01*
X70776127Y-78316757D01*
X70776130Y-78316757D01*
X70978217Y-78251095D01*
X71167554Y-78154622D01*
X71221716Y-78115270D01*
X71221717Y-78115270D01*
X70589408Y-77482962D01*
X70652993Y-77465925D01*
X70767007Y-77400099D01*
X70860099Y-77307007D01*
X70925925Y-77192993D01*
X70942962Y-77129408D01*
X71613181Y-77799628D01*
X71646666Y-77860951D01*
X71649500Y-77887300D01*
X71649500Y-77897865D01*
X71649501Y-77897876D01*
X71655908Y-77957483D01*
X71706202Y-78092328D01*
X71706206Y-78092335D01*
X71792452Y-78207544D01*
X71792455Y-78207547D01*
X71907664Y-78293793D01*
X71907671Y-78293797D01*
X72042517Y-78344091D01*
X72042516Y-78344091D01*
X72049444Y-78344835D01*
X72102127Y-78350500D01*
X73897872Y-78350499D01*
X73957483Y-78344091D01*
X74092331Y-78293796D01*
X74207546Y-78207546D01*
X74293796Y-78092331D01*
X74344091Y-77957483D01*
X74350500Y-77897873D01*
X74350499Y-76102128D01*
X74344091Y-76042517D01*
X74293796Y-75907669D01*
X74293795Y-75907668D01*
X74293793Y-75907664D01*
X74207547Y-75792455D01*
X74207544Y-75792452D01*
X74092335Y-75706206D01*
X74092328Y-75706202D01*
X73957482Y-75655908D01*
X73957483Y-75655908D01*
X73897883Y-75649501D01*
X73897881Y-75649500D01*
X73897873Y-75649500D01*
X73897864Y-75649500D01*
X72102129Y-75649500D01*
X72102123Y-75649501D01*
X72042516Y-75655908D01*
X71907671Y-75706202D01*
X71907664Y-75706206D01*
X71792455Y-75792452D01*
X71792452Y-75792455D01*
X71706206Y-75907664D01*
X71706202Y-75907671D01*
X71655908Y-76042517D01*
X71649501Y-76102116D01*
X71649501Y-76102123D01*
X71649500Y-76102135D01*
X71649500Y-76112690D01*
X71629815Y-76179729D01*
X71613181Y-76200371D01*
X70942962Y-76870590D01*
X70925925Y-76807007D01*
X70860099Y-76692993D01*
X70767007Y-76599901D01*
X70652993Y-76534075D01*
X70589409Y-76517037D01*
X71221716Y-75884728D01*
X71167550Y-75845375D01*
X70978217Y-75748904D01*
X70776129Y-75683242D01*
X70566246Y-75650000D01*
X70353754Y-75650000D01*
X70143872Y-75683242D01*
X70143869Y-75683242D01*
X69941782Y-75748904D01*
X69752439Y-75845380D01*
X69698282Y-75884727D01*
X69698282Y-75884728D01*
X70330591Y-76517037D01*
X70267007Y-76534075D01*
X70152993Y-76599901D01*
X70059901Y-76692993D01*
X69994075Y-76807007D01*
X69977037Y-76870591D01*
X69344728Y-76238282D01*
X69344727Y-76238282D01*
X69305380Y-76292440D01*
X69305376Y-76292446D01*
X69300760Y-76301505D01*
X69252781Y-76352297D01*
X69184959Y-76369087D01*
X69118826Y-76346543D01*
X69079794Y-76301493D01*
X69075051Y-76292184D01*
X69075049Y-76292181D01*
X69075048Y-76292179D01*
X68950109Y-76120213D01*
X68799786Y-75969890D01*
X68627820Y-75844951D01*
X68438414Y-75748444D01*
X68438413Y-75748443D01*
X68438412Y-75748443D01*
X68236243Y-75682754D01*
X68236241Y-75682753D01*
X68236240Y-75682753D01*
X68074957Y-75657208D01*
X68026287Y-75649500D01*
X67813713Y-75649500D01*
X67765042Y-75657208D01*
X67603760Y-75682753D01*
X67401585Y-75748444D01*
X67212179Y-75844951D01*
X67040213Y-75969890D01*
X66889890Y-76120213D01*
X66764949Y-76292182D01*
X66760484Y-76300946D01*
X66712509Y-76351742D01*
X66644688Y-76368536D01*
X66578553Y-76345998D01*
X66539516Y-76300946D01*
X66535050Y-76292182D01*
X66410109Y-76120213D01*
X66259786Y-75969890D01*
X66087820Y-75844951D01*
X65898414Y-75748444D01*
X65898413Y-75748443D01*
X65898412Y-75748443D01*
X65696243Y-75682754D01*
X65696241Y-75682753D01*
X65696240Y-75682753D01*
X65534957Y-75657208D01*
X65486287Y-75649500D01*
X65273713Y-75649500D01*
X65225042Y-75657208D01*
X65063760Y-75682753D01*
X64861585Y-75748444D01*
X64672179Y-75844951D01*
X64500213Y-75969890D01*
X64349890Y-76120213D01*
X64224949Y-76292182D01*
X64220484Y-76300946D01*
X64172509Y-76351742D01*
X64104688Y-76368536D01*
X64038553Y-76345998D01*
X63999516Y-76300946D01*
X63995050Y-76292182D01*
X63870109Y-76120213D01*
X63719786Y-75969890D01*
X63547820Y-75844951D01*
X63358414Y-75748444D01*
X63358413Y-75748443D01*
X63358412Y-75748443D01*
X63156243Y-75682754D01*
X63156241Y-75682753D01*
X63156240Y-75682753D01*
X62994957Y-75657208D01*
X62946287Y-75649500D01*
X62733713Y-75649500D01*
X62685042Y-75657208D01*
X62523760Y-75682753D01*
X62321585Y-75748444D01*
X62132179Y-75844951D01*
X61960213Y-75969890D01*
X61809890Y-76120213D01*
X61684949Y-76292182D01*
X61680484Y-76300946D01*
X61632509Y-76351742D01*
X61564688Y-76368536D01*
X61498553Y-76345998D01*
X61459516Y-76300946D01*
X61455050Y-76292182D01*
X61330109Y-76120213D01*
X61179786Y-75969890D01*
X61007820Y-75844951D01*
X60818414Y-75748444D01*
X60818413Y-75748443D01*
X60818412Y-75748443D01*
X60616243Y-75682754D01*
X60616241Y-75682753D01*
X60616240Y-75682753D01*
X60454957Y-75657208D01*
X60406287Y-75649500D01*
X60193713Y-75649500D01*
X60145042Y-75657208D01*
X59983760Y-75682753D01*
X59781585Y-75748444D01*
X59592179Y-75844951D01*
X59420213Y-75969890D01*
X59269890Y-76120213D01*
X59144949Y-76292182D01*
X59140484Y-76300946D01*
X59092509Y-76351742D01*
X59024688Y-76368536D01*
X58958553Y-76345998D01*
X58919516Y-76300946D01*
X58915050Y-76292182D01*
X58790109Y-76120213D01*
X58639786Y-75969890D01*
X58467820Y-75844951D01*
X58278414Y-75748444D01*
X58278413Y-75748443D01*
X58278412Y-75748443D01*
X58076243Y-75682754D01*
X58076241Y-75682753D01*
X58076240Y-75682753D01*
X57914957Y-75657208D01*
X57866287Y-75649500D01*
X57653713Y-75649500D01*
X57605042Y-75657208D01*
X57443760Y-75682753D01*
X57241585Y-75748444D01*
X57052179Y-75844951D01*
X56880213Y-75969890D01*
X56729890Y-76120213D01*
X56604949Y-76292182D01*
X56600484Y-76300946D01*
X56552509Y-76351742D01*
X56484688Y-76368536D01*
X56418553Y-76345998D01*
X56379516Y-76300946D01*
X56375050Y-76292182D01*
X56250109Y-76120213D01*
X56099786Y-75969890D01*
X55927820Y-75844951D01*
X55738414Y-75748444D01*
X55738413Y-75748443D01*
X55738412Y-75748443D01*
X55536243Y-75682754D01*
X55536241Y-75682753D01*
X55536240Y-75682753D01*
X55374957Y-75657208D01*
X55326287Y-75649500D01*
X55113713Y-75649500D01*
X55065042Y-75657208D01*
X54903760Y-75682753D01*
X54701585Y-75748444D01*
X54512179Y-75844951D01*
X54340213Y-75969890D01*
X54189890Y-76120213D01*
X54064951Y-76292179D01*
X53968444Y-76481585D01*
X53902753Y-76683760D01*
X53869500Y-76893713D01*
X48760500Y-76893713D01*
X48760500Y-73921153D01*
X58199500Y-73921153D01*
X58199500Y-74078846D01*
X58230261Y-74233489D01*
X58230264Y-74233501D01*
X58290602Y-74379172D01*
X58290609Y-74379185D01*
X58378210Y-74510288D01*
X58378213Y-74510292D01*
X58489707Y-74621786D01*
X58489711Y-74621789D01*
X58620814Y-74709390D01*
X58620827Y-74709397D01*
X58758683Y-74766498D01*
X58766503Y-74769737D01*
X58921153Y-74800499D01*
X58921156Y-74800500D01*
X58921158Y-74800500D01*
X59078844Y-74800500D01*
X59078845Y-74800499D01*
X59233497Y-74769737D01*
X59379179Y-74709394D01*
X59510289Y-74621789D01*
X59621789Y-74510289D01*
X59709394Y-74379179D01*
X59769737Y-74233497D01*
X59800500Y-74078842D01*
X59800500Y-73921158D01*
X59800500Y-73921155D01*
X59800499Y-73921153D01*
X59782314Y-73829731D01*
X59769737Y-73766503D01*
X59761937Y-73747672D01*
X59709397Y-73620827D01*
X59709390Y-73620814D01*
X59648398Y-73529533D01*
X59627520Y-73462855D01*
X59627500Y-73460642D01*
X59627500Y-60691280D01*
X59647185Y-60624241D01*
X59663814Y-60603604D01*
X65584298Y-54683119D01*
X65645619Y-54649636D01*
X65710298Y-54652872D01*
X65723757Y-54657246D01*
X65933713Y-54690500D01*
X65933714Y-54690500D01*
X66146286Y-54690500D01*
X66146287Y-54690500D01*
X66356243Y-54657246D01*
X66558412Y-54591557D01*
X66747816Y-54495051D01*
X66769789Y-54479086D01*
X66919786Y-54370109D01*
X66919788Y-54370106D01*
X66919792Y-54370104D01*
X67070104Y-54219792D01*
X67070106Y-54219788D01*
X67070109Y-54219786D01*
X67195048Y-54047820D01*
X67195047Y-54047820D01*
X67195051Y-54047816D01*
X67291557Y-53858412D01*
X67357246Y-53656243D01*
X67390500Y-53446287D01*
X67390500Y-53399983D01*
X71699500Y-53399983D01*
X71699500Y-54600001D01*
X71699501Y-54600018D01*
X71710000Y-54702796D01*
X71710001Y-54702799D01*
X71765185Y-54869331D01*
X71765187Y-54869336D01*
X71857289Y-55018657D01*
X71926510Y-55087878D01*
X71959995Y-55149201D01*
X71955011Y-55218893D01*
X71939148Y-55248444D01*
X71888139Y-55318651D01*
X71795244Y-55500968D01*
X71732009Y-55695582D01*
X71700000Y-55897682D01*
X71700000Y-56102317D01*
X71732009Y-56304417D01*
X71795244Y-56499031D01*
X71888141Y-56681350D01*
X71888147Y-56681359D01*
X71920523Y-56725921D01*
X71920524Y-56725922D01*
X72600000Y-56046446D01*
X72600000Y-56052661D01*
X72627259Y-56154394D01*
X72679920Y-56245606D01*
X72754394Y-56320080D01*
X72845606Y-56372741D01*
X72947339Y-56400000D01*
X72953553Y-56400000D01*
X72274076Y-57079474D01*
X72318650Y-57111859D01*
X72500968Y-57204755D01*
X72695582Y-57267990D01*
X72897683Y-57300000D01*
X73102317Y-57300000D01*
X73304417Y-57267990D01*
X73499031Y-57204755D01*
X73681349Y-57111859D01*
X73725921Y-57079474D01*
X73046447Y-56400000D01*
X73052661Y-56400000D01*
X73154394Y-56372741D01*
X73245606Y-56320080D01*
X73320080Y-56245606D01*
X73372741Y-56154394D01*
X73400000Y-56052661D01*
X73400000Y-56046447D01*
X74079474Y-56725921D01*
X74111859Y-56681349D01*
X74204755Y-56499031D01*
X74267990Y-56304417D01*
X74300000Y-56102317D01*
X74300000Y-55897682D01*
X74267990Y-55695582D01*
X74204755Y-55500968D01*
X74111857Y-55318646D01*
X74060853Y-55248446D01*
X74037372Y-55182640D01*
X74053197Y-55114586D01*
X74073489Y-55087879D01*
X74073490Y-55087878D01*
X74142712Y-55018656D01*
X74234814Y-54869334D01*
X74289999Y-54702797D01*
X74300500Y-54600009D01*
X74300499Y-53399992D01*
X74289999Y-53297203D01*
X74234814Y-53130666D01*
X74142712Y-52981344D01*
X74018656Y-52857288D01*
X73869334Y-52765186D01*
X73702797Y-52710001D01*
X73702795Y-52710000D01*
X73600010Y-52699500D01*
X72399998Y-52699500D01*
X72399981Y-52699501D01*
X72297203Y-52710000D01*
X72297200Y-52710001D01*
X72130668Y-52765185D01*
X72130663Y-52765187D01*
X71981342Y-52857289D01*
X71857289Y-52981342D01*
X71765187Y-53130663D01*
X71765186Y-53130666D01*
X71710001Y-53297203D01*
X71710001Y-53297204D01*
X71710000Y-53297204D01*
X71699500Y-53399983D01*
X67390500Y-53399983D01*
X67390500Y-53233713D01*
X67357246Y-53023757D01*
X67291557Y-52821588D01*
X67195051Y-52632184D01*
X67195049Y-52632181D01*
X67195048Y-52632179D01*
X67070109Y-52460213D01*
X66919786Y-52309890D01*
X66747820Y-52184951D01*
X66747115Y-52184591D01*
X66739054Y-52180485D01*
X66734991Y-52176647D01*
X66729608Y-52175139D01*
X66709866Y-52152918D01*
X66688259Y-52132512D01*
X66686915Y-52127085D01*
X66683202Y-52122906D01*
X66678607Y-52093542D01*
X66671463Y-52064692D01*
X66673266Y-52059400D01*
X66672402Y-52053876D01*
X66684413Y-52026687D01*
X66693999Y-51998556D01*
X66698971Y-51993732D01*
X66700636Y-51989965D01*
X66712769Y-51980348D01*
X66727021Y-51966524D01*
X66732839Y-51962682D01*
X66747816Y-51955051D01*
X66823588Y-51900000D01*
X66919786Y-51830109D01*
X66919788Y-51830106D01*
X66919792Y-51830104D01*
X67070104Y-51679792D01*
X67070106Y-51679788D01*
X67070109Y-51679786D01*
X67195048Y-51507820D01*
X67195047Y-51507820D01*
X67195051Y-51507816D01*
X67291557Y-51318412D01*
X67357246Y-51116243D01*
X67390500Y-50906287D01*
X67390500Y-50693713D01*
X67357246Y-50483757D01*
X67291557Y-50281588D01*
X67195051Y-50092184D01*
X67195049Y-50092181D01*
X67195048Y-50092179D01*
X67070109Y-49920213D01*
X66919786Y-49769890D01*
X66747820Y-49644951D01*
X66747115Y-49644591D01*
X66739054Y-49640485D01*
X66688259Y-49592512D01*
X66671463Y-49524692D01*
X66693999Y-49458556D01*
X66739054Y-49419515D01*
X66747816Y-49415051D01*
X66769789Y-49399086D01*
X66919786Y-49290109D01*
X66919788Y-49290106D01*
X66919792Y-49290104D01*
X67070104Y-49139792D01*
X67070106Y-49139788D01*
X67070109Y-49139786D01*
X67195048Y-48967820D01*
X67195047Y-48967820D01*
X67195051Y-48967816D01*
X67291557Y-48778412D01*
X67357246Y-48576243D01*
X67390500Y-48366287D01*
X67390500Y-48153713D01*
X67357246Y-47943757D01*
X67291557Y-47741588D01*
X67195051Y-47552184D01*
X67195049Y-47552181D01*
X67195048Y-47552179D01*
X67070109Y-47380213D01*
X66919786Y-47229890D01*
X66747820Y-47104951D01*
X66747115Y-47104591D01*
X66739054Y-47100485D01*
X66688259Y-47052512D01*
X66671463Y-46984692D01*
X66693999Y-46918556D01*
X66739054Y-46879515D01*
X66747816Y-46875051D01*
X66844875Y-46804534D01*
X66919786Y-46750109D01*
X66919788Y-46750106D01*
X66919792Y-46750104D01*
X67070104Y-46599792D01*
X67070106Y-46599788D01*
X67070109Y-46599786D01*
X67195048Y-46427820D01*
X67195047Y-46427820D01*
X67195051Y-46427816D01*
X67291557Y-46238412D01*
X67357246Y-46036243D01*
X67390500Y-45826287D01*
X67390500Y-45613713D01*
X67357246Y-45403757D01*
X67291557Y-45201588D01*
X67195051Y-45012184D01*
X67195049Y-45012181D01*
X67195048Y-45012179D01*
X67070109Y-44840213D01*
X66919786Y-44689890D01*
X66747820Y-44564951D01*
X66747115Y-44564591D01*
X66739054Y-44560485D01*
X66688259Y-44512512D01*
X66671463Y-44444692D01*
X66693999Y-44378556D01*
X66739054Y-44339515D01*
X66747816Y-44335051D01*
X66914253Y-44214127D01*
X66980057Y-44190649D01*
X67048111Y-44206474D01*
X67074817Y-44226766D01*
X72362080Y-49514029D01*
X72395565Y-49575352D01*
X72390581Y-49645044D01*
X72348709Y-49700977D01*
X72283245Y-49725394D01*
X72255001Y-49724183D01*
X72102317Y-49700000D01*
X71897683Y-49700000D01*
X71695582Y-49732009D01*
X71500968Y-49795244D01*
X71318644Y-49888143D01*
X71274077Y-49920523D01*
X71274077Y-49920524D01*
X71953554Y-50600000D01*
X71947339Y-50600000D01*
X71845606Y-50627259D01*
X71754394Y-50679920D01*
X71679920Y-50754394D01*
X71627259Y-50845606D01*
X71600000Y-50947339D01*
X71600000Y-50953553D01*
X70920524Y-50274077D01*
X70920523Y-50274077D01*
X70888143Y-50318644D01*
X70795244Y-50500968D01*
X70732009Y-50695582D01*
X70700000Y-50897682D01*
X70700000Y-51102317D01*
X70732009Y-51304417D01*
X70795244Y-51499031D01*
X70888141Y-51681350D01*
X70888147Y-51681359D01*
X70920523Y-51725921D01*
X70920524Y-51725922D01*
X71600000Y-51046446D01*
X71600000Y-51052661D01*
X71627259Y-51154394D01*
X71679920Y-51245606D01*
X71754394Y-51320080D01*
X71845606Y-51372741D01*
X71947339Y-51400000D01*
X71953553Y-51400000D01*
X71274076Y-52079474D01*
X71318650Y-52111859D01*
X71500968Y-52204755D01*
X71695582Y-52267990D01*
X71897683Y-52300000D01*
X72102317Y-52300000D01*
X72304417Y-52267990D01*
X72499031Y-52204755D01*
X72681349Y-52111859D01*
X72725921Y-52079474D01*
X72046447Y-51400000D01*
X72052661Y-51400000D01*
X72154394Y-51372741D01*
X72245606Y-51320080D01*
X72320080Y-51245606D01*
X72372741Y-51154394D01*
X72400000Y-51052661D01*
X72400000Y-51046446D01*
X73079474Y-51725921D01*
X73111859Y-51681349D01*
X73204755Y-51499031D01*
X73267990Y-51304417D01*
X73300000Y-51102317D01*
X73300000Y-50897683D01*
X73275816Y-50744999D01*
X73284770Y-50675705D01*
X73329766Y-50622253D01*
X73396517Y-50601613D01*
X73463831Y-50620337D01*
X73485970Y-50637919D01*
X76963181Y-54115130D01*
X76996666Y-54176453D01*
X76999500Y-54202811D01*
X76999500Y-67082152D01*
X76979815Y-67149191D01*
X76927011Y-67194946D01*
X76899692Y-67203769D01*
X76766508Y-67230261D01*
X76766498Y-67230264D01*
X76620827Y-67290602D01*
X76620814Y-67290609D01*
X76529534Y-67351602D01*
X76462857Y-67372480D01*
X76460643Y-67372500D01*
X64938195Y-67372500D01*
X64816970Y-67396613D01*
X64816960Y-67396616D01*
X64702773Y-67443913D01*
X64702760Y-67443920D01*
X64599992Y-67512588D01*
X64599988Y-67512591D01*
X60937672Y-71174907D01*
X60876349Y-71208392D01*
X60874183Y-71208843D01*
X60766508Y-71230261D01*
X60766498Y-71230264D01*
X60620827Y-71290602D01*
X60620814Y-71290609D01*
X60489711Y-71378210D01*
X60489707Y-71378213D01*
X60378213Y-71489707D01*
X60378210Y-71489711D01*
X60290609Y-71620814D01*
X60290602Y-71620827D01*
X60230264Y-71766498D01*
X60230261Y-71766510D01*
X60199500Y-71921153D01*
X60199500Y-72078846D01*
X60230261Y-72233489D01*
X60230264Y-72233501D01*
X60290602Y-72379172D01*
X60290609Y-72379185D01*
X60378210Y-72510288D01*
X60378213Y-72510292D01*
X60489707Y-72621786D01*
X60489711Y-72621789D01*
X60620814Y-72709390D01*
X60620827Y-72709397D01*
X60766498Y-72769735D01*
X60766503Y-72769737D01*
X60921153Y-72800499D01*
X60921156Y-72800500D01*
X60921158Y-72800500D01*
X61078844Y-72800500D01*
X61078845Y-72800499D01*
X61233497Y-72769737D01*
X61368904Y-72713650D01*
X61379172Y-72709397D01*
X61379172Y-72709396D01*
X61379179Y-72709394D01*
X61510289Y-72621789D01*
X61621789Y-72510289D01*
X61709394Y-72379179D01*
X61769737Y-72233497D01*
X61791156Y-72125812D01*
X61823539Y-72063906D01*
X61825035Y-72062382D01*
X65223600Y-68663819D01*
X65284923Y-68630334D01*
X65311281Y-68627500D01*
X69934272Y-68627500D01*
X70001311Y-68647185D01*
X70047066Y-68699989D01*
X70057010Y-68769147D01*
X70027985Y-68832703D01*
X70021953Y-68839181D01*
X67374485Y-71486647D01*
X67374482Y-71486651D01*
X67286350Y-71618549D01*
X67286349Y-71618551D01*
X67225648Y-71765098D01*
X67225645Y-71765108D01*
X67194699Y-71920682D01*
X67194699Y-71920685D01*
X67194699Y-72079315D01*
X67194699Y-72079317D01*
X67194698Y-72079317D01*
X67225645Y-72234891D01*
X67225648Y-72234901D01*
X67286349Y-72381448D01*
X67286350Y-72381450D01*
X67374482Y-72513348D01*
X67374485Y-72513352D01*
X67486647Y-72625514D01*
X67486651Y-72625517D01*
X67618547Y-72713648D01*
X67618548Y-72713648D01*
X67618549Y-72713649D01*
X67618551Y-72713650D01*
X67649060Y-72726287D01*
X67765103Y-72774353D01*
X67765107Y-72774353D01*
X67765108Y-72774354D01*
X67920682Y-72805301D01*
X67920685Y-72805301D01*
X68079317Y-72805301D01*
X68183982Y-72784480D01*
X68234897Y-72774353D01*
X68381453Y-72713648D01*
X68513349Y-72625517D01*
X71625517Y-69513349D01*
X71713648Y-69381453D01*
X71774354Y-69234897D01*
X71805301Y-69079315D01*
X71805301Y-68920684D01*
X71795509Y-68871457D01*
X71776461Y-68775691D01*
X71782688Y-68706099D01*
X71825551Y-68650922D01*
X71891441Y-68627678D01*
X71898078Y-68627500D01*
X76460643Y-68627500D01*
X76527682Y-68647185D01*
X76529534Y-68648398D01*
X76620814Y-68709390D01*
X76620827Y-68709397D01*
X76766498Y-68769735D01*
X76766503Y-68769737D01*
X76876199Y-68791557D01*
X76899691Y-68796230D01*
X76961602Y-68828615D01*
X76996176Y-68889330D01*
X76999500Y-68917847D01*
X76999500Y-108688807D01*
X77023612Y-108810027D01*
X77023614Y-108810035D01*
X77043170Y-108857247D01*
X77070915Y-108924229D01*
X77070920Y-108924239D01*
X77139588Y-109027007D01*
X77139591Y-109027011D01*
X79174907Y-111062326D01*
X79208392Y-111123649D01*
X79208843Y-111125815D01*
X79230261Y-111233491D01*
X79230264Y-111233501D01*
X79290602Y-111379172D01*
X79290609Y-111379185D01*
X79378210Y-111510288D01*
X79378213Y-111510292D01*
X79489707Y-111621786D01*
X79489711Y-111621789D01*
X79620814Y-111709390D01*
X79620827Y-111709397D01*
X79766498Y-111769735D01*
X79766503Y-111769737D01*
X79921153Y-111800499D01*
X79921156Y-111800500D01*
X79921158Y-111800500D01*
X80078844Y-111800500D01*
X80078845Y-111800499D01*
X80233497Y-111769737D01*
X80379179Y-111709394D01*
X80510289Y-111621789D01*
X80621789Y-111510289D01*
X80709394Y-111379179D01*
X80769737Y-111233497D01*
X80800500Y-111078842D01*
X80800500Y-110921158D01*
X80800500Y-110921155D01*
X80800499Y-110921153D01*
X80769738Y-110766510D01*
X80769737Y-110766503D01*
X80769735Y-110766498D01*
X80709397Y-110620827D01*
X80709390Y-110620814D01*
X80621789Y-110489711D01*
X80621786Y-110489707D01*
X80510292Y-110378213D01*
X80510288Y-110378210D01*
X80379185Y-110290609D01*
X80379172Y-110290602D01*
X80233501Y-110230264D01*
X80233491Y-110230261D01*
X80125815Y-110208843D01*
X80063904Y-110176458D01*
X80062326Y-110174907D01*
X78290819Y-108403400D01*
X78257334Y-108342077D01*
X78254500Y-108315719D01*
X78254500Y-104102135D01*
X82649500Y-104102135D01*
X82649500Y-105897870D01*
X82649501Y-105897876D01*
X82655908Y-105957483D01*
X82706202Y-106092328D01*
X82706206Y-106092335D01*
X82792452Y-106207544D01*
X82792455Y-106207547D01*
X82907664Y-106293793D01*
X82907671Y-106293797D01*
X83039082Y-106342810D01*
X83095016Y-106384681D01*
X83119433Y-106450145D01*
X83104582Y-106518418D01*
X83083431Y-106546673D01*
X82969889Y-106660215D01*
X82844951Y-106832179D01*
X82748444Y-107021585D01*
X82682753Y-107223760D01*
X82649500Y-107433713D01*
X82649500Y-107646286D01*
X82682753Y-107856239D01*
X82748444Y-108058414D01*
X82844951Y-108247820D01*
X82969890Y-108419786D01*
X83120213Y-108570109D01*
X83292182Y-108695050D01*
X83300946Y-108699516D01*
X83351742Y-108747491D01*
X83368536Y-108815312D01*
X83345998Y-108881447D01*
X83300946Y-108920484D01*
X83292182Y-108924949D01*
X83120213Y-109049890D01*
X82969890Y-109200213D01*
X82844951Y-109372179D01*
X82748444Y-109561585D01*
X82682753Y-109763760D01*
X82649500Y-109973713D01*
X82649500Y-110186287D01*
X82682754Y-110396243D01*
X82713122Y-110489707D01*
X82748444Y-110598414D01*
X82844951Y-110787820D01*
X82969890Y-110959786D01*
X83120213Y-111110109D01*
X83292179Y-111235048D01*
X83292181Y-111235049D01*
X83292184Y-111235051D01*
X83301493Y-111239794D01*
X83352290Y-111287766D01*
X83369087Y-111355587D01*
X83346552Y-111421722D01*
X83301505Y-111460760D01*
X83292446Y-111465376D01*
X83292440Y-111465380D01*
X83238282Y-111504727D01*
X83238282Y-111504728D01*
X83870591Y-112137037D01*
X83807007Y-112154075D01*
X83692993Y-112219901D01*
X83599901Y-112312993D01*
X83534075Y-112427007D01*
X83517037Y-112490591D01*
X82884728Y-111858282D01*
X82884727Y-111858282D01*
X82845380Y-111912439D01*
X82748904Y-112101782D01*
X82683242Y-112303869D01*
X82683242Y-112303872D01*
X82650000Y-112513753D01*
X82650000Y-112726246D01*
X82683242Y-112936127D01*
X82683242Y-112936130D01*
X82748904Y-113138217D01*
X82845375Y-113327550D01*
X82884728Y-113381716D01*
X83517037Y-112749408D01*
X83534075Y-112812993D01*
X83599901Y-112927007D01*
X83692993Y-113020099D01*
X83807007Y-113085925D01*
X83870590Y-113102962D01*
X83238282Y-113735269D01*
X83238282Y-113735270D01*
X83292449Y-113774624D01*
X83481782Y-113871095D01*
X83683870Y-113936757D01*
X83893754Y-113970000D01*
X84106246Y-113970000D01*
X84316127Y-113936757D01*
X84316130Y-113936757D01*
X84518217Y-113871095D01*
X84707554Y-113774622D01*
X84761716Y-113735270D01*
X84761717Y-113735270D01*
X84129408Y-113102962D01*
X84192993Y-113085925D01*
X84307007Y-113020099D01*
X84400099Y-112927007D01*
X84465925Y-112812993D01*
X84482962Y-112749408D01*
X85115270Y-113381717D01*
X85115270Y-113381716D01*
X85154622Y-113327554D01*
X85251095Y-113138217D01*
X85316757Y-112936130D01*
X85316757Y-112936127D01*
X85350000Y-112726246D01*
X85350000Y-112513753D01*
X85316757Y-112303872D01*
X85316757Y-112303869D01*
X85251095Y-112101782D01*
X85154624Y-111912449D01*
X85115270Y-111858282D01*
X85115269Y-111858282D01*
X84482962Y-112490590D01*
X84465925Y-112427007D01*
X84400099Y-112312993D01*
X84307007Y-112219901D01*
X84192993Y-112154075D01*
X84129409Y-112137037D01*
X84761716Y-111504728D01*
X84707547Y-111465373D01*
X84707547Y-111465372D01*
X84698500Y-111460763D01*
X84647706Y-111412788D01*
X84630912Y-111344966D01*
X84653451Y-111278832D01*
X84698508Y-111239793D01*
X84707816Y-111235051D01*
X84861149Y-111123649D01*
X84879786Y-111110109D01*
X84879788Y-111110106D01*
X84879792Y-111110104D01*
X85030104Y-110959792D01*
X85030106Y-110959788D01*
X85030109Y-110959786D01*
X85155048Y-110787820D01*
X85155047Y-110787820D01*
X85155051Y-110787816D01*
X85251557Y-110598412D01*
X85317246Y-110396243D01*
X85350500Y-110186287D01*
X85350500Y-109973713D01*
X85317246Y-109763757D01*
X85251557Y-109561588D01*
X85155051Y-109372184D01*
X85155049Y-109372181D01*
X85155048Y-109372179D01*
X85030109Y-109200213D01*
X84879786Y-109049890D01*
X84707820Y-108924951D01*
X84707115Y-108924591D01*
X84699054Y-108920485D01*
X84648259Y-108872512D01*
X84631463Y-108804692D01*
X84653999Y-108738556D01*
X84699054Y-108699515D01*
X84707816Y-108695051D01*
X84729789Y-108679086D01*
X84879786Y-108570109D01*
X84879788Y-108570106D01*
X84879792Y-108570104D01*
X85030104Y-108419792D01*
X85030106Y-108419788D01*
X85030109Y-108419786D01*
X85155048Y-108247820D01*
X85155047Y-108247820D01*
X85155051Y-108247816D01*
X85251557Y-108058412D01*
X85317246Y-107856243D01*
X85350500Y-107646287D01*
X85350500Y-107433713D01*
X85317246Y-107223757D01*
X85251557Y-107021588D01*
X85155051Y-106832184D01*
X85155049Y-106832181D01*
X85155048Y-106832179D01*
X85030109Y-106660213D01*
X84916569Y-106546673D01*
X84883084Y-106485350D01*
X84888068Y-106415658D01*
X84929940Y-106359725D01*
X84960915Y-106342810D01*
X85092331Y-106293796D01*
X85207546Y-106207546D01*
X85293796Y-106092331D01*
X85344091Y-105957483D01*
X85350500Y-105897873D01*
X85350499Y-104102128D01*
X85344091Y-104042517D01*
X85293796Y-103907669D01*
X85293795Y-103907668D01*
X85293793Y-103907664D01*
X85207547Y-103792455D01*
X85207544Y-103792452D01*
X85092335Y-103706206D01*
X85092328Y-103706202D01*
X84957482Y-103655908D01*
X84957483Y-103655908D01*
X84897883Y-103649501D01*
X84897881Y-103649500D01*
X84897873Y-103649500D01*
X84897864Y-103649500D01*
X83102129Y-103649500D01*
X83102123Y-103649501D01*
X83042516Y-103655908D01*
X82907671Y-103706202D01*
X82907664Y-103706206D01*
X82792455Y-103792452D01*
X82792452Y-103792455D01*
X82706206Y-103907664D01*
X82706202Y-103907671D01*
X82655908Y-104042517D01*
X82649501Y-104102116D01*
X82649501Y-104102123D01*
X82649500Y-104102135D01*
X78254500Y-104102135D01*
X78254500Y-75685941D01*
X78274185Y-75618902D01*
X78326989Y-75573147D01*
X78396147Y-75563203D01*
X78459703Y-75592228D01*
X78466181Y-75598260D01*
X78489707Y-75621786D01*
X78489711Y-75621789D01*
X78620814Y-75709390D01*
X78620827Y-75709397D01*
X78716207Y-75748904D01*
X78766503Y-75769737D01*
X78921153Y-75800499D01*
X78921156Y-75800500D01*
X78921158Y-75800500D01*
X79078844Y-75800500D01*
X79078845Y-75800499D01*
X79233497Y-75769737D01*
X79379179Y-75709394D01*
X79510289Y-75621789D01*
X79621789Y-75510289D01*
X79709394Y-75379179D01*
X79769737Y-75233497D01*
X79800500Y-75078842D01*
X79800500Y-74921158D01*
X79800500Y-74921155D01*
X79800499Y-74921153D01*
X79769738Y-74766510D01*
X79769737Y-74766503D01*
X79709794Y-74621786D01*
X79709397Y-74620827D01*
X79709390Y-74620814D01*
X79621398Y-74489125D01*
X79600520Y-74422447D01*
X79600500Y-74420234D01*
X79600500Y-73905718D01*
X79620185Y-73838679D01*
X79668207Y-73795233D01*
X79707815Y-73775052D01*
X79707815Y-73775051D01*
X79707816Y-73775051D01*
X79799193Y-73708661D01*
X79879786Y-73650109D01*
X79879788Y-73650106D01*
X79879792Y-73650104D01*
X80030104Y-73499792D01*
X80030106Y-73499788D01*
X80030109Y-73499786D01*
X80155048Y-73327820D01*
X80155047Y-73327820D01*
X80155051Y-73327816D01*
X80251557Y-73138412D01*
X80317246Y-72936243D01*
X80350500Y-72726287D01*
X80350500Y-72513713D01*
X80317246Y-72303757D01*
X80251557Y-72101588D01*
X80155051Y-71912184D01*
X80155049Y-71912181D01*
X80155048Y-71912179D01*
X80030109Y-71740213D01*
X79879786Y-71589890D01*
X79707820Y-71464951D01*
X79707115Y-71464591D01*
X79699054Y-71460485D01*
X79648259Y-71412512D01*
X79631463Y-71344692D01*
X79653999Y-71278556D01*
X79699054Y-71239515D01*
X79707816Y-71235051D01*
X79729789Y-71219086D01*
X79879786Y-71110109D01*
X79879788Y-71110106D01*
X79879792Y-71110104D01*
X80030104Y-70959792D01*
X80030106Y-70959788D01*
X80030109Y-70959786D01*
X80155048Y-70787820D01*
X80155047Y-70787820D01*
X80155051Y-70787816D01*
X80251557Y-70598412D01*
X80317246Y-70396243D01*
X80350500Y-70186287D01*
X80350500Y-69973713D01*
X80317246Y-69763757D01*
X80251557Y-69561588D01*
X80155051Y-69372184D01*
X80155049Y-69372181D01*
X80155048Y-69372179D01*
X80030109Y-69200213D01*
X79879786Y-69049890D01*
X79708384Y-68925361D01*
X79708380Y-68925359D01*
X79707816Y-68924949D01*
X79698516Y-68920210D01*
X79697973Y-68919927D01*
X79673238Y-68896103D01*
X79648259Y-68872512D01*
X79648106Y-68871896D01*
X79647650Y-68871457D01*
X79639721Y-68838038D01*
X79635910Y-68822648D01*
X81224500Y-68822648D01*
X81224500Y-69027351D01*
X81256522Y-69229534D01*
X81319781Y-69424223D01*
X81412715Y-69606613D01*
X81533028Y-69772213D01*
X81677786Y-69916971D01*
X81832749Y-70029556D01*
X81843390Y-70037287D01*
X81959607Y-70096503D01*
X82025776Y-70130218D01*
X82025778Y-70130218D01*
X82025781Y-70130220D01*
X82130137Y-70164127D01*
X82220465Y-70193477D01*
X82321557Y-70209488D01*
X82422648Y-70225500D01*
X82422649Y-70225500D01*
X82627351Y-70225500D01*
X82627352Y-70225500D01*
X82829534Y-70193477D01*
X83024219Y-70130220D01*
X83206610Y-70037287D01*
X83299590Y-69969732D01*
X83372213Y-69916971D01*
X83372215Y-69916968D01*
X83372219Y-69916966D01*
X83516966Y-69772219D01*
X83516968Y-69772215D01*
X83516971Y-69772213D01*
X83569732Y-69699590D01*
X83637287Y-69606610D01*
X83730220Y-69424219D01*
X83793477Y-69229534D01*
X83825500Y-69027352D01*
X83825500Y-68822648D01*
X83817026Y-68769147D01*
X83793477Y-68620465D01*
X83730218Y-68425776D01*
X83696503Y-68359607D01*
X83637287Y-68243390D01*
X83629556Y-68232749D01*
X83516971Y-68077786D01*
X83372213Y-67933028D01*
X83206613Y-67812715D01*
X83206612Y-67812714D01*
X83206610Y-67812713D01*
X83149653Y-67783691D01*
X83024223Y-67719781D01*
X82829534Y-67656522D01*
X82654995Y-67628878D01*
X82627352Y-67624500D01*
X82422648Y-67624500D01*
X82398329Y-67628351D01*
X82220465Y-67656522D01*
X82025776Y-67719781D01*
X81843386Y-67812715D01*
X81677786Y-67933028D01*
X81533028Y-68077786D01*
X81412715Y-68243386D01*
X81319781Y-68425776D01*
X81256522Y-68620465D01*
X81224500Y-68822648D01*
X79635910Y-68822648D01*
X79631463Y-68804692D01*
X79631667Y-68804091D01*
X79631521Y-68803474D01*
X79642928Y-68771045D01*
X79653999Y-68738556D01*
X79654513Y-68738110D01*
X79654706Y-68737563D01*
X79659016Y-68734208D01*
X79699054Y-68699515D01*
X79707816Y-68695051D01*
X79745500Y-68667672D01*
X79879786Y-68570109D01*
X79879788Y-68570106D01*
X79879792Y-68570104D01*
X80030104Y-68419792D01*
X80030106Y-68419788D01*
X80030109Y-68419786D01*
X80155048Y-68247820D01*
X80155047Y-68247820D01*
X80155051Y-68247816D01*
X80251557Y-68058412D01*
X80317246Y-67856243D01*
X80350500Y-67646287D01*
X80350500Y-67433713D01*
X80317246Y-67223757D01*
X80251557Y-67021588D01*
X80155051Y-66832184D01*
X80155049Y-66832181D01*
X80155048Y-66832179D01*
X80030109Y-66660213D01*
X79879786Y-66509890D01*
X79707820Y-66384951D01*
X79707115Y-66384591D01*
X79699054Y-66380485D01*
X79648259Y-66332512D01*
X79631463Y-66264692D01*
X79653999Y-66198556D01*
X79699054Y-66159515D01*
X79707816Y-66155051D01*
X79745500Y-66127672D01*
X79879786Y-66030109D01*
X79879788Y-66030106D01*
X79879792Y-66030104D01*
X80030104Y-65879792D01*
X80030106Y-65879788D01*
X80030109Y-65879786D01*
X80155048Y-65707820D01*
X80155047Y-65707820D01*
X80155051Y-65707816D01*
X80251557Y-65518412D01*
X80317246Y-65316243D01*
X80350500Y-65106287D01*
X80350500Y-64893713D01*
X80317246Y-64683757D01*
X80251557Y-64481588D01*
X80155051Y-64292184D01*
X80155049Y-64292181D01*
X80155048Y-64292179D01*
X80030109Y-64120213D01*
X79879786Y-63969890D01*
X79707820Y-63844951D01*
X79707115Y-63844591D01*
X79699054Y-63840485D01*
X79648259Y-63792512D01*
X79631463Y-63724692D01*
X79653999Y-63658556D01*
X79699054Y-63619515D01*
X79707816Y-63615051D01*
X79745500Y-63587672D01*
X79879786Y-63490109D01*
X79879788Y-63490106D01*
X79879792Y-63490104D01*
X80030104Y-63339792D01*
X80030106Y-63339788D01*
X80030109Y-63339786D01*
X80155048Y-63167820D01*
X80155047Y-63167820D01*
X80155051Y-63167816D01*
X80251557Y-62978412D01*
X80317246Y-62776243D01*
X80350500Y-62566287D01*
X80350500Y-62353713D01*
X80317246Y-62143757D01*
X80303506Y-62101473D01*
X80301512Y-62031635D01*
X80333755Y-61975478D01*
X81012820Y-61296414D01*
X81074142Y-61262930D01*
X81143834Y-61267914D01*
X81199767Y-61309786D01*
X81224184Y-61375250D01*
X81224500Y-61384096D01*
X81224500Y-61407351D01*
X81256522Y-61609534D01*
X81319781Y-61804223D01*
X81412715Y-61986613D01*
X81533028Y-62152213D01*
X81677786Y-62296971D01*
X81832749Y-62409556D01*
X81843390Y-62417287D01*
X81959607Y-62476503D01*
X82025776Y-62510218D01*
X82025778Y-62510218D01*
X82025781Y-62510220D01*
X82130137Y-62544127D01*
X82220465Y-62573477D01*
X82321557Y-62589488D01*
X82422648Y-62605500D01*
X82422649Y-62605500D01*
X82627351Y-62605500D01*
X82627352Y-62605500D01*
X82829534Y-62573477D01*
X83024219Y-62510220D01*
X83206610Y-62417287D01*
X83299590Y-62349732D01*
X83372213Y-62296971D01*
X83372215Y-62296968D01*
X83372219Y-62296966D01*
X83516966Y-62152219D01*
X83516968Y-62152215D01*
X83516971Y-62152213D01*
X83569732Y-62079590D01*
X83637287Y-61986610D01*
X83730220Y-61804219D01*
X83793477Y-61609534D01*
X83825500Y-61407352D01*
X83825500Y-61202648D01*
X83793477Y-61000466D01*
X83730220Y-60805781D01*
X83730218Y-60805778D01*
X83730218Y-60805776D01*
X83696503Y-60739607D01*
X83637287Y-60623390D01*
X83622908Y-60603599D01*
X83516971Y-60457786D01*
X83372213Y-60313028D01*
X83206613Y-60192715D01*
X83206612Y-60192714D01*
X83206610Y-60192713D01*
X83149653Y-60163691D01*
X83024223Y-60099781D01*
X82829534Y-60036522D01*
X82654995Y-60008878D01*
X82627352Y-60004500D01*
X82593805Y-60004500D01*
X82526766Y-59984815D01*
X82481011Y-59932011D01*
X82471067Y-59862853D01*
X82486418Y-59818500D01*
X82539241Y-59727007D01*
X82559577Y-59691784D01*
X82594695Y-59560721D01*
X82618619Y-59514150D01*
X82621781Y-59510296D01*
X82621789Y-59510289D01*
X82709394Y-59379179D01*
X82769737Y-59233497D01*
X82800500Y-59078842D01*
X82800500Y-58921158D01*
X82800500Y-58921155D01*
X82800499Y-58921153D01*
X82769738Y-58766510D01*
X82769737Y-58766503D01*
X82747498Y-58712812D01*
X82709397Y-58620827D01*
X82709390Y-58620814D01*
X82621789Y-58489711D01*
X82621786Y-58489707D01*
X82510292Y-58378213D01*
X82510288Y-58378210D01*
X82379185Y-58290609D01*
X82379172Y-58290602D01*
X82233501Y-58230264D01*
X82233489Y-58230261D01*
X82078845Y-58199500D01*
X82078842Y-58199500D01*
X81921158Y-58199500D01*
X81921155Y-58199500D01*
X81766510Y-58230261D01*
X81766498Y-58230264D01*
X81620827Y-58290602D01*
X81620814Y-58290609D01*
X81489711Y-58378210D01*
X81489707Y-58378213D01*
X81378213Y-58489707D01*
X81378210Y-58489711D01*
X81290609Y-58620814D01*
X81290602Y-58620827D01*
X81230264Y-58766498D01*
X81230261Y-58766510D01*
X81199500Y-58921153D01*
X81199500Y-59078846D01*
X81230261Y-59233489D01*
X81230264Y-59233501D01*
X81241612Y-59260897D01*
X81249081Y-59330366D01*
X81217805Y-59392845D01*
X81214732Y-59396030D01*
X80477082Y-60133681D01*
X80415759Y-60167166D01*
X80389401Y-60170000D01*
X79433012Y-60170000D01*
X79465925Y-60112993D01*
X79500000Y-59985826D01*
X79500000Y-59854174D01*
X79465925Y-59727007D01*
X79433012Y-59670000D01*
X80350000Y-59670000D01*
X80350000Y-59022172D01*
X80349999Y-59022155D01*
X80343598Y-58962627D01*
X80343596Y-58962620D01*
X80293354Y-58827913D01*
X80293350Y-58827906D01*
X80207190Y-58712812D01*
X80207187Y-58712809D01*
X80092093Y-58626649D01*
X80092086Y-58626645D01*
X79957379Y-58576403D01*
X79957372Y-58576401D01*
X79897844Y-58570000D01*
X79250000Y-58570000D01*
X79250000Y-59486988D01*
X79192993Y-59454075D01*
X79065826Y-59420000D01*
X78934174Y-59420000D01*
X78807007Y-59454075D01*
X78750000Y-59486988D01*
X78750000Y-58570000D01*
X78378500Y-58570000D01*
X78311461Y-58550315D01*
X78265706Y-58497511D01*
X78254500Y-58446000D01*
X78254500Y-53829726D01*
X78254499Y-53829725D01*
X78236122Y-53737334D01*
X78230386Y-53708495D01*
X78185412Y-53599922D01*
X78183764Y-53595316D01*
X78114414Y-53491526D01*
X78114413Y-53491524D01*
X78114411Y-53491522D01*
X78027008Y-53404119D01*
X77603391Y-52980502D01*
X77569906Y-52919179D01*
X77574890Y-52849487D01*
X77616762Y-52793554D01*
X77682226Y-52769137D01*
X77710470Y-52770348D01*
X77897683Y-52800000D01*
X78102317Y-52800000D01*
X78304417Y-52767990D01*
X78499031Y-52704755D01*
X78681349Y-52611859D01*
X78725921Y-52579474D01*
X78046446Y-51900000D01*
X78052661Y-51900000D01*
X78154394Y-51872741D01*
X78245606Y-51820080D01*
X78320080Y-51745606D01*
X78372741Y-51654394D01*
X78400000Y-51552661D01*
X78400000Y-51546447D01*
X79079474Y-52225921D01*
X79111859Y-52181349D01*
X79204755Y-51999031D01*
X79267990Y-51804417D01*
X79300000Y-51602317D01*
X79300000Y-51397682D01*
X79267990Y-51195582D01*
X79204755Y-51000968D01*
X79111859Y-50818650D01*
X79079474Y-50774077D01*
X79079474Y-50774076D01*
X78400000Y-51453551D01*
X78400000Y-51447339D01*
X78372741Y-51345606D01*
X78320080Y-51254394D01*
X78245606Y-51179920D01*
X78154394Y-51127259D01*
X78052661Y-51100000D01*
X78046446Y-51100000D01*
X78725922Y-50420524D01*
X78725921Y-50420523D01*
X78681359Y-50388147D01*
X78681350Y-50388141D01*
X78499031Y-50295244D01*
X78304417Y-50232009D01*
X78102317Y-50200000D01*
X77897683Y-50200000D01*
X77695582Y-50232009D01*
X77500968Y-50295244D01*
X77318644Y-50388143D01*
X77274077Y-50420523D01*
X77274077Y-50420524D01*
X77953554Y-51100000D01*
X77947339Y-51100000D01*
X77845606Y-51127259D01*
X77754394Y-51179920D01*
X77679920Y-51254394D01*
X77627259Y-51345606D01*
X77600000Y-51447339D01*
X77600000Y-51453553D01*
X76920524Y-50774077D01*
X76920523Y-50774077D01*
X76888143Y-50818644D01*
X76795244Y-51000968D01*
X76732009Y-51195582D01*
X76700000Y-51397682D01*
X76700000Y-51602317D01*
X76729651Y-51789529D01*
X76720696Y-51858823D01*
X76675700Y-51912275D01*
X76608948Y-51932914D01*
X76541635Y-51914189D01*
X76519497Y-51896608D01*
X72119941Y-47497052D01*
X72086456Y-47435729D01*
X72091440Y-47366037D01*
X72133312Y-47310104D01*
X72188221Y-47286899D01*
X72304534Y-47268477D01*
X72499219Y-47205220D01*
X72681610Y-47112287D01*
X72774590Y-47044732D01*
X72847213Y-46991971D01*
X72847215Y-46991968D01*
X72847219Y-46991966D01*
X72991966Y-46847219D01*
X72991968Y-46847215D01*
X72991971Y-46847213D01*
X73062520Y-46750109D01*
X73112287Y-46681610D01*
X73205220Y-46499219D01*
X73238222Y-46397648D01*
X76699500Y-46397648D01*
X76699500Y-46602351D01*
X76731522Y-46804534D01*
X76794781Y-46999223D01*
X76887715Y-47181613D01*
X77008028Y-47347213D01*
X77152786Y-47491971D01*
X77307749Y-47604556D01*
X77318390Y-47612287D01*
X77434607Y-47671503D01*
X77500776Y-47705218D01*
X77500778Y-47705218D01*
X77500781Y-47705220D01*
X77605137Y-47739127D01*
X77695465Y-47768477D01*
X77796557Y-47784488D01*
X77897648Y-47800500D01*
X77897649Y-47800500D01*
X78102351Y-47800500D01*
X78102352Y-47800500D01*
X78304534Y-47768477D01*
X78499219Y-47705220D01*
X78681610Y-47612287D01*
X78774590Y-47544732D01*
X78847213Y-47491971D01*
X78847215Y-47491968D01*
X78847219Y-47491966D01*
X78991966Y-47347219D01*
X78991968Y-47347215D01*
X78991971Y-47347213D01*
X79077205Y-47229896D01*
X79112287Y-47181610D01*
X79205220Y-46999219D01*
X79268477Y-46804534D01*
X79300500Y-46602352D01*
X79300500Y-46397648D01*
X79285752Y-46304534D01*
X79268477Y-46195465D01*
X79205218Y-46000776D01*
X79141085Y-45874910D01*
X79112287Y-45818390D01*
X79029495Y-45704435D01*
X78991971Y-45652786D01*
X78847213Y-45508028D01*
X78681613Y-45387715D01*
X78681612Y-45387714D01*
X78681610Y-45387713D01*
X78624653Y-45358691D01*
X78499223Y-45294781D01*
X78304534Y-45231522D01*
X78129995Y-45203878D01*
X78102352Y-45199500D01*
X77897648Y-45199500D01*
X77873329Y-45203351D01*
X77695465Y-45231522D01*
X77500776Y-45294781D01*
X77318386Y-45387715D01*
X77152786Y-45508028D01*
X77008028Y-45652786D01*
X76887715Y-45818386D01*
X76794781Y-46000776D01*
X76731522Y-46195465D01*
X76699500Y-46397648D01*
X73238222Y-46397648D01*
X73268477Y-46304534D01*
X73300500Y-46102352D01*
X73300500Y-45897648D01*
X73286899Y-45811775D01*
X73268477Y-45695465D01*
X73230347Y-45578114D01*
X73205220Y-45500781D01*
X73205218Y-45500778D01*
X73205218Y-45500776D01*
X73155785Y-45403760D01*
X73112287Y-45318390D01*
X73095134Y-45294781D01*
X72991971Y-45152786D01*
X72928509Y-45089324D01*
X74093099Y-45089324D01*
X74127950Y-45264527D01*
X74127952Y-45264533D01*
X74196314Y-45429575D01*
X74196319Y-45429584D01*
X74295564Y-45578114D01*
X74295567Y-45578118D01*
X74421881Y-45704432D01*
X74421885Y-45704435D01*
X74570415Y-45803680D01*
X74570421Y-45803683D01*
X74570422Y-45803684D01*
X74735467Y-45872048D01*
X74735471Y-45872048D01*
X74735472Y-45872049D01*
X74910675Y-45906900D01*
X74910678Y-45906900D01*
X75899324Y-45906900D01*
X76034264Y-45880058D01*
X76074533Y-45872048D01*
X76239578Y-45803684D01*
X76388115Y-45704435D01*
X77087646Y-45004904D01*
X77945732Y-44146819D01*
X78007055Y-44113334D01*
X78033413Y-44110500D01*
X78102351Y-44110500D01*
X78102352Y-44110500D01*
X78304534Y-44078477D01*
X78499219Y-44015220D01*
X78681610Y-43922287D01*
X78774590Y-43854732D01*
X78847213Y-43801971D01*
X78847215Y-43801968D01*
X78847219Y-43801966D01*
X78991966Y-43657219D01*
X78991968Y-43657215D01*
X78991971Y-43657213D01*
X79044732Y-43584590D01*
X79112287Y-43491610D01*
X79205220Y-43309219D01*
X79268477Y-43114534D01*
X79300500Y-42912352D01*
X79300500Y-42707648D01*
X79292257Y-42655606D01*
X79268477Y-42505465D01*
X79237458Y-42410000D01*
X79205220Y-42310781D01*
X79205218Y-42310778D01*
X79205218Y-42310776D01*
X79171503Y-42244607D01*
X79112287Y-42128390D01*
X79080092Y-42084077D01*
X78991971Y-41962786D01*
X78943219Y-41914034D01*
X78909734Y-41852711D01*
X78906900Y-41826353D01*
X78906900Y-38910675D01*
X78872049Y-38735472D01*
X78872048Y-38735471D01*
X78872048Y-38735467D01*
X78803684Y-38570422D01*
X78803683Y-38570421D01*
X78803680Y-38570415D01*
X78704435Y-38421885D01*
X78704432Y-38421881D01*
X78578118Y-38295567D01*
X78578114Y-38295564D01*
X78429584Y-38196319D01*
X78429575Y-38196314D01*
X78264533Y-38127952D01*
X78264527Y-38127950D01*
X78089324Y-38093100D01*
X78089322Y-38093100D01*
X77910678Y-38093100D01*
X77910676Y-38093100D01*
X77735472Y-38127950D01*
X77735466Y-38127952D01*
X77570424Y-38196314D01*
X77570415Y-38196319D01*
X77421885Y-38295564D01*
X77421881Y-38295567D01*
X77295567Y-38421881D01*
X77295564Y-38421885D01*
X77196319Y-38570415D01*
X77196314Y-38570424D01*
X77127952Y-38735466D01*
X77127950Y-38735472D01*
X77093100Y-38910675D01*
X77093100Y-41826353D01*
X77073415Y-41893392D01*
X77056781Y-41914034D01*
X77008032Y-41962782D01*
X77008028Y-41962786D01*
X76887715Y-42128386D01*
X76794781Y-42310776D01*
X76731522Y-42505465D01*
X76699500Y-42707648D01*
X76699500Y-42776587D01*
X76679815Y-42843626D01*
X76663181Y-42864268D01*
X75470669Y-44056781D01*
X75409346Y-44090266D01*
X75382988Y-44093100D01*
X74910676Y-44093100D01*
X74735472Y-44127950D01*
X74735466Y-44127952D01*
X74570424Y-44196314D01*
X74570415Y-44196319D01*
X74421885Y-44295564D01*
X74421881Y-44295567D01*
X74295567Y-44421881D01*
X74295564Y-44421885D01*
X74196319Y-44570415D01*
X74196314Y-44570424D01*
X74127952Y-44735466D01*
X74127950Y-44735472D01*
X74093100Y-44910675D01*
X74093100Y-44910678D01*
X74093100Y-45089322D01*
X74093100Y-45089324D01*
X74093099Y-45089324D01*
X72928509Y-45089324D01*
X72847217Y-45008032D01*
X72847218Y-45008032D01*
X72842914Y-45004906D01*
X72842913Y-45004904D01*
X72681613Y-44887715D01*
X72681612Y-44887714D01*
X72681610Y-44887713D01*
X72624653Y-44858691D01*
X72499223Y-44794781D01*
X72304534Y-44731522D01*
X72129995Y-44703878D01*
X72102352Y-44699500D01*
X71897648Y-44699500D01*
X71873329Y-44703351D01*
X71695465Y-44731522D01*
X71500776Y-44794781D01*
X71318386Y-44887715D01*
X71152786Y-45008028D01*
X71008028Y-45152786D01*
X70887715Y-45318386D01*
X70794781Y-45500776D01*
X70731522Y-45695465D01*
X70713101Y-45811775D01*
X70683172Y-45874910D01*
X70623860Y-45911841D01*
X70553997Y-45910843D01*
X70502947Y-45880058D01*
X67330571Y-42707682D01*
X70700000Y-42707682D01*
X70700000Y-42912317D01*
X70732009Y-43114417D01*
X70795244Y-43309031D01*
X70888141Y-43491350D01*
X70888147Y-43491359D01*
X70920523Y-43535921D01*
X70920524Y-43535922D01*
X71600000Y-42856446D01*
X71600000Y-42862661D01*
X71627259Y-42964394D01*
X71679920Y-43055606D01*
X71754394Y-43130080D01*
X71845606Y-43182741D01*
X71947339Y-43210000D01*
X71953553Y-43210000D01*
X71274076Y-43889474D01*
X71318650Y-43921859D01*
X71500968Y-44014755D01*
X71695582Y-44077990D01*
X71897683Y-44110000D01*
X72102317Y-44110000D01*
X72304417Y-44077990D01*
X72499031Y-44014755D01*
X72681349Y-43921859D01*
X72725921Y-43889474D01*
X72046447Y-43210000D01*
X72052661Y-43210000D01*
X72154394Y-43182741D01*
X72245606Y-43130080D01*
X72320080Y-43055606D01*
X72372741Y-42964394D01*
X72400000Y-42862661D01*
X72400000Y-42856447D01*
X73079474Y-43535921D01*
X73111859Y-43491349D01*
X73204755Y-43309031D01*
X73267990Y-43114417D01*
X73300000Y-42912317D01*
X73300000Y-42707682D01*
X73267990Y-42505582D01*
X73204755Y-42310968D01*
X73111859Y-42128650D01*
X73079474Y-42084077D01*
X73079474Y-42084076D01*
X72400000Y-42763551D01*
X72400000Y-42757339D01*
X72372741Y-42655606D01*
X72320080Y-42564394D01*
X72245606Y-42489920D01*
X72154394Y-42437259D01*
X72052661Y-42410000D01*
X72046446Y-42410000D01*
X72725922Y-41730524D01*
X72725921Y-41730523D01*
X72681359Y-41698147D01*
X72681350Y-41698141D01*
X72499031Y-41605244D01*
X72304417Y-41542009D01*
X72102317Y-41510000D01*
X71897683Y-41510000D01*
X71695582Y-41542009D01*
X71500968Y-41605244D01*
X71318644Y-41698143D01*
X71274077Y-41730523D01*
X71274077Y-41730524D01*
X71953554Y-42410000D01*
X71947339Y-42410000D01*
X71845606Y-42437259D01*
X71754394Y-42489920D01*
X71679920Y-42564394D01*
X71627259Y-42655606D01*
X71600000Y-42757339D01*
X71600000Y-42763553D01*
X70920524Y-42084077D01*
X70920523Y-42084077D01*
X70888143Y-42128644D01*
X70795244Y-42310968D01*
X70732009Y-42505582D01*
X70700000Y-42707682D01*
X67330571Y-42707682D01*
X67312799Y-42689910D01*
X67289995Y-42658523D01*
X67195050Y-42472182D01*
X67070109Y-42300213D01*
X66919786Y-42149890D01*
X66747820Y-42024951D01*
X66747115Y-42024591D01*
X66739054Y-42020485D01*
X66688259Y-41972512D01*
X66671463Y-41904692D01*
X66693999Y-41838556D01*
X66723812Y-41808716D01*
X66731101Y-41803567D01*
X66747816Y-41795051D01*
X66919792Y-41670104D01*
X67070104Y-41519792D01*
X67070106Y-41519788D01*
X67070109Y-41519786D01*
X67195048Y-41347820D01*
X67195047Y-41347820D01*
X67195051Y-41347816D01*
X67291557Y-41158412D01*
X67357246Y-40956243D01*
X67390500Y-40746287D01*
X67390500Y-40533713D01*
X67357246Y-40323757D01*
X67291557Y-40121588D01*
X67195051Y-39932184D01*
X67195049Y-39932181D01*
X67195048Y-39932179D01*
X67070109Y-39760213D01*
X66919786Y-39609890D01*
X66747820Y-39484951D01*
X66747115Y-39484591D01*
X66739054Y-39480485D01*
X66688259Y-39432512D01*
X66671463Y-39364692D01*
X66693999Y-39298556D01*
X66739054Y-39259515D01*
X66747816Y-39255051D01*
X66802572Y-39215269D01*
X66919786Y-39130109D01*
X66919788Y-39130106D01*
X66919792Y-39130104D01*
X67070104Y-38979792D01*
X67070106Y-38979788D01*
X67070109Y-38979786D01*
X67195048Y-38807820D01*
X67195047Y-38807820D01*
X67195051Y-38807816D01*
X67291557Y-38618412D01*
X67357246Y-38416243D01*
X67390500Y-38206287D01*
X67390500Y-37993713D01*
X67357246Y-37783757D01*
X67291557Y-37581588D01*
X67195051Y-37392184D01*
X67195049Y-37392181D01*
X67195048Y-37392179D01*
X67070109Y-37220213D01*
X66956569Y-37106673D01*
X66923084Y-37045350D01*
X66928068Y-36975658D01*
X66969940Y-36919725D01*
X67000915Y-36902810D01*
X67132331Y-36853796D01*
X67247546Y-36767546D01*
X67333796Y-36652331D01*
X67384091Y-36517483D01*
X67390500Y-36457873D01*
X67390499Y-35087648D01*
X70699500Y-35087648D01*
X70699500Y-35292351D01*
X70731522Y-35494534D01*
X70794781Y-35689223D01*
X70887715Y-35871613D01*
X71008028Y-36037213D01*
X71152786Y-36181971D01*
X71307749Y-36294556D01*
X71318390Y-36302287D01*
X71434607Y-36361503D01*
X71500776Y-36395218D01*
X71500778Y-36395218D01*
X71500781Y-36395220D01*
X71605137Y-36429127D01*
X71695465Y-36458477D01*
X71796557Y-36474488D01*
X71897648Y-36490500D01*
X71897649Y-36490500D01*
X72102351Y-36490500D01*
X72102352Y-36490500D01*
X72304534Y-36458477D01*
X72499219Y-36395220D01*
X72681610Y-36302287D01*
X72774590Y-36234732D01*
X72847213Y-36181971D01*
X72847215Y-36181968D01*
X72847219Y-36181966D01*
X72991966Y-36037219D01*
X72991968Y-36037215D01*
X72991971Y-36037213D01*
X73044732Y-35964590D01*
X73112287Y-35871610D01*
X73205220Y-35689219D01*
X73268477Y-35494534D01*
X73300500Y-35292352D01*
X73300500Y-35087648D01*
X76699500Y-35087648D01*
X76699500Y-35292351D01*
X76731522Y-35494534D01*
X76794781Y-35689223D01*
X76887715Y-35871613D01*
X77008028Y-36037213D01*
X77152786Y-36181971D01*
X77307749Y-36294556D01*
X77318390Y-36302287D01*
X77434607Y-36361503D01*
X77500776Y-36395218D01*
X77500778Y-36395218D01*
X77500781Y-36395220D01*
X77605137Y-36429127D01*
X77695465Y-36458477D01*
X77796557Y-36474488D01*
X77897648Y-36490500D01*
X77897649Y-36490500D01*
X78102351Y-36490500D01*
X78102352Y-36490500D01*
X78304534Y-36458477D01*
X78499219Y-36395220D01*
X78681610Y-36302287D01*
X78774590Y-36234732D01*
X78847213Y-36181971D01*
X78847215Y-36181968D01*
X78847219Y-36181966D01*
X78991966Y-36037219D01*
X78991968Y-36037215D01*
X78991971Y-36037213D01*
X79044732Y-35964590D01*
X79112287Y-35871610D01*
X79205220Y-35689219D01*
X79268477Y-35494534D01*
X79300500Y-35292352D01*
X79300500Y-35087648D01*
X79268477Y-34885466D01*
X79205220Y-34690781D01*
X79205218Y-34690778D01*
X79205218Y-34690776D01*
X79160247Y-34602517D01*
X79112287Y-34508390D01*
X79082698Y-34467664D01*
X78991971Y-34342786D01*
X78847213Y-34198028D01*
X78681613Y-34077715D01*
X78681612Y-34077714D01*
X78681610Y-34077713D01*
X78624653Y-34048691D01*
X78499223Y-33984781D01*
X78304534Y-33921522D01*
X78129995Y-33893878D01*
X78102352Y-33889500D01*
X77897648Y-33889500D01*
X77873329Y-33893351D01*
X77695465Y-33921522D01*
X77500776Y-33984781D01*
X77318386Y-34077715D01*
X77152786Y-34198028D01*
X77008028Y-34342786D01*
X76887715Y-34508386D01*
X76794781Y-34690776D01*
X76731522Y-34885465D01*
X76699500Y-35087648D01*
X73300500Y-35087648D01*
X73268477Y-34885466D01*
X73205220Y-34690781D01*
X73205218Y-34690778D01*
X73205218Y-34690776D01*
X73160247Y-34602517D01*
X73112287Y-34508390D01*
X73082698Y-34467664D01*
X72991971Y-34342786D01*
X72847213Y-34198028D01*
X72681613Y-34077715D01*
X72681612Y-34077714D01*
X72681610Y-34077713D01*
X72624653Y-34048691D01*
X72499223Y-33984781D01*
X72304534Y-33921522D01*
X72129995Y-33893878D01*
X72102352Y-33889500D01*
X71897648Y-33889500D01*
X71873329Y-33893351D01*
X71695465Y-33921522D01*
X71500776Y-33984781D01*
X71318386Y-34077715D01*
X71152786Y-34198028D01*
X71008028Y-34342786D01*
X70887715Y-34508386D01*
X70794781Y-34690776D01*
X70731522Y-34885465D01*
X70699500Y-35087648D01*
X67390499Y-35087648D01*
X67390499Y-34662128D01*
X67384091Y-34602517D01*
X67348982Y-34508386D01*
X67333797Y-34467671D01*
X67333793Y-34467664D01*
X67247547Y-34352455D01*
X67247544Y-34352452D01*
X67132335Y-34266206D01*
X67132328Y-34266202D01*
X66997482Y-34215908D01*
X66997483Y-34215908D01*
X66937883Y-34209501D01*
X66937881Y-34209500D01*
X66937873Y-34209500D01*
X66937864Y-34209500D01*
X65142129Y-34209500D01*
X65142123Y-34209501D01*
X65082516Y-34215908D01*
X64947671Y-34266202D01*
X64947664Y-34266206D01*
X64832455Y-34352452D01*
X64832452Y-34352455D01*
X64746206Y-34467664D01*
X64746202Y-34467671D01*
X64695908Y-34602517D01*
X64689501Y-34662116D01*
X64689501Y-34662123D01*
X64689500Y-34662135D01*
X64689500Y-36457870D01*
X64689501Y-36457876D01*
X64695908Y-36517483D01*
X64746202Y-36652328D01*
X64746206Y-36652335D01*
X64832452Y-36767544D01*
X64832455Y-36767547D01*
X64947664Y-36853793D01*
X64947671Y-36853797D01*
X65079082Y-36902810D01*
X65135016Y-36944681D01*
X65159433Y-37010145D01*
X65144582Y-37078418D01*
X65123431Y-37106673D01*
X65009889Y-37220215D01*
X64884951Y-37392179D01*
X64788444Y-37581585D01*
X64722753Y-37783760D01*
X64689500Y-37993713D01*
X64689500Y-38206286D01*
X64722735Y-38416127D01*
X64722754Y-38416243D01*
X64724587Y-38421885D01*
X64788444Y-38618414D01*
X64884951Y-38807820D01*
X65009890Y-38979786D01*
X65160213Y-39130109D01*
X65332182Y-39255050D01*
X65340946Y-39259516D01*
X65391742Y-39307491D01*
X65408536Y-39375312D01*
X65385998Y-39441447D01*
X65340946Y-39480484D01*
X65332182Y-39484949D01*
X65160213Y-39609890D01*
X65009890Y-39760213D01*
X64884951Y-39932179D01*
X64788444Y-40121585D01*
X64722753Y-40323760D01*
X64689500Y-40533713D01*
X64689500Y-40746286D01*
X64722753Y-40956239D01*
X64788444Y-41158414D01*
X64884951Y-41347820D01*
X65009890Y-41519786D01*
X65160213Y-41670109D01*
X65332182Y-41795050D01*
X65340946Y-41799516D01*
X65391742Y-41847491D01*
X65408536Y-41915312D01*
X65385998Y-41981447D01*
X65340946Y-42020484D01*
X65332182Y-42024949D01*
X65160213Y-42149890D01*
X65009890Y-42300213D01*
X64884951Y-42472179D01*
X64788444Y-42661585D01*
X64722753Y-42863760D01*
X64689500Y-43073713D01*
X64689500Y-43286286D01*
X64722020Y-43491613D01*
X64722754Y-43496243D01*
X64735646Y-43535921D01*
X64788444Y-43698414D01*
X64884951Y-43887820D01*
X65009890Y-44059786D01*
X65160213Y-44210109D01*
X65332182Y-44335050D01*
X65340946Y-44339516D01*
X65391742Y-44387491D01*
X65408536Y-44455312D01*
X65385998Y-44521447D01*
X65340946Y-44560484D01*
X65332182Y-44564949D01*
X65160213Y-44689890D01*
X65009890Y-44840213D01*
X64884951Y-45012179D01*
X64788444Y-45201585D01*
X64788443Y-45201587D01*
X64788443Y-45201588D01*
X64767993Y-45264527D01*
X64722753Y-45403760D01*
X64689500Y-45613713D01*
X64689500Y-45826286D01*
X64717136Y-46000776D01*
X64722754Y-46036243D01*
X64744234Y-46102352D01*
X64788444Y-46238414D01*
X64884951Y-46427820D01*
X65009890Y-46599786D01*
X65160213Y-46750109D01*
X65332182Y-46875050D01*
X65340946Y-46879516D01*
X65391742Y-46927491D01*
X65408536Y-46995312D01*
X65385998Y-47061447D01*
X65340946Y-47100484D01*
X65332182Y-47104949D01*
X65160213Y-47229890D01*
X65009890Y-47380213D01*
X64884951Y-47552179D01*
X64788444Y-47741585D01*
X64722753Y-47943760D01*
X64689500Y-48153713D01*
X64689500Y-48366286D01*
X64722753Y-48576239D01*
X64788444Y-48778414D01*
X64884951Y-48967820D01*
X65009890Y-49139786D01*
X65160213Y-49290109D01*
X65332182Y-49415050D01*
X65340946Y-49419516D01*
X65391742Y-49467491D01*
X65408536Y-49535312D01*
X65385998Y-49601447D01*
X65340946Y-49640484D01*
X65332182Y-49644949D01*
X65160213Y-49769890D01*
X65009890Y-49920213D01*
X64884951Y-50092179D01*
X64788444Y-50281585D01*
X64722753Y-50483760D01*
X64689500Y-50693713D01*
X64689500Y-50906286D01*
X64712683Y-51052661D01*
X64722754Y-51116243D01*
X64767642Y-51254394D01*
X64788444Y-51318414D01*
X64884951Y-51507820D01*
X65009890Y-51679786D01*
X65160213Y-51830109D01*
X65332182Y-51955050D01*
X65340946Y-51959516D01*
X65391742Y-52007491D01*
X65408536Y-52075312D01*
X65385998Y-52141447D01*
X65340946Y-52180484D01*
X65332182Y-52184949D01*
X65160213Y-52309890D01*
X65009890Y-52460213D01*
X64884951Y-52632179D01*
X64788444Y-52821585D01*
X64722753Y-53023760D01*
X64689500Y-53233713D01*
X64689500Y-53446286D01*
X64722753Y-53656240D01*
X64722754Y-53656245D01*
X64727128Y-53669707D01*
X64729121Y-53739549D01*
X64696877Y-53795702D01*
X60114371Y-58378210D01*
X58599992Y-59892589D01*
X58572581Y-59920000D01*
X58512586Y-59979994D01*
X58512585Y-59979996D01*
X58443233Y-60083789D01*
X58441586Y-60088393D01*
X58398375Y-60192713D01*
X58396614Y-60196965D01*
X58373527Y-60313034D01*
X58373526Y-60313039D01*
X58372500Y-60318195D01*
X58372500Y-73460642D01*
X58352815Y-73527681D01*
X58351602Y-73529533D01*
X58290609Y-73620814D01*
X58290602Y-73620827D01*
X58230264Y-73766498D01*
X58230261Y-73766510D01*
X58199500Y-73921153D01*
X48760500Y-73921153D01*
X48760500Y-40640000D01*
X49449500Y-40640000D01*
X49449500Y-40746286D01*
X49482753Y-40956239D01*
X49548444Y-41158414D01*
X49644951Y-41347820D01*
X49769890Y-41519786D01*
X49920213Y-41670109D01*
X50092182Y-41795050D01*
X50100946Y-41799516D01*
X50151742Y-41847491D01*
X50168536Y-41915312D01*
X50145998Y-41981447D01*
X50100946Y-42020484D01*
X50092182Y-42024949D01*
X49920213Y-42149890D01*
X49769890Y-42300213D01*
X49644951Y-42472179D01*
X49548444Y-42661585D01*
X49482753Y-42863760D01*
X49449500Y-43073713D01*
X49449500Y-43286286D01*
X49482020Y-43491613D01*
X49482754Y-43496243D01*
X49495646Y-43535921D01*
X49548444Y-43698414D01*
X49644951Y-43887820D01*
X49769890Y-44059786D01*
X49920213Y-44210109D01*
X50092182Y-44335050D01*
X50100946Y-44339516D01*
X50151742Y-44387491D01*
X50168536Y-44455312D01*
X50145998Y-44521447D01*
X50100946Y-44560484D01*
X50092182Y-44564949D01*
X49920213Y-44689890D01*
X49769890Y-44840213D01*
X49644951Y-45012179D01*
X49548444Y-45201585D01*
X49548443Y-45201587D01*
X49548443Y-45201588D01*
X49527993Y-45264527D01*
X49482753Y-45403760D01*
X49449500Y-45613713D01*
X49449500Y-45826286D01*
X49477136Y-46000776D01*
X49482754Y-46036243D01*
X49504234Y-46102352D01*
X49548444Y-46238414D01*
X49644951Y-46427820D01*
X49769890Y-46599786D01*
X49920213Y-46750109D01*
X50092182Y-46875050D01*
X50100946Y-46879516D01*
X50151742Y-46927491D01*
X50168536Y-46995312D01*
X50145998Y-47061447D01*
X50100946Y-47100484D01*
X50092182Y-47104949D01*
X49920213Y-47229890D01*
X49769890Y-47380213D01*
X49644951Y-47552179D01*
X49548444Y-47741585D01*
X49482753Y-47943760D01*
X49449500Y-48153713D01*
X49449500Y-48366286D01*
X49482753Y-48576239D01*
X49548444Y-48778414D01*
X49644951Y-48967820D01*
X49769890Y-49139786D01*
X49920213Y-49290109D01*
X50092182Y-49415050D01*
X50100946Y-49419516D01*
X50151742Y-49467491D01*
X50168536Y-49535312D01*
X50145998Y-49601447D01*
X50100946Y-49640484D01*
X50092182Y-49644949D01*
X49920213Y-49769890D01*
X49769890Y-49920213D01*
X49644951Y-50092179D01*
X49548444Y-50281585D01*
X49482753Y-50483760D01*
X49449500Y-50693713D01*
X49449500Y-50906286D01*
X49472683Y-51052661D01*
X49482754Y-51116243D01*
X49527642Y-51254394D01*
X49548444Y-51318414D01*
X49644951Y-51507820D01*
X49769890Y-51679786D01*
X49920213Y-51830109D01*
X50092182Y-51955050D01*
X50100946Y-51959516D01*
X50151742Y-52007491D01*
X50168536Y-52075312D01*
X50145998Y-52141447D01*
X50100946Y-52180484D01*
X50092182Y-52184949D01*
X49920213Y-52309890D01*
X49769890Y-52460213D01*
X49644951Y-52632179D01*
X49548444Y-52821585D01*
X49482753Y-53023760D01*
X49449500Y-53233713D01*
X49449500Y-53446286D01*
X49482753Y-53656239D01*
X49482753Y-53656241D01*
X49482754Y-53656243D01*
X49539122Y-53829726D01*
X49548444Y-53858414D01*
X49644951Y-54047820D01*
X49769890Y-54219786D01*
X49920213Y-54370109D01*
X50092179Y-54495048D01*
X50092181Y-54495049D01*
X50092184Y-54495051D01*
X50281588Y-54591557D01*
X50483757Y-54657246D01*
X50693713Y-54690500D01*
X50693714Y-54690500D01*
X50906286Y-54690500D01*
X50906287Y-54690500D01*
X51116243Y-54657246D01*
X51318412Y-54591557D01*
X51507816Y-54495051D01*
X51529789Y-54479086D01*
X51679786Y-54370109D01*
X51679788Y-54370106D01*
X51679792Y-54370104D01*
X51830104Y-54219792D01*
X51830106Y-54219788D01*
X51830109Y-54219786D01*
X51955048Y-54047820D01*
X51955047Y-54047820D01*
X51955051Y-54047816D01*
X52051557Y-53858412D01*
X52117246Y-53656243D01*
X52150500Y-53446287D01*
X52150500Y-53233713D01*
X52117246Y-53023757D01*
X52051557Y-52821588D01*
X51955051Y-52632184D01*
X51955049Y-52632181D01*
X51955048Y-52632179D01*
X51830109Y-52460213D01*
X51679786Y-52309890D01*
X51507820Y-52184951D01*
X51507115Y-52184591D01*
X51499054Y-52180485D01*
X51448259Y-52132512D01*
X51431463Y-52064692D01*
X51453999Y-51998556D01*
X51499054Y-51959515D01*
X51507816Y-51955051D01*
X51583588Y-51900000D01*
X51679786Y-51830109D01*
X51679788Y-51830106D01*
X51679792Y-51830104D01*
X51830104Y-51679792D01*
X51830106Y-51679788D01*
X51830109Y-51679786D01*
X51955048Y-51507820D01*
X51955047Y-51507820D01*
X51955051Y-51507816D01*
X52051557Y-51318412D01*
X52117246Y-51116243D01*
X52150500Y-50906287D01*
X52150500Y-50693713D01*
X52117246Y-50483757D01*
X52051557Y-50281588D01*
X51955051Y-50092184D01*
X51955049Y-50092181D01*
X51955048Y-50092179D01*
X51830109Y-49920213D01*
X51679786Y-49769890D01*
X51507820Y-49644951D01*
X51507115Y-49644591D01*
X51499054Y-49640485D01*
X51448259Y-49592512D01*
X51431463Y-49524692D01*
X51453999Y-49458556D01*
X51499054Y-49419515D01*
X51507816Y-49415051D01*
X51529789Y-49399086D01*
X51679786Y-49290109D01*
X51679788Y-49290106D01*
X51679792Y-49290104D01*
X51830104Y-49139792D01*
X51830106Y-49139788D01*
X51830109Y-49139786D01*
X51955048Y-48967820D01*
X51955047Y-48967820D01*
X51955051Y-48967816D01*
X52051557Y-48778412D01*
X52117246Y-48576243D01*
X52150500Y-48366287D01*
X52150500Y-48153713D01*
X52117246Y-47943757D01*
X52051557Y-47741588D01*
X51955051Y-47552184D01*
X51955049Y-47552181D01*
X51955048Y-47552179D01*
X51830109Y-47380213D01*
X51679786Y-47229890D01*
X51507820Y-47104951D01*
X51507115Y-47104591D01*
X51499054Y-47100485D01*
X51448259Y-47052512D01*
X51431463Y-46984692D01*
X51453999Y-46918556D01*
X51499054Y-46879515D01*
X51507816Y-46875051D01*
X51604875Y-46804534D01*
X51679786Y-46750109D01*
X51679788Y-46750106D01*
X51679792Y-46750104D01*
X51830104Y-46599792D01*
X51830106Y-46599788D01*
X51830109Y-46599786D01*
X51955048Y-46427820D01*
X51955047Y-46427820D01*
X51955051Y-46427816D01*
X52051557Y-46238412D01*
X52117246Y-46036243D01*
X52150500Y-45826287D01*
X52150500Y-45613713D01*
X52117246Y-45403757D01*
X52051557Y-45201588D01*
X51955051Y-45012184D01*
X51955049Y-45012181D01*
X51955048Y-45012179D01*
X51830109Y-44840213D01*
X51679786Y-44689890D01*
X51507820Y-44564951D01*
X51507115Y-44564591D01*
X51499054Y-44560485D01*
X51448259Y-44512512D01*
X51431463Y-44444692D01*
X51453999Y-44378556D01*
X51499054Y-44339515D01*
X51507816Y-44335051D01*
X51529789Y-44319086D01*
X51679786Y-44210109D01*
X51679788Y-44210106D01*
X51679792Y-44210104D01*
X51830104Y-44059792D01*
X51830106Y-44059788D01*
X51830109Y-44059786D01*
X51955048Y-43887820D01*
X51955047Y-43887820D01*
X51955051Y-43887816D01*
X52051557Y-43698412D01*
X52117246Y-43496243D01*
X52150500Y-43286287D01*
X52150500Y-43073713D01*
X52117246Y-42863757D01*
X52051557Y-42661588D01*
X51955051Y-42472184D01*
X51955049Y-42472181D01*
X51955048Y-42472179D01*
X51830109Y-42300213D01*
X51679786Y-42149890D01*
X51507820Y-42024951D01*
X51507115Y-42024591D01*
X51499054Y-42020485D01*
X51448259Y-41972512D01*
X51431463Y-41904692D01*
X51453999Y-41838556D01*
X51499054Y-41799515D01*
X51507816Y-41795051D01*
X51529789Y-41779086D01*
X51679786Y-41670109D01*
X51679788Y-41670106D01*
X51679792Y-41670104D01*
X51830104Y-41519792D01*
X51830106Y-41519788D01*
X51830109Y-41519786D01*
X51955048Y-41347820D01*
X51955047Y-41347820D01*
X51955051Y-41347816D01*
X52051557Y-41158412D01*
X52117246Y-40956243D01*
X52150500Y-40746287D01*
X52150500Y-40640000D01*
X53340000Y-40640000D01*
X53340000Y-37921153D01*
X61199500Y-37921153D01*
X61199500Y-38078846D01*
X61230261Y-38233489D01*
X61230264Y-38233501D01*
X61290603Y-38379174D01*
X61290604Y-38379175D01*
X61290606Y-38379179D01*
X61340302Y-38453554D01*
X61351602Y-38470465D01*
X61372480Y-38537142D01*
X61372500Y-38539356D01*
X61372500Y-46460642D01*
X61352815Y-46527681D01*
X61351602Y-46529533D01*
X61290609Y-46620814D01*
X61290602Y-46620827D01*
X61230264Y-46766498D01*
X61230261Y-46766510D01*
X61199500Y-46921153D01*
X61199500Y-47078846D01*
X61230261Y-47233489D01*
X61230264Y-47233501D01*
X61290602Y-47379172D01*
X61290609Y-47379185D01*
X61378210Y-47510288D01*
X61378213Y-47510292D01*
X61489707Y-47621786D01*
X61489711Y-47621789D01*
X61620814Y-47709390D01*
X61620827Y-47709397D01*
X61763461Y-47768477D01*
X61766503Y-47769737D01*
X61921153Y-47800499D01*
X61921156Y-47800500D01*
X61921158Y-47800500D01*
X62078844Y-47800500D01*
X62078845Y-47800499D01*
X62233497Y-47769737D01*
X62379179Y-47709394D01*
X62510289Y-47621789D01*
X62621789Y-47510289D01*
X62709394Y-47379179D01*
X62769737Y-47233497D01*
X62800500Y-47078842D01*
X62800500Y-46921158D01*
X62800500Y-46921155D01*
X62800499Y-46921153D01*
X62791328Y-46875048D01*
X62769737Y-46766503D01*
X62769735Y-46766498D01*
X62709397Y-46620827D01*
X62709390Y-46620814D01*
X62648398Y-46529533D01*
X62627520Y-46462855D01*
X62627500Y-46460642D01*
X62627500Y-38539356D01*
X62647185Y-38472317D01*
X62648398Y-38470465D01*
X62709394Y-38379179D01*
X62769737Y-38233497D01*
X62800500Y-38078842D01*
X62800500Y-37921158D01*
X62800500Y-37921155D01*
X62800499Y-37921153D01*
X62773191Y-37783869D01*
X62769737Y-37766503D01*
X62714884Y-37634075D01*
X62709397Y-37620827D01*
X62709390Y-37620814D01*
X62621789Y-37489711D01*
X62621786Y-37489707D01*
X62510292Y-37378213D01*
X62510288Y-37378210D01*
X62379185Y-37290609D01*
X62379172Y-37290602D01*
X62233501Y-37230264D01*
X62233489Y-37230261D01*
X62078845Y-37199500D01*
X62078842Y-37199500D01*
X61921158Y-37199500D01*
X61921155Y-37199500D01*
X61766510Y-37230261D01*
X61766498Y-37230264D01*
X61620827Y-37290602D01*
X61620814Y-37290609D01*
X61489711Y-37378210D01*
X61489707Y-37378213D01*
X61378213Y-37489707D01*
X61378210Y-37489711D01*
X61290609Y-37620814D01*
X61290602Y-37620827D01*
X61230264Y-37766498D01*
X61230261Y-37766510D01*
X61199500Y-37921153D01*
X53340000Y-37921153D01*
X53340000Y-35560000D01*
X52150499Y-35560000D01*
X52150499Y-34662128D01*
X52144091Y-34602517D01*
X52108982Y-34508386D01*
X52093797Y-34467671D01*
X52093793Y-34467664D01*
X52007547Y-34352455D01*
X52007544Y-34352452D01*
X51892335Y-34266206D01*
X51892328Y-34266202D01*
X51757482Y-34215908D01*
X51757483Y-34215908D01*
X51697883Y-34209501D01*
X51697881Y-34209500D01*
X51697873Y-34209500D01*
X51697864Y-34209500D01*
X49902129Y-34209500D01*
X49902123Y-34209501D01*
X49842516Y-34215908D01*
X49707671Y-34266202D01*
X49707664Y-34266206D01*
X49592455Y-34352452D01*
X49592452Y-34352455D01*
X49506206Y-34467664D01*
X49506202Y-34467671D01*
X49455908Y-34602517D01*
X49449501Y-34662116D01*
X49449501Y-34662123D01*
X49449500Y-34662135D01*
X49449500Y-35560000D01*
X48760500Y-35560000D01*
X48760500Y-32518848D01*
X48780185Y-32451809D01*
X48832989Y-32406054D01*
X48884500Y-32394848D01*
X86375499Y-32394848D01*
X86442538Y-32414533D01*
G37*
%TD.AperFunction*%
%TD*%
%TA.AperFunction,Conductor*%
%TO.N,GND*%
G36*
X49449500Y-36457870D02*
G01*
X49449501Y-36457876D01*
X49455908Y-36517483D01*
X49506202Y-36652328D01*
X49506206Y-36652335D01*
X49592452Y-36767544D01*
X49592455Y-36767547D01*
X49707664Y-36853793D01*
X49707671Y-36853797D01*
X49752618Y-36870561D01*
X49842517Y-36904091D01*
X49902127Y-36910500D01*
X49912685Y-36910499D01*
X49979723Y-36930179D01*
X50000372Y-36946818D01*
X50670591Y-37617037D01*
X50607007Y-37634075D01*
X50492993Y-37699901D01*
X50399901Y-37792993D01*
X50334075Y-37907007D01*
X50317037Y-37970591D01*
X49684728Y-37338282D01*
X49684727Y-37338282D01*
X49645380Y-37392439D01*
X49548904Y-37581782D01*
X49483242Y-37783869D01*
X49483242Y-37783872D01*
X49450000Y-37993753D01*
X49450000Y-38206246D01*
X49483242Y-38416127D01*
X49483242Y-38416130D01*
X49548904Y-38618217D01*
X49645375Y-38807550D01*
X49684728Y-38861716D01*
X50317037Y-38229408D01*
X50334075Y-38292993D01*
X50399901Y-38407007D01*
X50492993Y-38500099D01*
X50607007Y-38565925D01*
X50670590Y-38582962D01*
X50038282Y-39215269D01*
X50038282Y-39215270D01*
X50092452Y-39254626D01*
X50092451Y-39254626D01*
X50101495Y-39259234D01*
X50152292Y-39307208D01*
X50169087Y-39375029D01*
X50146550Y-39441164D01*
X50101499Y-39480202D01*
X50092182Y-39484949D01*
X49920213Y-39609890D01*
X49769890Y-39760213D01*
X49644951Y-39932179D01*
X49548444Y-40121585D01*
X49482753Y-40323760D01*
X49449500Y-40533713D01*
X49449500Y-40640000D01*
X48760500Y-40640000D01*
X48760500Y-35560000D01*
X49449500Y-35560000D01*
X49449500Y-36457870D01*
G37*
%TD.AperFunction*%
%TA.AperFunction,Conductor*%
G36*
X53340000Y-40640000D02*
G01*
X52150500Y-40640000D01*
X52150500Y-40533713D01*
X52117246Y-40323760D01*
X52117246Y-40323757D01*
X52051557Y-40121588D01*
X51955051Y-39932184D01*
X51955049Y-39932181D01*
X51955048Y-39932179D01*
X51830109Y-39760213D01*
X51679786Y-39609890D01*
X51507817Y-39484949D01*
X51498504Y-39480204D01*
X51447707Y-39432230D01*
X51430912Y-39364409D01*
X51453449Y-39298274D01*
X51498507Y-39259232D01*
X51507555Y-39254622D01*
X51561716Y-39215270D01*
X51561717Y-39215270D01*
X50929408Y-38582962D01*
X50992993Y-38565925D01*
X51107007Y-38500099D01*
X51200099Y-38407007D01*
X51265925Y-38292993D01*
X51282962Y-38229408D01*
X51915270Y-38861717D01*
X51915270Y-38861716D01*
X51954622Y-38807554D01*
X52051095Y-38618217D01*
X52116757Y-38416130D01*
X52116757Y-38416127D01*
X52150000Y-38206246D01*
X52150000Y-37993753D01*
X52116757Y-37783872D01*
X52116757Y-37783869D01*
X52051095Y-37581782D01*
X51954624Y-37392449D01*
X51915270Y-37338282D01*
X51915269Y-37338282D01*
X51282962Y-37970590D01*
X51265925Y-37907007D01*
X51200099Y-37792993D01*
X51107007Y-37699901D01*
X50992993Y-37634075D01*
X50929409Y-37617037D01*
X51599627Y-36946818D01*
X51660950Y-36913333D01*
X51687307Y-36910499D01*
X51697872Y-36910499D01*
X51757483Y-36904091D01*
X51892331Y-36853796D01*
X52007546Y-36767546D01*
X52093796Y-36652331D01*
X52144091Y-36517483D01*
X52150500Y-36457873D01*
X52150499Y-35560000D01*
X53340000Y-35560000D01*
X53340000Y-40640000D01*
G37*
%TD.AperFunction*%
%TD*%
M02*
