M48
; DRILL file KiCad 10.0.6 date 2026-09-17T13:40:17
; FORMAT={-:-/ absolute / metric / decimal}
; #@! TF.CreationDate,2026-09-17T13:40:17+02:00
; #@! TF.GenerationSoftware,Kicad,Pcbnew,10.0.6
; #@! TF.FileFunction,Plated,1,2,PTH
FMAT,2
METRIC
; #@! TA.AperFunction,Plated,PTH,ViaDrill
T1C0.300
; #@! TA.AperFunction,Plated,PTH,ComponentDrill
T2C0.800
; #@! TA.AperFunction,Plated,PTH,ComponentDrill
T3C1.000
; #@! TA.AperFunction,Plated,PTH,ComponentDrill
T4C1.500
%
G90
G05
T1
X59.0Y-74.0
X61.0Y-72.0
X62.0Y-38.0
X62.0Y-47.0
X62.0Y-66.0
X68.0Y-72.0
X71.0Y-69.0
X75.0Y-45.0
X76.0Y-58.0
X76.0Y-119.0
X77.0Y-68.0
X78.0Y-39.0
X79.0Y-75.0
X80.0Y-111.0
X80.0Y-119.0
X82.0Y-59.0
T2
X72.0Y-35.19
X72.0Y-42.81
X72.0Y-46.0
X72.0Y-51.0
X73.0Y-54.0
X73.0Y-56.0
X78.0Y-35.19
X78.0Y-42.81
X78.0Y-46.5
X78.0Y-51.5
X79.0Y-138.0
X79.0Y-140.0
X79.0Y-142.0
X82.525Y-61.305
X82.525Y-68.925
T3
X50.8Y-35.56
X50.8Y-38.1
X50.8Y-40.64
X50.8Y-43.18
X50.8Y-45.72
X50.8Y-48.26
X50.8Y-50.8
X50.8Y-53.34
X51.14Y-126.3
X51.14Y-128.84
X51.14Y-131.38
X51.14Y-133.92
X51.14Y-136.46
X51.14Y-139.0
X51.14Y-141.54
X51.14Y-144.08
X55.22Y-77.0
X57.76Y-77.0
X60.3Y-77.0
X62.84Y-77.0
X65.38Y-77.0
X66.04Y-35.56
X66.04Y-38.1
X66.04Y-40.64
X66.04Y-43.18
X66.04Y-45.72
X66.04Y-48.26
X66.04Y-50.8
X66.04Y-53.34
X67.92Y-77.0
X70.46Y-77.0
X73.0Y-77.0
X74.0Y-126.3
X74.0Y-128.84
X74.0Y-131.38
X74.0Y-133.92
X74.0Y-136.46
X74.0Y-139.0
X74.0Y-141.54
X74.0Y-144.08
X79.0Y-59.92
X79.0Y-62.46
X79.0Y-65.0
X79.0Y-67.54
X79.0Y-70.08
X79.0Y-72.62
X79.0Y-131.0
X84.0Y-105.0
X84.0Y-107.54
X84.0Y-110.08
X84.0Y-112.62
T4
X79.0Y-135.9
X79.0Y-144.1
M30
