%TF.GenerationSoftware,KiCad,Pcbnew,10.0.3*%
%TF.CreationDate,2026-06-02T11:28:32+02:00*%
%TF.ProjectId,bikesensor_pcb,62696b65-7365-46e7-936f-725f7063622e,rev?*%
%TF.SameCoordinates,Original*%
%TF.FileFunction,Copper,L1,Top*%
%TF.FilePolarity,Positive*%
%FSLAX46Y46*%
G04 Gerber Fmt 4.6, Leading zero omitted, Abs format (unit mm)*
G04 Created by KiCad (PCBNEW 10.0.3) date 2026-06-02 11:28:32*
%MOMM*%
%LPD*%
G01*
G04 APERTURE LIST*
G04 Aperture macros list*
%AMRoundRect*
0 Rectangle with rounded corners*
0 $1 Rounding radius*
0 $2 $3 $4 $5 $6 $7 $8 $9 X,Y pos of 4 corners*
0 Add a 4 corners polygon primitive as box body*
4,1,4,$2,$3,$4,$5,$6,$7,$8,$9,$2,$3,0*
0 Add four circle primitives for the rounded corners*
1,1,$1+$1,$2,$3*
1,1,$1+$1,$4,$5*
1,1,$1+$1,$6,$7*
1,1,$1+$1,$8,$9*
0 Add four rect primitives between the rounded corners*
20,1,$1+$1,$2,$3,$4,$5,0*
20,1,$1+$1,$4,$5,$6,$7,0*
20,1,$1+$1,$6,$7,$8,$9,0*
20,1,$1+$1,$8,$9,$2,$3,0*%
G04 Aperture macros list end*
%TA.AperFunction,ComponentPad*%
%ADD10R,1.700000X1.700000*%
%TD*%
%TA.AperFunction,ComponentPad*%
%ADD11C,1.700000*%
%TD*%
%TA.AperFunction,ComponentPad*%
%ADD12O,2.200000X3.500000*%
%TD*%
%TA.AperFunction,ComponentPad*%
%ADD13R,1.500000X2.500000*%
%TD*%
%TA.AperFunction,ComponentPad*%
%ADD14O,1.500000X2.500000*%
%TD*%
%TA.AperFunction,ComponentPad*%
%ADD15C,1.600000*%
%TD*%
%TA.AperFunction,ComponentPad*%
%ADD16RoundRect,0.250000X-0.550000X0.550000X-0.550000X-0.550000X0.550000X-0.550000X0.550000X0.550000X0*%
%TD*%
%TA.AperFunction,ViaPad*%
%ADD17C,0.600000*%
%TD*%
%TA.AperFunction,Conductor*%
%ADD18C,0.254000*%
%TD*%
%TA.AperFunction,Conductor*%
%ADD19C,0.812800*%
%TD*%
G04 APERTURE END LIST*
D10*
%TO.P,J5,1,Pin_1_1*%
%TO.N,+5V*%
X88900000Y-124460000D03*
D11*
%TO.P,J5,2,Pin_2_2*%
%TO.N,/GPS_TX*%
X88900000Y-127000000D03*
%TO.P,J5,3,Pin_3_3*%
%TO.N,/GPS_RX*%
X88900000Y-129540000D03*
%TO.P,J5,4,Pin_4_4*%
%TO.N,GND*%
X88900000Y-132080000D03*
%TD*%
D12*
%TO.P,SW1,*%
%TO.N,*%
X90275000Y-165580000D03*
X98475000Y-165580000D03*
D13*
%TO.P,SW1,1,A_1*%
%TO.N,+5V*%
X92375000Y-165580000D03*
D14*
%TO.P,SW1,2,B_2*%
%TO.N,Net-(J7-Pin_8)*%
X94375000Y-165580000D03*
%TO.P,SW1,3,C_3*%
%TO.N,unconnected-(SW1-C-Pad3)*%
X96375000Y-165580000D03*
%TD*%
D10*
%TO.P,J7,1,Pin_1_1*%
%TO.N,unconnected-(J7-Pin_1-Pad1)*%
X76200000Y-149860000D03*
D11*
%TO.P,J7,2,Pin_2_2*%
%TO.N,unconnected-(J7-Pin_2-Pad2)*%
X76200000Y-152400000D03*
%TO.P,J7,3,Pin_3_3*%
%TO.N,unconnected-(J7-Pin_3-Pad3)*%
X76200000Y-154940000D03*
%TO.P,J7,4,Pin_4_4*%
%TO.N,unconnected-(J7-Pin_4-Pad4)*%
X76200000Y-157480000D03*
%TO.P,J7,5,Pin_5_5*%
%TO.N,unconnected-(J7-Pin_5-Pad5)*%
X76200000Y-160020000D03*
%TO.P,J7,6,Pin_6_6*%
%TO.N,unconnected-(J7-Pin_6-Pad6)*%
X76200000Y-162560000D03*
%TO.P,J7,7,Pin_7_7*%
%TO.N,GND*%
X76200000Y-165100000D03*
%TO.P,J7,8,Pin_8_8*%
%TO.N,Net-(J7-Pin_8)*%
X76200000Y-167640000D03*
%TD*%
D10*
%TO.P,J8,1,Pin_1_1*%
%TO.N,/VBAT*%
X99060000Y-147320000D03*
%TD*%
%TO.P,J6,1,Pin_1_1*%
%TO.N,unconnected-(J6-Pin_1-Pad1)*%
X50800000Y-149860000D03*
D11*
%TO.P,J6,2,Pin_2_2*%
%TO.N,unconnected-(J6-Pin_2-Pad2)*%
X50800000Y-152400000D03*
%TO.P,J6,3,Pin_3_3*%
%TO.N,unconnected-(J6-Pin_3-Pad3)*%
X50800000Y-154940000D03*
%TO.P,J6,4,Pin_4_4*%
%TO.N,unconnected-(J6-Pin_4-Pad4)*%
X50800000Y-157480000D03*
%TO.P,J6,5,Pin_5_5*%
%TO.N,unconnected-(J6-Pin_5-Pad5)*%
X50800000Y-160020000D03*
%TO.P,J6,6,Pin_6_6*%
%TO.N,unconnected-(J6-Pin_6-Pad6)*%
X50800000Y-162560000D03*
%TO.P,J6,7,Pin_7_7*%
%TO.N,unconnected-(J6-Pin_7-Pad7)*%
X50800000Y-165100000D03*
%TO.P,J6,8,Pin_8_8*%
%TO.N,unconnected-(J6-Pin_8-Pad8)*%
X50800000Y-167640000D03*
%TD*%
D15*
%TO.P,R1,1*%
%TO.N,/VBAT*%
X99060000Y-37570000D03*
%TO.P,R1,2*%
%TO.N,/BATTERY_ADC*%
X99060000Y-45190000D03*
%TD*%
D16*
%TO.P,C1,1*%
%TO.N,+3V3*%
X99060000Y-63500000D03*
D15*
%TO.P,C1,2*%
%TO.N,GND*%
X99060000Y-65500000D03*
%TD*%
%TO.P,C2,1*%
%TO.N,+3V3*%
X97890000Y-53567086D03*
%TO.P,C2,2*%
%TO.N,GND*%
X97890000Y-58567086D03*
%TD*%
%TO.P,R2,1*%
%TO.N,/BATTERY_ADC*%
X81280000Y-37570000D03*
%TO.P,R2,2*%
%TO.N,GND*%
X81280000Y-45190000D03*
%TD*%
D10*
%TO.P,J1,1,Pin_1_1*%
%TO.N,+5V*%
X50800000Y-35560000D03*
D11*
%TO.P,J1,2,Pin_2_2*%
%TO.N,GND*%
X50800000Y-38100000D03*
%TO.P,J1,3,Pin_3_3*%
%TO.N,+3V3*%
X50800000Y-40640000D03*
%TO.P,J1,4,Pin_4_4*%
%TO.N,/GPIO_9*%
X50800000Y-43180000D03*
%TO.P,J1,5,Pin_5_5*%
%TO.N,/GPIO_8*%
X50800000Y-45720000D03*
%TO.P,J1,6,Pin_6_6*%
%TO.N,/I2C_SCL*%
X50800000Y-48260000D03*
%TO.P,J1,7,Pin_7_7*%
%TO.N,/I2C_SDA*%
X50800000Y-50800000D03*
%TO.P,J1,8,Pin_8_8*%
%TO.N,/SPI_MISO*%
X50800000Y-53340000D03*
%TD*%
D15*
%TO.P,C3,1*%
%TO.N,/BATTERY_ADC*%
X83820000Y-50880000D03*
%TO.P,C3,2*%
%TO.N,GND*%
X83820000Y-55880000D03*
%TD*%
D10*
%TO.P,J3,1,Pin_1_1*%
%TO.N,+3V3*%
X50800000Y-91440000D03*
D11*
%TO.P,J3,2,Pin_2_2*%
%TO.N,GND*%
X50800000Y-93980000D03*
%TO.P,J3,3,Pin_3_3*%
%TO.N,/I2C_SCL*%
X50800000Y-96520000D03*
%TO.P,J3,4,Pin_4_4*%
%TO.N,/I2C_SDA*%
X50800000Y-99060000D03*
%TO.P,J3,5,Pin_5_5*%
%TO.N,/XDA*%
X50800000Y-101600000D03*
%TO.P,J3,6,Pin_6_6*%
%TO.N,/XCL*%
X50800000Y-104140000D03*
%TO.P,J3,7,Pin_7_7*%
%TO.N,/AD0*%
X50800000Y-106680000D03*
%TO.P,J3,8,Pin_8_8*%
%TO.N,/INT*%
X50800000Y-109220000D03*
%TD*%
D10*
%TO.P,J4,1,Pin_1_1*%
%TO.N,GND*%
X86360000Y-66040000D03*
D11*
%TO.P,J4,2,Pin_2_2*%
%TO.N,+3V3*%
X86360000Y-68580000D03*
%TO.P,J4,3,Pin_3_3*%
%TO.N,/SPI_MISO*%
X86360000Y-71120000D03*
%TO.P,J4,4,Pin_4_4*%
%TO.N,/SPI_MOSI*%
X86360000Y-73660000D03*
%TO.P,J4,5,Pin_5_5*%
%TO.N,/SPI_SCK*%
X86360000Y-76200000D03*
%TO.P,J4,6,Pin_6_6*%
%TO.N,/SPI_CS*%
X86360000Y-78740000D03*
%TD*%
D10*
%TO.P,J2,1,Pin_1_1*%
%TO.N,/SPI_SCK*%
X71120000Y-35560000D03*
D11*
%TO.P,J2,2,Pin_2_2*%
%TO.N,/SPI_MOSI*%
X71120000Y-38100000D03*
%TO.P,J2,3,Pin_3_3*%
%TO.N,/SPI_CS*%
X71120000Y-40640000D03*
%TO.P,J2,4,Pin_4_4*%
%TO.N,/GPS_TX*%
X71120000Y-43180000D03*
%TO.P,J2,5,Pin_5_5*%
%TO.N,/BATTERY_ADC*%
X71120000Y-45720000D03*
%TO.P,J2,6,Pin_6_6*%
%TO.N,/UART_TX_DEBUG*%
X71120000Y-48260000D03*
%TO.P,J2,7,Pin_7_7*%
%TO.N,/UART_RX_DEBUG*%
X71120000Y-50800000D03*
%TO.P,J2,8,Pin_8_8*%
%TO.N,/GPS_RX*%
X71120000Y-53340000D03*
%TD*%
D17*
%TO.N,GND*%
X93980000Y-55880000D03*
X88900000Y-50800000D03*
X81280000Y-48260000D03*
%TO.N,/SPI_MISO*%
X81280000Y-83820000D03*
X91440000Y-83820000D03*
%TO.N,/SPI_SCK*%
X83820000Y-63500000D03*
%TO.N,/SPI_CS*%
X88900000Y-78740000D03*
X76200000Y-40640000D03*
%TD*%
%TO.N,/GPS_TX*%
D18*
X65413000Y-37840288D02*
X65413000Y-103513000D01*
X71607530Y-36923000D02*
X66330288Y-36923000D01*
X72297000Y-42003000D02*
X72297000Y-37612470D01*
X66330288Y-36923000D02*
X65413000Y-37840288D01*
X72297000Y-37612470D02*
X71607530Y-36923000D01*
X65413000Y-103513000D02*
X88900000Y-127000000D01*
X71120000Y-43180000D02*
X72297000Y-42003000D01*
%TO.N,/GPS_RX*%
X71120000Y-74546712D02*
X71120000Y-53340000D01*
X90077000Y-128363000D02*
X90077000Y-93503712D01*
X90077000Y-93503712D02*
X71120000Y-74546712D01*
X88900000Y-129540000D02*
X90077000Y-128363000D01*
%TO.N,GND*%
X76459712Y-40013000D02*
X75940288Y-40013000D01*
D19*
X94937184Y-58340000D02*
X94937184Y-56837184D01*
D18*
X81280000Y-44833288D02*
X76459712Y-40013000D01*
X81280000Y-45190000D02*
X83290000Y-45190000D01*
X75573000Y-40380288D02*
X75573000Y-50406418D01*
X81280000Y-48260000D02*
X81280000Y-44833288D01*
X75940288Y-40013000D02*
X75573000Y-40380288D01*
X75573000Y-50406418D02*
X86360000Y-61193418D01*
X86360000Y-61193418D02*
X86360000Y-66040000D01*
D19*
X88900000Y-50800000D02*
X88900000Y-52302816D01*
X88900000Y-52302816D02*
X94937184Y-58340000D01*
D18*
X83290000Y-45190000D02*
X88900000Y-50800000D01*
D19*
X94937184Y-56837184D02*
X93980000Y-55880000D01*
%TO.N,Net-(J7-Pin_8)*%
X91837800Y-170180000D02*
X78740000Y-170180000D01*
X94375000Y-167642800D02*
X91837800Y-170180000D01*
X78740000Y-170180000D02*
X76200000Y-167640000D01*
X94375000Y-165580000D02*
X94375000Y-167642800D01*
%TO.N,/I2C_SCL*%
D18*
X50800000Y-48260000D02*
X49623000Y-49437000D01*
X49623000Y-95343000D02*
X50800000Y-96520000D01*
X49623000Y-49437000D02*
X49623000Y-95343000D01*
%TO.N,/I2C_SDA*%
X52650530Y-97209470D02*
X50800000Y-99060000D01*
X52650530Y-52650530D02*
X52650530Y-97209470D01*
X50800000Y-50800000D02*
X52650530Y-52650530D01*
%TO.N,/SPI_MISO*%
X81280000Y-83820000D02*
X91440000Y-83820000D01*
%TO.N,/SPI_MOSI*%
X86360000Y-73660000D02*
X84447000Y-71747000D01*
X71607530Y-47083000D02*
X70818470Y-47083000D01*
X70818470Y-47083000D02*
X66040000Y-42304530D01*
X84447000Y-59922470D02*
X71607530Y-47083000D01*
X66040000Y-38100000D02*
X71120000Y-38100000D01*
X66040000Y-42304530D02*
X66040000Y-38100000D01*
X84447000Y-71747000D02*
X84447000Y-59922470D01*
%TO.N,/SPI_SCK*%
X83820000Y-73660000D02*
X86360000Y-76200000D01*
X83820000Y-63500000D02*
X83820000Y-73660000D01*
%TO.N,/SPI_CS*%
X78740000Y-48260000D02*
X86360000Y-55880000D01*
X76200000Y-43180000D02*
X78740000Y-45720000D01*
X76200000Y-40640000D02*
X76200000Y-43180000D01*
X88900000Y-78740000D02*
X93980000Y-78740000D01*
X93980000Y-66040000D02*
X93980000Y-78740000D01*
X78740000Y-45720000D02*
X78740000Y-48260000D01*
X86360000Y-58420000D02*
X93980000Y-66040000D01*
X86360000Y-55880000D02*
X86360000Y-58420000D01*
%TD*%
M02*
